%
M48
M72
T01C0.0197
T02C0.0315
T03C0.0400
%
T01
X5253Y1180
X9153Y2380
X9703Y2680
X10353Y2980
X11403Y2980
X13953Y3280
X13953Y3880
X13953Y4480
X12153Y5180
X13403Y6080
X13053Y6480
X13053Y6980
X13053Y7580
X14703Y7430
X15053Y7080
X16353Y7780
X16853Y7780
X18553Y7780
X17353Y8780
X16453Y8780
X17353Y9380
X17353Y9980
X13453Y8880
X9853Y9780
X6353Y9780
X5653Y9230
X1653Y9280
X7153Y6830
X7153Y6180
X9353Y6380
X9353Y5580
X9353Y4780
X9153Y4180
X6653Y3180
X1653Y5280
X2503Y5930
X18353Y5180
X19953Y5980
X19653Y6480
X18553Y6780
X27253Y10880
X26453Y11680
X25853Y2380
X23953Y2380
X21903Y2130
T02
X23149Y11558
X27165Y11558
T03
X25403Y8430
X25403Y7430
X25403Y6430
X25403Y5430
X25403Y4430
X25403Y3430
X22703Y3280
X21603Y3280
X20503Y3280
X19403Y3280
X19403Y930
X18403Y930
X17403Y930
X16403Y930
X15403Y930
X14403Y930
X13403Y930
X12403Y930
X11403Y930
X10403Y930
X20403Y930
X21403Y930
X22403Y930
X23403Y930
X24403Y930
X25403Y930
X26403Y930
X27403Y930
X19753Y9980
M30
