G75*
%MOIN*%
%OFA0B0*%
%FSLAX24Y24*%
%IPPOS*%
%LPD*%
%AMOC8*
5,1,8,0,0,1.08239X$1,22.5*
%
%ADD10C,0.0050*%
%ADD11C,0.0070*%
%ADD12C,0.0060*%
%ADD13C,0.0020*%
%ADD14R,0.0079X0.0079*%
%ADD15C,0.0300*%
%ADD16R,0.0200X0.0300*%
%ADD17R,0.0400X0.0300*%
%ADD18C,0.0080*%
%ADD19R,0.0591X0.0591*%
%ADD20C,0.0000*%
D10*
X007990Y004147D02*
X008032Y004105D01*
X008115Y004105D01*
X008157Y004147D01*
X008266Y004147D02*
X008308Y004105D01*
X008391Y004105D01*
X008433Y004147D01*
X008542Y004230D02*
X008709Y004230D01*
X008819Y004230D02*
X008944Y004230D01*
X008985Y004189D01*
X008985Y004147D01*
X008944Y004105D01*
X008819Y004105D01*
X008819Y004355D01*
X008944Y004355D01*
X008985Y004314D01*
X008985Y004272D01*
X008944Y004230D01*
X009095Y004314D02*
X009178Y004230D01*
X009178Y004105D01*
X009178Y004230D02*
X009262Y004314D01*
X009262Y004355D01*
X009266Y004472D02*
X009308Y004513D01*
X009308Y004722D01*
X009183Y004722D01*
X009141Y004680D01*
X009141Y004597D01*
X009183Y004555D01*
X009308Y004555D01*
X009266Y004472D02*
X009224Y004472D01*
X009095Y004355D02*
X009095Y004314D01*
X009371Y004230D02*
X009538Y004230D01*
X009647Y004230D02*
X009814Y004230D01*
X009772Y004105D02*
X009772Y004355D01*
X009647Y004230D01*
X009924Y004147D02*
X009965Y004147D01*
X009965Y004105D01*
X009924Y004105D01*
X009924Y004147D01*
X010062Y004147D02*
X010229Y004314D01*
X010229Y004147D01*
X010187Y004105D01*
X010103Y004105D01*
X010062Y004147D01*
X010062Y004314D01*
X010103Y004355D01*
X010187Y004355D01*
X010229Y004314D01*
X010053Y004555D02*
X010136Y004722D01*
X009970Y004722D02*
X010053Y004555D01*
X009860Y004639D02*
X009693Y004639D01*
X009693Y004680D02*
X009735Y004722D01*
X009819Y004722D01*
X009860Y004680D01*
X009860Y004639D01*
X009819Y004555D02*
X009735Y004555D01*
X009693Y004597D01*
X009693Y004680D01*
X009584Y004680D02*
X009584Y004639D01*
X009417Y004639D01*
X009417Y004680D02*
X009459Y004722D01*
X009542Y004722D01*
X009584Y004680D01*
X009542Y004555D02*
X009459Y004555D01*
X009417Y004597D01*
X009417Y004680D01*
X009036Y004722D02*
X008994Y004722D01*
X008911Y004639D01*
X008911Y004722D02*
X008911Y004555D01*
X008801Y004639D02*
X008635Y004639D01*
X008635Y004680D02*
X008676Y004722D01*
X008760Y004722D01*
X008801Y004680D01*
X008801Y004639D01*
X008760Y004555D02*
X008676Y004555D01*
X008635Y004597D01*
X008635Y004680D01*
X008525Y004722D02*
X008400Y004722D01*
X008358Y004680D01*
X008400Y004639D01*
X008483Y004639D01*
X008525Y004597D01*
X008483Y004555D01*
X008358Y004555D01*
X008165Y004555D02*
X008249Y004722D01*
X008082Y004722D02*
X008165Y004555D01*
X008115Y004355D02*
X008032Y004355D01*
X007990Y004314D01*
X007990Y004147D01*
X008157Y004314D02*
X008115Y004355D01*
X008266Y004314D02*
X008266Y004147D01*
X008266Y004314D02*
X008308Y004355D01*
X008391Y004355D01*
X008433Y004314D01*
X008427Y005205D02*
X008427Y005475D01*
X008562Y005475D01*
X008608Y005430D01*
X008608Y005340D01*
X008562Y005295D01*
X008427Y005295D01*
X008517Y005295D02*
X008608Y005205D01*
X008722Y005205D02*
X008722Y005475D01*
X008812Y005385D01*
X008902Y005475D01*
X008902Y005205D01*
X009311Y005205D02*
X009446Y005205D01*
X009491Y005250D01*
X009491Y005340D01*
X009446Y005385D01*
X009311Y005385D01*
X009311Y005475D02*
X009311Y005205D01*
X009606Y005205D02*
X009606Y005385D01*
X009651Y005385D01*
X009696Y005340D01*
X009741Y005385D01*
X009786Y005340D01*
X009786Y005205D01*
X009696Y005205D02*
X009696Y005340D01*
X009901Y005385D02*
X009901Y005250D01*
X009946Y005205D01*
X009991Y005250D01*
X010036Y005205D01*
X010081Y005250D01*
X010081Y005385D01*
X010369Y005385D02*
X010459Y005205D01*
X010549Y005385D01*
X010664Y005430D02*
X010709Y005475D01*
X010799Y005475D01*
X010844Y005430D01*
X010844Y005385D01*
X010664Y005205D01*
X010844Y005205D01*
X011614Y005686D02*
X011794Y005686D01*
X011884Y005776D01*
X011794Y005866D01*
X011614Y005866D01*
X011659Y005980D02*
X011839Y005980D01*
X011884Y006025D01*
X011884Y006161D01*
X011614Y006161D01*
X011614Y006025D01*
X011659Y005980D01*
X011749Y005866D02*
X011749Y005686D01*
X011704Y006275D02*
X011659Y006275D01*
X011614Y006320D01*
X011614Y006410D01*
X011659Y006455D01*
X011749Y006410D02*
X011749Y006320D01*
X011704Y006275D01*
X011839Y006275D02*
X011884Y006320D01*
X011884Y006410D01*
X011839Y006455D01*
X011794Y006455D01*
X011749Y006410D01*
X012614Y006410D02*
X012614Y006320D01*
X012659Y006275D01*
X012704Y006275D01*
X012749Y006320D01*
X012749Y006410D01*
X012794Y006455D01*
X012839Y006455D01*
X012884Y006410D01*
X012884Y006320D01*
X012839Y006275D01*
X012839Y006161D02*
X012659Y006161D01*
X012614Y006115D01*
X012614Y006025D01*
X012659Y005980D01*
X012614Y005866D02*
X012614Y005686D01*
X012614Y005866D02*
X012884Y005866D01*
X012839Y005980D02*
X012884Y006025D01*
X012884Y006115D01*
X012839Y006161D01*
X012614Y006410D02*
X012659Y006455D01*
X013614Y006475D02*
X013884Y006475D01*
X013794Y006565D01*
X013884Y006655D01*
X013614Y006655D01*
X013614Y006361D02*
X013614Y006270D01*
X013614Y006315D02*
X013884Y006315D01*
X013884Y006270D02*
X013884Y006361D01*
X013839Y006164D02*
X013794Y006164D01*
X013749Y006119D01*
X013749Y006029D01*
X013704Y005984D01*
X013659Y005984D01*
X013614Y006029D01*
X013614Y006119D01*
X013659Y006164D01*
X013839Y006164D02*
X013884Y006119D01*
X013884Y006029D01*
X013839Y005984D01*
X013839Y005869D02*
X013659Y005869D01*
X013614Y005824D01*
X013614Y005734D01*
X013659Y005689D01*
X013839Y005689D01*
X013884Y005734D01*
X013884Y005824D01*
X013839Y005869D01*
X014614Y005931D02*
X014659Y005886D01*
X014704Y005886D01*
X014749Y005931D01*
X014749Y006021D01*
X014794Y006066D01*
X014839Y006066D01*
X014884Y006021D01*
X014884Y005931D01*
X014839Y005886D01*
X014884Y005771D02*
X014884Y005681D01*
X014884Y005726D02*
X014614Y005726D01*
X014614Y005771D02*
X014614Y005681D01*
X014614Y005931D02*
X014614Y006021D01*
X014659Y006066D01*
X014659Y006180D02*
X014839Y006180D01*
X014884Y006225D01*
X014884Y006315D01*
X014839Y006361D01*
X014659Y006361D01*
X014614Y006315D01*
X014614Y006225D01*
X014659Y006180D01*
X014614Y006475D02*
X014884Y006475D01*
X014794Y006565D01*
X014884Y006655D01*
X014614Y006655D01*
X015614Y006410D02*
X015614Y006320D01*
X015659Y006275D01*
X015704Y006275D01*
X015749Y006320D01*
X015749Y006410D01*
X015794Y006455D01*
X015839Y006455D01*
X015884Y006410D01*
X015884Y006320D01*
X015839Y006275D01*
X015839Y006161D02*
X015659Y006161D01*
X015614Y006115D01*
X015614Y006025D01*
X015659Y005980D01*
X015614Y005866D02*
X015884Y005866D01*
X015839Y005980D02*
X015884Y006025D01*
X015884Y006115D01*
X015839Y006161D01*
X015614Y006410D02*
X015659Y006455D01*
X016614Y006155D02*
X016794Y006155D01*
X016884Y006065D01*
X016794Y005975D01*
X016614Y005975D01*
X016659Y005861D02*
X016839Y005680D01*
X016659Y005680D01*
X016614Y005725D01*
X016614Y005815D01*
X016659Y005861D01*
X016839Y005861D01*
X016884Y005815D01*
X016884Y005725D01*
X016839Y005680D01*
X016749Y005975D02*
X016749Y006155D01*
X017614Y006155D02*
X017794Y006155D01*
X017884Y006065D01*
X017794Y005975D01*
X017614Y005975D01*
X017614Y005861D02*
X017614Y005680D01*
X017614Y005770D02*
X017884Y005770D01*
X017794Y005861D01*
X017749Y005975D02*
X017749Y006155D01*
X018614Y006155D02*
X018794Y006155D01*
X018884Y006065D01*
X018794Y005975D01*
X018614Y005975D01*
X018614Y005861D02*
X018794Y005680D01*
X018839Y005680D01*
X018884Y005725D01*
X018884Y005815D01*
X018839Y005861D01*
X018749Y005975D02*
X018749Y006155D01*
X018614Y005861D02*
X018614Y005680D01*
X019614Y005725D02*
X019614Y005815D01*
X019659Y005861D01*
X019614Y005975D02*
X019794Y005975D01*
X019884Y006065D01*
X019794Y006155D01*
X019614Y006155D01*
X019749Y006155D02*
X019749Y005975D01*
X019839Y005861D02*
X019884Y005815D01*
X019884Y005725D01*
X019839Y005680D01*
X019794Y005680D01*
X019749Y005725D01*
X019704Y005680D01*
X019659Y005680D01*
X019614Y005725D01*
X019749Y005725D02*
X019749Y005770D01*
X020614Y005725D02*
X020884Y005725D01*
X020749Y005861D01*
X020749Y005680D01*
X020749Y005975D02*
X020749Y006155D01*
X020794Y006155D02*
X020884Y006065D01*
X020794Y005975D01*
X020614Y005975D01*
X020614Y006155D02*
X020794Y006155D01*
X021614Y006155D02*
X021794Y006155D01*
X021884Y006065D01*
X021794Y005975D01*
X021614Y005975D01*
X021659Y005861D02*
X021614Y005815D01*
X021614Y005725D01*
X021659Y005680D01*
X021749Y005680D01*
X021794Y005725D01*
X021794Y005770D01*
X021749Y005861D01*
X021884Y005861D01*
X021884Y005680D01*
X021749Y005975D02*
X021749Y006155D01*
X022614Y006155D02*
X022884Y006155D01*
X022884Y006020D01*
X022839Y005975D01*
X022749Y005975D01*
X022704Y006020D01*
X022704Y006155D01*
X022659Y005861D02*
X022839Y005680D01*
X022659Y005680D01*
X022614Y005725D01*
X022614Y005815D01*
X022659Y005861D01*
X022839Y005861D01*
X022884Y005815D01*
X022884Y005725D01*
X022839Y005680D01*
X023614Y005680D02*
X023614Y005861D01*
X023614Y005770D02*
X023884Y005770D01*
X023794Y005861D01*
X023749Y005975D02*
X023704Y006020D01*
X023704Y006155D01*
X023614Y006155D02*
X023884Y006155D01*
X023884Y006020D01*
X023839Y005975D01*
X023749Y005975D01*
X024614Y005861D02*
X024794Y005680D01*
X024839Y005680D01*
X024884Y005725D01*
X024884Y005815D01*
X024839Y005861D01*
X024839Y005975D02*
X024749Y005975D01*
X024704Y006020D01*
X024704Y006155D01*
X024614Y006155D02*
X024884Y006155D01*
X024884Y006020D01*
X024839Y005975D01*
X024614Y005861D02*
X024614Y005680D01*
X025614Y005725D02*
X025614Y005815D01*
X025659Y005861D01*
X025749Y005770D02*
X025749Y005725D01*
X025704Y005680D01*
X025659Y005680D01*
X025614Y005725D01*
X025749Y005725D02*
X025794Y005680D01*
X025839Y005680D01*
X025884Y005725D01*
X025884Y005815D01*
X025839Y005861D01*
X025839Y005975D02*
X025749Y005975D01*
X025704Y006020D01*
X025704Y006155D01*
X025614Y006155D02*
X025884Y006155D01*
X025884Y006020D01*
X025839Y005975D01*
X026614Y006155D02*
X026884Y006155D01*
X026884Y006020D01*
X026839Y005975D01*
X026749Y005975D01*
X026704Y006020D01*
X026704Y006155D01*
X026749Y005861D02*
X026749Y005680D01*
X026614Y005725D02*
X026884Y005725D01*
X026749Y005861D01*
X027614Y005821D02*
X027659Y005866D01*
X027614Y005821D02*
X027614Y005731D01*
X027659Y005686D01*
X027704Y005686D01*
X027749Y005731D01*
X027749Y005776D01*
X027749Y005731D02*
X027794Y005686D01*
X027839Y005686D01*
X027884Y005731D01*
X027884Y005821D01*
X027839Y005866D01*
X027884Y005980D02*
X027704Y005980D01*
X027614Y006070D01*
X027704Y006161D01*
X027884Y006161D01*
X027839Y006275D02*
X027794Y006275D01*
X027749Y006320D01*
X027704Y006275D01*
X027659Y006275D01*
X027614Y006320D01*
X027614Y006410D01*
X027659Y006455D01*
X027749Y006365D02*
X027749Y006320D01*
X027839Y006275D02*
X027884Y006320D01*
X027884Y006410D01*
X027839Y006455D01*
X028614Y006410D02*
X028614Y006320D01*
X028659Y006275D01*
X028749Y006275D01*
X028749Y006365D01*
X028839Y006275D02*
X028884Y006320D01*
X028884Y006410D01*
X028839Y006455D01*
X028659Y006455D01*
X028614Y006410D01*
X028614Y006161D02*
X028884Y006161D01*
X028614Y005980D01*
X028884Y005980D01*
X028884Y005866D02*
X028614Y005866D01*
X028614Y005731D01*
X028659Y005686D01*
X028839Y005686D01*
X028884Y005731D01*
X028884Y005866D01*
X028373Y007905D02*
X028193Y008175D01*
X028078Y008175D02*
X027898Y008175D01*
X027988Y008175D02*
X027988Y007905D01*
X028193Y007905D02*
X028373Y008175D01*
X028373Y008905D02*
X028193Y009175D01*
X028078Y009130D02*
X028078Y009040D01*
X028033Y008995D01*
X027898Y008995D01*
X027898Y008905D02*
X027898Y009175D01*
X028033Y009175D01*
X028078Y009130D01*
X027988Y008995D02*
X028078Y008905D01*
X028193Y008905D02*
X028373Y009175D01*
X027489Y009130D02*
X027444Y009175D01*
X027354Y009175D01*
X027309Y009130D01*
X027309Y008950D01*
X027354Y008905D01*
X027444Y008905D01*
X027489Y008950D01*
X027194Y008905D02*
X027194Y009085D01*
X027194Y008905D02*
X027059Y008905D01*
X027014Y008950D01*
X027014Y009085D01*
X027354Y008175D02*
X027309Y008130D01*
X027309Y007950D01*
X027354Y007905D01*
X027444Y007905D01*
X027489Y007950D01*
X027489Y008130D02*
X027444Y008175D01*
X027354Y008175D01*
X027194Y008085D02*
X027194Y007905D01*
X027059Y007905D01*
X027014Y007950D01*
X027014Y008085D01*
X026091Y008095D02*
X026091Y008050D01*
X026046Y008005D01*
X025956Y008005D01*
X025911Y008050D01*
X025797Y008095D02*
X025797Y008275D01*
X025911Y008230D02*
X025956Y008275D01*
X026046Y008275D01*
X026091Y008230D01*
X026091Y008185D01*
X026046Y008140D01*
X026091Y008095D01*
X026046Y008140D02*
X026001Y008140D01*
X025797Y008095D02*
X025707Y008005D01*
X025617Y008095D01*
X025617Y008275D01*
X025502Y008230D02*
X025502Y008185D01*
X025457Y008140D01*
X025502Y008095D01*
X025502Y008050D01*
X025457Y008005D01*
X025367Y008005D01*
X025322Y008050D01*
X025412Y008140D02*
X025457Y008140D01*
X025502Y008230D02*
X025457Y008275D01*
X025367Y008275D01*
X025322Y008230D01*
X025091Y008230D02*
X025046Y008275D01*
X024911Y008275D01*
X024911Y008005D01*
X025046Y008005D01*
X025091Y008050D01*
X025091Y008230D01*
X024797Y008275D02*
X024797Y008005D01*
X024617Y008275D01*
X024617Y008005D01*
X024502Y008050D02*
X024502Y008140D01*
X024412Y008140D01*
X024322Y008050D02*
X024367Y008005D01*
X024457Y008005D01*
X024502Y008050D01*
X024322Y008050D02*
X024322Y008230D01*
X024367Y008275D01*
X024457Y008275D01*
X024502Y008230D01*
X024091Y008275D02*
X023911Y008095D01*
X023956Y008140D02*
X024091Y008005D01*
X023911Y008005D02*
X023911Y008275D01*
X023911Y008485D02*
X024046Y008485D01*
X024091Y008530D01*
X024091Y008710D01*
X024046Y008755D01*
X023911Y008755D01*
X023911Y008485D01*
X023797Y008485D02*
X023797Y008755D01*
X023617Y008755D02*
X023617Y008485D01*
X023707Y008575D01*
X023797Y008485D01*
X023617Y008275D02*
X023617Y008005D01*
X023797Y008005D01*
X023502Y008050D02*
X023457Y008005D01*
X023367Y008005D01*
X023322Y008050D01*
X023322Y008230D01*
X023367Y008275D01*
X023457Y008275D01*
X023502Y008230D01*
X023457Y008485D02*
X023367Y008485D01*
X023322Y008530D01*
X023367Y008620D02*
X023457Y008620D01*
X023502Y008575D01*
X023502Y008530D01*
X023457Y008485D01*
X023367Y008620D02*
X023322Y008665D01*
X023322Y008710D01*
X023367Y008755D01*
X023457Y008755D01*
X023502Y008710D01*
X023091Y008710D02*
X023091Y008530D01*
X023046Y008485D01*
X022911Y008485D01*
X022911Y008755D01*
X023046Y008755D01*
X023091Y008710D01*
X022797Y008755D02*
X022797Y008485D01*
X022707Y008575D01*
X022617Y008485D01*
X022617Y008755D01*
X022502Y008710D02*
X022457Y008755D01*
X022367Y008755D01*
X022322Y008710D01*
X022322Y008665D01*
X022367Y008620D01*
X022457Y008620D01*
X022502Y008575D01*
X022502Y008530D01*
X022457Y008485D01*
X022367Y008485D01*
X022322Y008530D01*
X022181Y008375D02*
X021297Y008375D01*
X021322Y008275D02*
X021457Y008275D01*
X021502Y008230D01*
X021502Y008140D01*
X021457Y008095D01*
X021322Y008095D01*
X021322Y008005D02*
X021322Y008275D01*
X021412Y008095D02*
X021502Y008005D01*
X021617Y008050D02*
X021662Y008005D01*
X021752Y008005D01*
X021797Y008050D01*
X021797Y008095D01*
X021752Y008140D01*
X021662Y008140D01*
X021617Y008185D01*
X021617Y008230D01*
X021662Y008275D01*
X021752Y008275D01*
X021797Y008230D01*
X021911Y008275D02*
X022091Y008275D01*
X022001Y008275D02*
X022001Y008005D01*
X022518Y008005D02*
X022609Y008005D01*
X022563Y008005D02*
X022563Y008275D01*
X022518Y008275D02*
X022609Y008275D01*
X022715Y008230D02*
X022715Y008050D01*
X022760Y008005D01*
X022850Y008005D01*
X022895Y008050D01*
X022895Y008230D01*
X022850Y008275D01*
X022760Y008275D01*
X022715Y008230D01*
X024709Y010305D02*
X024664Y010350D01*
X024664Y010530D01*
X024709Y010575D01*
X024799Y010575D01*
X024844Y010530D01*
X024959Y010440D02*
X025139Y010440D01*
X025094Y010305D02*
X025094Y010575D01*
X024959Y010440D01*
X024844Y010350D02*
X024799Y010305D01*
X024709Y010305D01*
X024709Y011805D02*
X024664Y011850D01*
X024664Y012030D01*
X024709Y012075D01*
X024799Y012075D01*
X024844Y012030D01*
X024959Y012030D02*
X025004Y012075D01*
X025094Y012075D01*
X025139Y012030D01*
X025139Y011985D01*
X025094Y011940D01*
X025139Y011895D01*
X025139Y011850D01*
X025094Y011805D01*
X025004Y011805D01*
X024959Y011850D01*
X024844Y011850D02*
X024799Y011805D01*
X024709Y011805D01*
X025049Y011940D02*
X025094Y011940D01*
X025264Y013155D02*
X025264Y013425D01*
X025399Y013425D01*
X025444Y013380D01*
X025444Y013290D01*
X025399Y013245D01*
X025264Y013245D01*
X025354Y013245D02*
X025444Y013155D01*
X025559Y013155D02*
X025739Y013155D01*
X025649Y013155D02*
X025649Y013425D01*
X025559Y013335D01*
X027614Y012130D02*
X027614Y011950D01*
X027659Y011905D01*
X027749Y011905D01*
X027794Y011950D01*
X027794Y012040D01*
X027704Y012040D01*
X027614Y012130D02*
X027659Y012175D01*
X027749Y012175D01*
X027794Y012130D01*
X027909Y012175D02*
X028089Y011905D01*
X028089Y012175D01*
X028203Y012175D02*
X028338Y012175D01*
X028383Y012130D01*
X028383Y011950D01*
X028338Y011905D01*
X028203Y011905D01*
X028203Y012175D01*
X027909Y012175D02*
X027909Y011905D01*
X030064Y012800D02*
X030109Y012755D01*
X030199Y012755D01*
X030244Y012800D01*
X030244Y013025D01*
X030359Y012935D02*
X030449Y013025D01*
X030539Y012935D01*
X030539Y012755D01*
X030653Y012755D02*
X030653Y013025D01*
X030788Y013025D01*
X030833Y012980D01*
X030833Y012890D01*
X030788Y012845D01*
X030653Y012845D01*
X030743Y012845D02*
X030833Y012755D01*
X031038Y012755D02*
X031038Y013025D01*
X030948Y013025D02*
X031128Y013025D01*
X030539Y012890D02*
X030359Y012890D01*
X030359Y012935D02*
X030359Y012755D01*
X030064Y012800D02*
X030064Y013025D01*
X030049Y013605D02*
X030049Y013875D01*
X029959Y013785D01*
X029844Y013830D02*
X029799Y013875D01*
X029709Y013875D01*
X029664Y013830D01*
X029664Y013650D01*
X029709Y013605D01*
X029799Y013605D01*
X029844Y013650D01*
X029959Y013605D02*
X030139Y013605D01*
X030253Y013605D02*
X030433Y013785D01*
X030433Y013830D01*
X030388Y013875D01*
X030298Y013875D01*
X030253Y013830D01*
X030253Y013605D02*
X030433Y013605D01*
X028733Y013555D02*
X028643Y013645D01*
X028688Y013645D02*
X028553Y013645D01*
X028553Y013555D02*
X028553Y013825D01*
X028688Y013825D01*
X028733Y013780D01*
X028733Y013690D01*
X028688Y013645D01*
X028439Y013555D02*
X028439Y013825D01*
X028259Y013825D02*
X028259Y013555D01*
X028349Y013645D01*
X028439Y013555D01*
X028144Y013690D02*
X028099Y013645D01*
X027964Y013645D01*
X027964Y013555D02*
X027964Y013825D01*
X028099Y013825D01*
X028144Y013780D01*
X028144Y013690D01*
X028099Y014255D02*
X028144Y014300D01*
X028099Y014255D02*
X028009Y014255D01*
X027964Y014300D01*
X027964Y014480D01*
X028009Y014525D01*
X028099Y014525D01*
X028144Y014480D01*
X028259Y014525D02*
X028259Y014255D01*
X028259Y014390D02*
X028439Y014390D01*
X028439Y014525D02*
X028439Y014255D01*
X028553Y014300D02*
X028598Y014255D01*
X028688Y014255D01*
X028733Y014300D01*
X028733Y014390D01*
X028643Y014390D01*
X028553Y014480D02*
X028553Y014300D01*
X028553Y014480D02*
X028598Y014525D01*
X028688Y014525D01*
X028733Y014480D01*
X028727Y015068D02*
X028727Y016092D01*
X029751Y016092D01*
X029751Y015068D01*
X028727Y015068D01*
X029367Y015324D02*
X029369Y015346D01*
X029375Y015368D01*
X029384Y015388D01*
X029397Y015406D01*
X029413Y015422D01*
X029431Y015435D01*
X029451Y015444D01*
X029473Y015450D01*
X029495Y015452D01*
X029517Y015450D01*
X029539Y015444D01*
X029559Y015435D01*
X029577Y015422D01*
X029593Y015406D01*
X029606Y015388D01*
X029615Y015368D01*
X029621Y015346D01*
X029623Y015324D01*
X029621Y015302D01*
X029615Y015280D01*
X029606Y015260D01*
X029593Y015242D01*
X029577Y015226D01*
X029559Y015213D01*
X029539Y015204D01*
X029517Y015198D01*
X029495Y015196D01*
X029473Y015198D01*
X029451Y015204D01*
X029431Y015213D01*
X029413Y015226D01*
X029397Y015242D01*
X029384Y015260D01*
X029375Y015280D01*
X029369Y015302D01*
X029367Y015324D01*
X029444Y015705D02*
X029444Y015975D01*
X029309Y015840D01*
X029489Y015840D01*
X029194Y015750D02*
X029194Y015975D01*
X029014Y015975D02*
X029014Y015750D01*
X029059Y015705D01*
X029149Y015705D01*
X029194Y015750D01*
X027539Y016700D02*
X027539Y016880D01*
X027494Y016925D01*
X027404Y016925D01*
X027359Y016880D01*
X027359Y016835D01*
X027404Y016790D01*
X027539Y016790D01*
X027539Y016700D02*
X027494Y016655D01*
X027404Y016655D01*
X027359Y016700D01*
X027244Y016700D02*
X027199Y016655D01*
X027109Y016655D01*
X027064Y016700D01*
X027064Y016880D01*
X027109Y016925D01*
X027199Y016925D01*
X027244Y016880D01*
X029025Y017430D02*
X029070Y017385D01*
X029160Y017385D01*
X029205Y017430D01*
X029319Y017430D02*
X029319Y017385D01*
X029319Y017430D02*
X029499Y017610D01*
X029499Y017655D01*
X029319Y017655D01*
X029205Y017610D02*
X029160Y017655D01*
X029070Y017655D01*
X029025Y017610D01*
X029025Y017430D01*
X029023Y018474D02*
X029023Y019458D01*
X024063Y019458D01*
X024063Y018474D01*
X029023Y018474D01*
X028338Y019805D02*
X028203Y019805D01*
X028203Y020075D01*
X028338Y020075D01*
X028383Y020030D01*
X028383Y019985D01*
X028338Y019940D01*
X028203Y019940D01*
X028089Y019895D02*
X028089Y019850D01*
X028044Y019805D01*
X027954Y019805D01*
X027909Y019850D01*
X027954Y019940D02*
X027909Y019985D01*
X027909Y020030D01*
X027954Y020075D01*
X028044Y020075D01*
X028089Y020030D01*
X028044Y019940D02*
X028089Y019895D01*
X028044Y019940D02*
X027954Y019940D01*
X027794Y019850D02*
X027794Y020075D01*
X027614Y020075D02*
X027614Y019850D01*
X027659Y019805D01*
X027749Y019805D01*
X027794Y019850D01*
X028338Y019805D02*
X028383Y019850D01*
X028383Y019895D01*
X028338Y019940D01*
X026933Y020075D02*
X026753Y020075D01*
X026843Y020075D02*
X026843Y019805D01*
X026639Y019805D02*
X026639Y019985D01*
X026549Y020075D01*
X026459Y019985D01*
X026459Y019805D01*
X026344Y019850D02*
X026299Y019805D01*
X026164Y019805D01*
X026164Y020075D01*
X026299Y020075D01*
X026344Y020030D01*
X026344Y019985D01*
X026299Y019940D01*
X026164Y019940D01*
X026299Y019940D02*
X026344Y019895D01*
X026344Y019850D01*
X026459Y019940D02*
X026639Y019940D01*
X025433Y020075D02*
X025253Y020075D01*
X025253Y019805D01*
X025253Y019940D02*
X025343Y019940D01*
X025139Y020075D02*
X024959Y020075D01*
X024959Y019805D01*
X024844Y019850D02*
X024844Y020030D01*
X024799Y020075D01*
X024709Y020075D01*
X024664Y020030D01*
X024664Y019850D01*
X024709Y019805D01*
X024799Y019805D01*
X024844Y019850D01*
X024959Y019940D02*
X025049Y019940D01*
X022239Y019705D02*
X022059Y019705D01*
X022059Y019975D01*
X021944Y019930D02*
X021899Y019975D01*
X021764Y019975D01*
X021764Y019705D01*
X021899Y019705D01*
X021944Y019750D01*
X021944Y019795D01*
X021899Y019840D01*
X021764Y019840D01*
X021899Y019840D02*
X021944Y019885D01*
X021944Y019930D01*
X020005Y020072D02*
X020005Y020347D01*
X020005Y018851D02*
X020005Y017906D01*
X019729Y016981D02*
X019335Y016981D01*
X019491Y016681D02*
X019491Y016410D01*
X019581Y016410D02*
X019400Y016410D01*
X019400Y016591D02*
X019491Y016681D01*
X021014Y016750D02*
X021059Y016705D01*
X021149Y016705D01*
X021194Y016750D01*
X021309Y016705D02*
X021489Y016705D01*
X021399Y016705D02*
X021399Y016975D01*
X021309Y016885D01*
X021194Y016930D02*
X021149Y016975D01*
X021059Y016975D01*
X021014Y016930D01*
X021014Y016750D01*
X022614Y016750D02*
X022659Y016705D01*
X022749Y016705D01*
X022794Y016750D01*
X022909Y016705D02*
X023089Y016885D01*
X023089Y016930D01*
X023044Y016975D01*
X022954Y016975D01*
X022909Y016930D01*
X022794Y016930D02*
X022749Y016975D01*
X022659Y016975D01*
X022614Y016930D01*
X022614Y016750D01*
X022909Y016705D02*
X023089Y016705D01*
X023664Y017555D02*
X023664Y017825D01*
X023799Y017825D01*
X023844Y017780D01*
X023844Y017690D01*
X023799Y017645D01*
X023664Y017645D01*
X023754Y017645D02*
X023844Y017555D01*
X023959Y017555D02*
X023959Y017600D01*
X024139Y017780D01*
X024139Y017825D01*
X023959Y017825D01*
X019609Y015655D02*
X019609Y015385D01*
X019519Y015385D02*
X019699Y015385D01*
X019519Y015565D02*
X019609Y015655D01*
X019405Y015610D02*
X019405Y015430D01*
X019360Y015385D01*
X019270Y015385D01*
X019225Y015430D01*
X019225Y015610D01*
X019270Y015655D01*
X019360Y015655D01*
X019405Y015610D01*
X019315Y015475D02*
X019405Y015385D01*
X017133Y016450D02*
X017088Y016405D01*
X016953Y016405D01*
X016953Y016675D01*
X017088Y016675D01*
X017133Y016630D01*
X017133Y016585D01*
X017088Y016540D01*
X016953Y016540D01*
X016839Y016495D02*
X016839Y016450D01*
X016794Y016405D01*
X016704Y016405D01*
X016659Y016450D01*
X016704Y016540D02*
X016659Y016585D01*
X016659Y016630D01*
X016704Y016675D01*
X016794Y016675D01*
X016839Y016630D01*
X016794Y016540D02*
X016839Y016495D01*
X016794Y016540D02*
X016704Y016540D01*
X016544Y016450D02*
X016544Y016675D01*
X016364Y016675D02*
X016364Y016450D01*
X016409Y016405D01*
X016499Y016405D01*
X016544Y016450D01*
X017088Y016540D02*
X017133Y016495D01*
X017133Y016450D01*
X017249Y016981D02*
X017643Y016981D01*
X016973Y017906D02*
X016973Y018851D01*
X015664Y018890D02*
X015394Y018890D01*
X015484Y018800D01*
X015529Y018685D02*
X015574Y018640D01*
X015574Y018505D01*
X015664Y018505D02*
X015394Y018505D01*
X015394Y018640D01*
X015439Y018685D01*
X015529Y018685D01*
X015574Y018595D02*
X015664Y018685D01*
X015664Y018800D02*
X015664Y018980D01*
X015619Y019094D02*
X015574Y019094D01*
X015529Y019140D01*
X015529Y019230D01*
X015574Y019275D01*
X015619Y019275D01*
X015664Y019230D01*
X015664Y019140D01*
X015619Y019094D01*
X015529Y019140D02*
X015484Y019094D01*
X015439Y019094D01*
X015394Y019140D01*
X015394Y019230D01*
X015439Y019275D01*
X015484Y019275D01*
X015529Y019230D01*
X016973Y020072D02*
X016973Y020347D01*
X015664Y017675D02*
X015664Y017494D01*
X015664Y017585D02*
X015394Y017585D01*
X015484Y017494D01*
X015664Y017380D02*
X015664Y017200D01*
X015664Y017290D02*
X015394Y017290D01*
X015484Y017200D01*
X015529Y017085D02*
X015574Y017040D01*
X015574Y016905D01*
X015664Y016905D02*
X015394Y016905D01*
X015394Y017040D01*
X015439Y017085D01*
X015529Y017085D01*
X015574Y016995D02*
X015664Y017085D01*
X015529Y016075D02*
X015529Y015894D01*
X015394Y016030D01*
X015664Y016030D01*
X015664Y015780D02*
X015664Y015600D01*
X015664Y015690D02*
X015394Y015690D01*
X015484Y015600D01*
X015439Y015485D02*
X015394Y015440D01*
X015394Y015350D01*
X015439Y015305D01*
X015619Y015305D01*
X015664Y015350D01*
X015664Y015440D01*
X015619Y015485D01*
X015964Y015275D02*
X016099Y015275D01*
X016144Y015230D01*
X016144Y015140D01*
X016099Y015095D01*
X015964Y015095D01*
X015964Y015005D02*
X015964Y015275D01*
X016054Y015095D02*
X016144Y015005D01*
X016259Y015005D02*
X016439Y015005D01*
X016349Y015005D02*
X016349Y015275D01*
X016259Y015185D01*
X016553Y015140D02*
X016643Y015230D01*
X016733Y015275D01*
X016688Y015140D02*
X016553Y015140D01*
X016553Y015050D01*
X016598Y015005D01*
X016688Y015005D01*
X016733Y015050D01*
X016733Y015095D01*
X016688Y015140D01*
X017054Y013275D02*
X017054Y013050D01*
X017099Y013005D01*
X017189Y013005D01*
X017234Y013050D01*
X017234Y013275D01*
X017349Y013230D02*
X017394Y013275D01*
X017484Y013275D01*
X017529Y013230D01*
X017529Y013185D01*
X017349Y013005D01*
X017529Y013005D01*
X017079Y012250D02*
X017079Y011600D01*
X017079Y011360D01*
X017079Y010870D01*
X017079Y010710D02*
X018999Y010710D01*
X018999Y012250D01*
X017079Y012250D01*
X017079Y012090D02*
X017079Y011600D01*
X017100Y011598D01*
X017120Y011593D01*
X017139Y011584D01*
X017156Y011572D01*
X017171Y011557D01*
X017183Y011540D01*
X017192Y011521D01*
X017197Y011501D01*
X017199Y011480D01*
X017197Y011459D01*
X017192Y011439D01*
X017183Y011420D01*
X017171Y011403D01*
X017156Y011388D01*
X017139Y011376D01*
X017120Y011367D01*
X017100Y011362D01*
X017079Y011360D01*
X017079Y010710D01*
X017189Y010980D02*
X017191Y011000D01*
X017197Y011018D01*
X017206Y011036D01*
X017218Y011051D01*
X017233Y011063D01*
X017251Y011072D01*
X017269Y011078D01*
X017289Y011080D01*
X017309Y011078D01*
X017327Y011072D01*
X017345Y011063D01*
X017360Y011051D01*
X017372Y011036D01*
X017381Y011018D01*
X017387Y011000D01*
X017389Y010980D01*
X017387Y010960D01*
X017381Y010942D01*
X017372Y010924D01*
X017360Y010909D01*
X017345Y010897D01*
X017327Y010888D01*
X017309Y010882D01*
X017289Y010880D01*
X017269Y010882D01*
X017251Y010888D01*
X017233Y010897D01*
X017218Y010909D01*
X017206Y010924D01*
X017197Y010942D01*
X017191Y010960D01*
X017189Y010980D01*
X016589Y010675D02*
X016499Y010630D01*
X016409Y010540D01*
X016544Y010540D01*
X016589Y010495D01*
X016589Y010450D01*
X016544Y010405D01*
X016454Y010405D01*
X016409Y010450D01*
X016409Y010540D01*
X016294Y010450D02*
X016249Y010405D01*
X016159Y010405D01*
X016114Y010450D01*
X016114Y010630D01*
X016159Y010675D01*
X016249Y010675D01*
X016294Y010630D01*
X015744Y009875D02*
X015654Y009875D01*
X015609Y009830D01*
X015609Y009785D01*
X015654Y009740D01*
X015789Y009740D01*
X015789Y009650D02*
X015789Y009830D01*
X015744Y009875D01*
X015789Y009650D02*
X015744Y009605D01*
X015654Y009605D01*
X015609Y009650D01*
X015494Y009605D02*
X015404Y009695D01*
X015449Y009695D02*
X015314Y009695D01*
X015314Y009605D02*
X015314Y009875D01*
X015449Y009875D01*
X015494Y009830D01*
X015494Y009740D01*
X015449Y009695D01*
X014098Y010180D02*
X014100Y010203D01*
X014106Y010226D01*
X014115Y010247D01*
X014128Y010267D01*
X014144Y010284D01*
X014162Y010298D01*
X014182Y010309D01*
X014204Y010317D01*
X014227Y010321D01*
X014251Y010321D01*
X014274Y010317D01*
X014296Y010309D01*
X014316Y010298D01*
X014334Y010284D01*
X014350Y010267D01*
X014363Y010247D01*
X014372Y010226D01*
X014378Y010203D01*
X014380Y010180D01*
X014378Y010157D01*
X014372Y010134D01*
X014363Y010113D01*
X014350Y010093D01*
X014334Y010076D01*
X014316Y010062D01*
X014296Y010051D01*
X014274Y010043D01*
X014251Y010039D01*
X014227Y010039D01*
X014204Y010043D01*
X014182Y010051D01*
X014162Y010062D01*
X014144Y010076D01*
X014128Y010093D01*
X014115Y010113D01*
X014106Y010134D01*
X014100Y010157D01*
X014098Y010180D01*
X014198Y008775D02*
X014153Y008730D01*
X014153Y008685D01*
X014198Y008640D01*
X014333Y008640D01*
X014333Y008550D02*
X014333Y008730D01*
X014288Y008775D01*
X014198Y008775D01*
X014153Y008550D02*
X014198Y008505D01*
X014288Y008505D01*
X014333Y008550D01*
X014039Y008505D02*
X013859Y008505D01*
X013949Y008505D02*
X013949Y008775D01*
X013859Y008685D01*
X013744Y008640D02*
X013699Y008595D01*
X013564Y008595D01*
X013564Y008505D02*
X013564Y008775D01*
X013699Y008775D01*
X013744Y008730D01*
X013744Y008640D01*
X013654Y008595D02*
X013744Y008505D01*
X012389Y008550D02*
X012344Y008505D01*
X012254Y008505D01*
X012209Y008550D01*
X012209Y008640D02*
X012299Y008685D01*
X012344Y008685D01*
X012389Y008640D01*
X012389Y008550D01*
X012209Y008640D02*
X012209Y008775D01*
X012389Y008775D01*
X012094Y008730D02*
X012049Y008775D01*
X011959Y008775D01*
X011914Y008730D01*
X011914Y008550D01*
X011959Y008505D01*
X012049Y008505D01*
X012094Y008550D01*
X009489Y010150D02*
X009444Y010105D01*
X009354Y010105D01*
X009309Y010150D01*
X009309Y010240D02*
X009399Y010285D01*
X009444Y010285D01*
X009489Y010240D01*
X009489Y010150D01*
X009309Y010240D02*
X009309Y010375D01*
X009489Y010375D01*
X009194Y010330D02*
X009194Y010240D01*
X009149Y010195D01*
X009014Y010195D01*
X009014Y010105D02*
X009014Y010375D01*
X009149Y010375D01*
X009194Y010330D01*
X009104Y010195D02*
X009194Y010105D01*
X008489Y010240D02*
X008309Y010240D01*
X008444Y010375D01*
X008444Y010105D01*
X008194Y010105D02*
X008104Y010195D01*
X008149Y010195D02*
X008014Y010195D01*
X008014Y010105D02*
X008014Y010375D01*
X008149Y010375D01*
X008194Y010330D01*
X008194Y010240D01*
X008149Y010195D01*
X007489Y010195D02*
X007489Y010150D01*
X007444Y010105D01*
X007354Y010105D01*
X007309Y010150D01*
X007194Y010105D02*
X007104Y010195D01*
X007149Y010195D02*
X007014Y010195D01*
X007014Y010105D02*
X007014Y010375D01*
X007149Y010375D01*
X007194Y010330D01*
X007194Y010240D01*
X007149Y010195D01*
X007309Y010330D02*
X007354Y010375D01*
X007444Y010375D01*
X007489Y010330D01*
X007489Y010285D01*
X007444Y010240D01*
X007489Y010195D01*
X007444Y010240D02*
X007399Y010240D01*
X007464Y010805D02*
X007464Y011075D01*
X007599Y011075D01*
X007644Y011030D01*
X007644Y010940D01*
X007599Y010895D01*
X007464Y010895D01*
X007554Y010895D02*
X007644Y010805D01*
X007759Y010805D02*
X007939Y010805D01*
X007849Y010805D02*
X007849Y011075D01*
X007759Y010985D01*
X008053Y011030D02*
X008098Y011075D01*
X008188Y011075D01*
X008233Y011030D01*
X008233Y010985D01*
X008188Y010940D01*
X008233Y010895D01*
X008233Y010850D01*
X008188Y010805D01*
X008098Y010805D01*
X008053Y010850D01*
X008143Y010940D02*
X008188Y010940D01*
X009064Y010895D02*
X009199Y010895D01*
X009244Y010940D01*
X009244Y011030D01*
X009199Y011075D01*
X009064Y011075D01*
X009064Y010805D01*
X009154Y010895D02*
X009244Y010805D01*
X009359Y010805D02*
X009539Y010805D01*
X009449Y010805D02*
X009449Y011075D01*
X009359Y010985D01*
X009653Y010940D02*
X009743Y010985D01*
X009788Y010985D01*
X009833Y010940D01*
X009833Y010850D01*
X009788Y010805D01*
X009698Y010805D01*
X009653Y010850D01*
X009653Y010940D02*
X009653Y011075D01*
X009833Y011075D01*
X008820Y012179D02*
X008820Y014542D01*
X006458Y014542D01*
X006458Y012179D01*
X008820Y012179D01*
X007046Y013360D02*
X007048Y013408D01*
X007054Y013456D01*
X007064Y013504D01*
X007077Y013550D01*
X007095Y013595D01*
X007116Y013639D01*
X007140Y013681D01*
X007168Y013720D01*
X007199Y013757D01*
X007233Y013792D01*
X007269Y013824D01*
X007308Y013852D01*
X007350Y013878D01*
X007393Y013899D01*
X007437Y013918D01*
X007484Y013932D01*
X007531Y013943D01*
X007579Y013950D01*
X007627Y013953D01*
X007675Y013952D01*
X007723Y013947D01*
X007771Y013938D01*
X007818Y013925D01*
X007863Y013909D01*
X007907Y013889D01*
X007949Y013865D01*
X007990Y013838D01*
X008027Y013808D01*
X008063Y013775D01*
X008095Y013739D01*
X008124Y013701D01*
X008151Y013660D01*
X008173Y013617D01*
X008192Y013573D01*
X008208Y013527D01*
X008220Y013480D01*
X008228Y013432D01*
X008232Y013384D01*
X008232Y013336D01*
X008228Y013288D01*
X008220Y013240D01*
X008208Y013193D01*
X008192Y013147D01*
X008173Y013103D01*
X008151Y013060D01*
X008124Y013019D01*
X008095Y012981D01*
X008063Y012945D01*
X008027Y012912D01*
X007990Y012882D01*
X007949Y012855D01*
X007907Y012831D01*
X007863Y012811D01*
X007818Y012795D01*
X007771Y012782D01*
X007723Y012773D01*
X007675Y012768D01*
X007627Y012767D01*
X007579Y012770D01*
X007531Y012777D01*
X007484Y012788D01*
X007437Y012802D01*
X007393Y012821D01*
X007350Y012842D01*
X007308Y012868D01*
X007269Y012896D01*
X007233Y012928D01*
X007199Y012963D01*
X007168Y013000D01*
X007140Y013039D01*
X007116Y013081D01*
X007095Y013125D01*
X007077Y013170D01*
X007064Y013216D01*
X007054Y013264D01*
X007048Y013312D01*
X007046Y013360D01*
X006950Y013360D02*
X006952Y013412D01*
X006958Y013464D01*
X006968Y013515D01*
X006981Y013565D01*
X006999Y013615D01*
X007020Y013662D01*
X007044Y013708D01*
X007073Y013752D01*
X007104Y013794D01*
X007138Y013833D01*
X007175Y013870D01*
X007215Y013903D01*
X007258Y013934D01*
X007302Y013961D01*
X007348Y013985D01*
X007397Y014005D01*
X007446Y014021D01*
X007497Y014034D01*
X007548Y014043D01*
X007600Y014048D01*
X007652Y014049D01*
X007704Y014046D01*
X007756Y014039D01*
X007807Y014028D01*
X007857Y014014D01*
X007906Y013995D01*
X007953Y013973D01*
X007998Y013948D01*
X008042Y013919D01*
X008083Y013887D01*
X008122Y013852D01*
X008157Y013814D01*
X008190Y013773D01*
X008220Y013731D01*
X008246Y013686D01*
X008269Y013639D01*
X008288Y013590D01*
X008304Y013540D01*
X008316Y013490D01*
X008324Y013438D01*
X008328Y013386D01*
X008328Y013334D01*
X008324Y013282D01*
X008316Y013230D01*
X008304Y013180D01*
X008288Y013130D01*
X008269Y013081D01*
X008246Y013034D01*
X008220Y012989D01*
X008190Y012947D01*
X008157Y012906D01*
X008122Y012868D01*
X008083Y012833D01*
X008042Y012801D01*
X007998Y012772D01*
X007953Y012747D01*
X007906Y012725D01*
X007857Y012706D01*
X007807Y012692D01*
X007756Y012681D01*
X007704Y012674D01*
X007652Y012671D01*
X007600Y012672D01*
X007548Y012677D01*
X007497Y012686D01*
X007446Y012699D01*
X007397Y012715D01*
X007348Y012735D01*
X007302Y012759D01*
X007258Y012786D01*
X007215Y012817D01*
X007175Y012850D01*
X007138Y012887D01*
X007104Y012926D01*
X007073Y012968D01*
X007044Y013012D01*
X007020Y013058D01*
X006999Y013105D01*
X006981Y013155D01*
X006968Y013205D01*
X006958Y013256D01*
X006952Y013308D01*
X006950Y013360D01*
X006149Y013235D02*
X005969Y013235D01*
X006059Y013235D02*
X006059Y013505D01*
X005969Y013415D01*
X005855Y013415D02*
X005810Y013370D01*
X005675Y013370D01*
X005810Y013370D02*
X005855Y013325D01*
X005855Y013280D01*
X005810Y013235D01*
X005675Y013235D01*
X005675Y013505D01*
X005810Y013505D01*
X005855Y013460D01*
X005855Y013415D01*
X006458Y014769D02*
X006458Y017131D01*
X008820Y017131D01*
X008820Y014769D01*
X006458Y014769D01*
X006104Y015785D02*
X006014Y015785D01*
X005969Y015830D01*
X006149Y016010D01*
X006149Y015830D01*
X006104Y015785D01*
X005969Y015830D02*
X005969Y016010D01*
X006014Y016055D01*
X006104Y016055D01*
X006149Y016010D01*
X005855Y016010D02*
X005855Y015965D01*
X005810Y015920D01*
X005675Y015920D01*
X005810Y015920D02*
X005855Y015875D01*
X005855Y015830D01*
X005810Y015785D01*
X005675Y015785D01*
X005675Y016055D01*
X005810Y016055D01*
X005855Y016010D01*
X007046Y015950D02*
X007048Y015998D01*
X007054Y016046D01*
X007064Y016094D01*
X007077Y016140D01*
X007095Y016185D01*
X007116Y016229D01*
X007140Y016271D01*
X007168Y016310D01*
X007199Y016347D01*
X007233Y016382D01*
X007269Y016414D01*
X007308Y016442D01*
X007350Y016468D01*
X007393Y016489D01*
X007437Y016508D01*
X007484Y016522D01*
X007531Y016533D01*
X007579Y016540D01*
X007627Y016543D01*
X007675Y016542D01*
X007723Y016537D01*
X007771Y016528D01*
X007818Y016515D01*
X007863Y016499D01*
X007907Y016479D01*
X007949Y016455D01*
X007990Y016428D01*
X008027Y016398D01*
X008063Y016365D01*
X008095Y016329D01*
X008124Y016291D01*
X008151Y016250D01*
X008173Y016207D01*
X008192Y016163D01*
X008208Y016117D01*
X008220Y016070D01*
X008228Y016022D01*
X008232Y015974D01*
X008232Y015926D01*
X008228Y015878D01*
X008220Y015830D01*
X008208Y015783D01*
X008192Y015737D01*
X008173Y015693D01*
X008151Y015650D01*
X008124Y015609D01*
X008095Y015571D01*
X008063Y015535D01*
X008027Y015502D01*
X007990Y015472D01*
X007949Y015445D01*
X007907Y015421D01*
X007863Y015401D01*
X007818Y015385D01*
X007771Y015372D01*
X007723Y015363D01*
X007675Y015358D01*
X007627Y015357D01*
X007579Y015360D01*
X007531Y015367D01*
X007484Y015378D01*
X007437Y015392D01*
X007393Y015411D01*
X007350Y015432D01*
X007308Y015458D01*
X007269Y015486D01*
X007233Y015518D01*
X007199Y015553D01*
X007168Y015590D01*
X007140Y015629D01*
X007116Y015671D01*
X007095Y015715D01*
X007077Y015760D01*
X007064Y015806D01*
X007054Y015854D01*
X007048Y015902D01*
X007046Y015950D01*
X006950Y015950D02*
X006952Y016002D01*
X006958Y016054D01*
X006968Y016105D01*
X006981Y016155D01*
X006999Y016205D01*
X007020Y016252D01*
X007044Y016298D01*
X007073Y016342D01*
X007104Y016384D01*
X007138Y016423D01*
X007175Y016460D01*
X007215Y016493D01*
X007258Y016524D01*
X007302Y016551D01*
X007348Y016575D01*
X007397Y016595D01*
X007446Y016611D01*
X007497Y016624D01*
X007548Y016633D01*
X007600Y016638D01*
X007652Y016639D01*
X007704Y016636D01*
X007756Y016629D01*
X007807Y016618D01*
X007857Y016604D01*
X007906Y016585D01*
X007953Y016563D01*
X007998Y016538D01*
X008042Y016509D01*
X008083Y016477D01*
X008122Y016442D01*
X008157Y016404D01*
X008190Y016363D01*
X008220Y016321D01*
X008246Y016276D01*
X008269Y016229D01*
X008288Y016180D01*
X008304Y016130D01*
X008316Y016080D01*
X008324Y016028D01*
X008328Y015976D01*
X008328Y015924D01*
X008324Y015872D01*
X008316Y015820D01*
X008304Y015770D01*
X008288Y015720D01*
X008269Y015671D01*
X008246Y015624D01*
X008220Y015579D01*
X008190Y015537D01*
X008157Y015496D01*
X008122Y015458D01*
X008083Y015423D01*
X008042Y015391D01*
X007998Y015362D01*
X007953Y015337D01*
X007906Y015315D01*
X007857Y015296D01*
X007807Y015282D01*
X007756Y015271D01*
X007704Y015264D01*
X007652Y015261D01*
X007600Y015262D01*
X007548Y015267D01*
X007497Y015276D01*
X007446Y015289D01*
X007397Y015305D01*
X007348Y015325D01*
X007302Y015349D01*
X007258Y015376D01*
X007215Y015407D01*
X007175Y015440D01*
X007138Y015477D01*
X007104Y015516D01*
X007073Y015558D01*
X007044Y015602D01*
X007020Y015648D01*
X006999Y015695D01*
X006981Y015745D01*
X006968Y015795D01*
X006958Y015846D01*
X006952Y015898D01*
X006950Y015950D01*
X007764Y017505D02*
X007764Y017775D01*
X007899Y017775D01*
X007944Y017730D01*
X007944Y017640D01*
X007899Y017595D01*
X007764Y017595D01*
X007854Y017595D02*
X007944Y017505D01*
X008059Y017505D02*
X008239Y017505D01*
X008149Y017505D02*
X008149Y017775D01*
X008059Y017685D01*
X008353Y017640D02*
X008488Y017775D01*
X008488Y017505D01*
X008533Y017640D02*
X008353Y017640D01*
X008398Y018305D02*
X008353Y018350D01*
X008533Y018530D01*
X008533Y018350D01*
X008488Y018305D01*
X008398Y018305D01*
X008353Y018350D02*
X008353Y018530D01*
X008398Y018575D01*
X008488Y018575D01*
X008533Y018530D01*
X008239Y018305D02*
X008059Y018305D01*
X008149Y018305D02*
X008149Y018575D01*
X008059Y018485D01*
X007944Y018530D02*
X007899Y018575D01*
X007809Y018575D01*
X007764Y018530D01*
X007764Y018350D01*
X007809Y018305D01*
X007899Y018305D01*
X007944Y018350D01*
X007944Y019105D02*
X007854Y019195D01*
X007899Y019195D02*
X007764Y019195D01*
X007764Y019105D02*
X007764Y019375D01*
X007899Y019375D01*
X007944Y019330D01*
X007944Y019240D01*
X007899Y019195D01*
X008059Y019105D02*
X008239Y019105D01*
X008149Y019105D02*
X008149Y019375D01*
X008059Y019285D01*
X008353Y019330D02*
X008398Y019375D01*
X008488Y019375D01*
X008533Y019330D01*
X008533Y019285D01*
X008353Y019105D01*
X008533Y019105D01*
X010444Y019094D02*
X010444Y019275D01*
X010489Y019275D01*
X010669Y019094D01*
X010714Y019094D01*
X010714Y018980D02*
X010714Y018800D01*
X010714Y018890D02*
X010444Y018890D01*
X010534Y018800D01*
X010579Y018685D02*
X010624Y018640D01*
X010624Y018505D01*
X010714Y018505D02*
X010444Y018505D01*
X010444Y018640D01*
X010489Y018685D01*
X010579Y018685D01*
X010624Y018595D02*
X010714Y018685D01*
X010669Y016075D02*
X010714Y016030D01*
X010714Y015940D01*
X010669Y015894D01*
X010714Y015780D02*
X010714Y015600D01*
X010714Y015690D02*
X010444Y015690D01*
X010534Y015600D01*
X010489Y015485D02*
X010444Y015440D01*
X010444Y015350D01*
X010489Y015305D01*
X010669Y015305D01*
X010714Y015350D01*
X010714Y015440D01*
X010669Y015485D01*
X010489Y015894D02*
X010444Y015940D01*
X010444Y016030D01*
X010489Y016075D01*
X010534Y016075D01*
X010579Y016030D01*
X010624Y016075D01*
X010669Y016075D01*
X010579Y016030D02*
X010579Y015985D01*
X011614Y014910D02*
X011614Y014685D01*
X011659Y014640D01*
X011749Y014640D01*
X011794Y014685D01*
X011794Y014910D01*
X011909Y014865D02*
X011954Y014910D01*
X012044Y014910D01*
X012089Y014865D01*
X012089Y014820D01*
X012044Y014775D01*
X012089Y014730D01*
X012089Y014685D01*
X012044Y014640D01*
X011954Y014640D01*
X011909Y014685D01*
X011999Y014775D02*
X012044Y014775D01*
X006543Y011075D02*
X006453Y010985D01*
X006543Y011075D02*
X006543Y010805D01*
X006453Y010805D02*
X006633Y010805D01*
X006339Y010805D02*
X006159Y010805D01*
X006249Y010805D02*
X006249Y011075D01*
X006159Y010985D01*
X006044Y011030D02*
X005999Y011075D01*
X005909Y011075D01*
X005864Y011030D01*
X005864Y010850D01*
X005909Y010805D01*
X005999Y010805D01*
X006044Y010850D01*
X006014Y010375D02*
X006149Y010375D01*
X006194Y010330D01*
X006194Y010240D01*
X006149Y010195D01*
X006014Y010195D01*
X006014Y010105D02*
X006014Y010375D01*
X006104Y010195D02*
X006194Y010105D01*
X006309Y010105D02*
X006489Y010285D01*
X006489Y010330D01*
X006444Y010375D01*
X006354Y010375D01*
X006309Y010330D01*
X006309Y010105D02*
X006489Y010105D01*
X006254Y006775D02*
X006164Y006685D01*
X006254Y006775D02*
X006254Y006505D01*
X006164Y006505D02*
X006344Y006505D01*
X007164Y006505D02*
X007344Y006685D01*
X007344Y006730D01*
X007299Y006775D01*
X007209Y006775D01*
X007164Y006730D01*
X007164Y006505D02*
X007344Y006505D01*
X008164Y006550D02*
X008209Y006505D01*
X008299Y006505D01*
X008344Y006550D01*
X008344Y006595D01*
X008299Y006640D01*
X008254Y006640D01*
X008299Y006640D02*
X008344Y006685D01*
X008344Y006730D01*
X008299Y006775D01*
X008209Y006775D01*
X008164Y006730D01*
X009164Y006640D02*
X009344Y006640D01*
X009299Y006505D02*
X009299Y006775D01*
X009164Y006640D01*
X008223Y005475D02*
X008313Y005385D01*
X008313Y005205D01*
X008313Y005340D02*
X008133Y005340D01*
X008133Y005385D02*
X008223Y005475D01*
X008133Y005385D02*
X008133Y005205D01*
X015314Y007705D02*
X015314Y007975D01*
X015449Y007975D01*
X015494Y007930D01*
X015494Y007840D01*
X015449Y007795D01*
X015314Y007795D01*
X015404Y007795D02*
X015494Y007705D01*
X015609Y007750D02*
X015609Y007795D01*
X015654Y007840D01*
X015744Y007840D01*
X015789Y007795D01*
X015789Y007750D01*
X015744Y007705D01*
X015654Y007705D01*
X015609Y007750D01*
X015654Y007840D02*
X015609Y007885D01*
X015609Y007930D01*
X015654Y007975D01*
X015744Y007975D01*
X015789Y007930D01*
X015789Y007885D01*
X015744Y007840D01*
X015704Y005866D02*
X015884Y005686D01*
X015749Y005821D02*
X015614Y005686D01*
X018999Y010870D02*
X018999Y012090D01*
X019809Y013005D02*
X019899Y013005D01*
X019944Y013050D01*
X019944Y013275D01*
X020059Y013185D02*
X020149Y013275D01*
X020149Y013005D01*
X020059Y013005D02*
X020239Y013005D01*
X019809Y013005D02*
X019764Y013050D01*
X019764Y013275D01*
X030964Y016900D02*
X031009Y016855D01*
X031099Y016855D01*
X031144Y016900D01*
X031259Y016900D02*
X031259Y016945D01*
X031304Y016990D01*
X031394Y016990D01*
X031439Y016945D01*
X031439Y016900D01*
X031394Y016855D01*
X031304Y016855D01*
X031259Y016900D01*
X031304Y016990D02*
X031259Y017035D01*
X031259Y017080D01*
X031304Y017125D01*
X031394Y017125D01*
X031439Y017080D01*
X031439Y017035D01*
X031394Y016990D01*
X031144Y017080D02*
X031099Y017125D01*
X031009Y017125D01*
X030964Y017080D01*
X030964Y016900D01*
D11*
X010239Y005680D02*
X010239Y004980D01*
X007939Y004980D01*
X007939Y005680D01*
X010239Y005680D01*
D12*
X011239Y005030D02*
X011489Y005280D01*
X011989Y005280D01*
X012239Y005030D01*
X012489Y005280D01*
X012989Y005280D01*
X013239Y005030D01*
X013489Y005280D01*
X013989Y005280D01*
X014239Y005030D01*
X014489Y005280D01*
X014989Y005280D01*
X015239Y005030D01*
X015489Y005280D01*
X015989Y005280D01*
X016239Y005030D01*
X016489Y005280D01*
X016989Y005280D01*
X017239Y005030D01*
X017489Y005280D01*
X017989Y005280D01*
X018239Y005030D01*
X018239Y004530D01*
X017989Y004280D01*
X017489Y004280D01*
X017239Y004530D01*
X016989Y004280D01*
X016489Y004280D01*
X016239Y004530D01*
X016239Y005030D01*
X016239Y004530D01*
X015989Y004280D01*
X015489Y004280D01*
X015239Y004530D01*
X014989Y004280D01*
X014489Y004280D01*
X014239Y004530D01*
X013989Y004280D01*
X013489Y004280D01*
X013239Y004530D01*
X013239Y005030D01*
X013239Y004530D01*
X012989Y004280D01*
X012489Y004280D01*
X012239Y004530D01*
X011989Y004280D01*
X011489Y004280D01*
X011239Y004530D01*
X011239Y005030D01*
X012239Y005030D02*
X012239Y004530D01*
X014239Y004530D02*
X014239Y005030D01*
X015239Y005030D02*
X015239Y004530D01*
X017239Y004530D02*
X017239Y005030D01*
X018239Y005030D02*
X018489Y005280D01*
X018989Y005280D01*
X019239Y005030D01*
X019489Y005280D01*
X019989Y005280D01*
X020239Y005030D01*
X020489Y005280D01*
X020989Y005280D01*
X021239Y005030D01*
X021489Y005280D01*
X021989Y005280D01*
X022239Y005030D01*
X022489Y005280D01*
X022989Y005280D01*
X023239Y005030D01*
X023489Y005280D01*
X023989Y005280D01*
X024239Y005030D01*
X024239Y004530D01*
X023989Y004280D01*
X023489Y004280D01*
X023239Y004530D01*
X022989Y004280D01*
X022489Y004280D01*
X022239Y004530D01*
X022239Y005030D01*
X022239Y004530D01*
X021989Y004280D01*
X021489Y004280D01*
X021239Y004530D01*
X020989Y004280D01*
X020489Y004280D01*
X020239Y004530D01*
X019989Y004280D01*
X019489Y004280D01*
X019239Y004530D01*
X018989Y004280D01*
X018489Y004280D01*
X018239Y004530D01*
X019239Y004530D02*
X019239Y005030D01*
X020239Y005030D02*
X020239Y004530D01*
X021239Y004530D02*
X021239Y005030D01*
X023239Y005030D02*
X023239Y004530D01*
X024239Y004530D02*
X024489Y004280D01*
X024989Y004280D01*
X025239Y004530D01*
X025489Y004280D01*
X025989Y004280D01*
X026239Y004530D01*
X026489Y004280D01*
X026989Y004280D01*
X027239Y004530D01*
X027489Y004280D01*
X027989Y004280D01*
X028239Y004530D01*
X028489Y004280D01*
X028989Y004280D01*
X029239Y004530D01*
X029239Y005030D01*
X028989Y005280D01*
X028489Y005280D01*
X028239Y005030D01*
X028239Y004530D01*
X027239Y004530D02*
X027239Y005030D01*
X027489Y005280D01*
X027989Y005280D01*
X028239Y005030D01*
X027239Y005030D02*
X027239Y004530D01*
X027239Y005030D02*
X026989Y005280D01*
X026489Y005280D01*
X026239Y005030D01*
X026239Y004530D01*
X026239Y005030D02*
X025989Y005280D01*
X025489Y005280D01*
X025239Y005030D01*
X025239Y004530D01*
X025239Y005030D02*
X024989Y005280D01*
X024489Y005280D01*
X024239Y005030D01*
X024489Y006780D02*
X024989Y006780D01*
X025239Y007030D01*
X025239Y007530D01*
X024989Y007780D01*
X024489Y007780D01*
X024239Y007530D01*
X024239Y007030D01*
X024489Y006780D01*
X024239Y007030D02*
X023989Y006780D01*
X023489Y006780D01*
X023239Y007030D01*
X023239Y007530D01*
X023489Y007780D01*
X023989Y007780D01*
X024239Y007530D01*
X024239Y007030D01*
X023239Y007030D02*
X022989Y006780D01*
X022489Y006780D01*
X022239Y007030D01*
X021989Y006780D01*
X021489Y006780D01*
X021239Y007030D01*
X021239Y007530D01*
X021489Y007780D01*
X021989Y007780D01*
X022239Y007530D01*
X022239Y007030D01*
X022239Y007530D01*
X022489Y007780D01*
X022989Y007780D01*
X023239Y007530D01*
X023239Y007030D01*
X025239Y007030D02*
X025489Y006780D01*
X025989Y006780D01*
X026239Y007030D01*
X026239Y007530D01*
X025989Y007780D01*
X025489Y007780D01*
X025239Y007530D01*
X025239Y007030D01*
X030039Y006530D02*
X031039Y006530D01*
X031039Y007530D01*
X031039Y008530D01*
X031039Y009530D01*
X031039Y010530D01*
X031039Y011530D01*
X031039Y012530D01*
X030039Y012530D01*
X030039Y011530D01*
X030039Y010530D01*
X030039Y009530D01*
X030039Y008530D01*
X030039Y007530D01*
X030039Y006530D01*
X030039Y007530D02*
X031039Y007530D01*
X031039Y008530D02*
X030039Y008530D01*
X030039Y009530D02*
X031039Y009530D01*
X031039Y010530D02*
X030039Y010530D01*
X030039Y011530D02*
X031039Y011530D01*
X024289Y013930D02*
X024289Y014330D01*
X024289Y013930D02*
X024287Y013913D01*
X024283Y013896D01*
X024276Y013880D01*
X024266Y013866D01*
X024253Y013853D01*
X024239Y013843D01*
X024223Y013836D01*
X024206Y013832D01*
X024189Y013830D01*
X019889Y013830D01*
X019872Y013832D01*
X019855Y013836D01*
X019839Y013843D01*
X019825Y013853D01*
X019812Y013866D01*
X019802Y013880D01*
X019795Y013896D01*
X019791Y013913D01*
X019789Y013930D01*
X019789Y014330D01*
X019789Y015230D02*
X019789Y015630D01*
X019791Y015647D01*
X019795Y015664D01*
X019802Y015680D01*
X019812Y015694D01*
X019825Y015707D01*
X019839Y015717D01*
X019855Y015724D01*
X019872Y015728D01*
X019889Y015730D01*
X024189Y015730D01*
X024206Y015728D01*
X024223Y015724D01*
X024239Y015717D01*
X024253Y015707D01*
X024266Y015694D01*
X024276Y015680D01*
X024283Y015664D01*
X024287Y015647D01*
X024289Y015630D01*
X024289Y015230D01*
X022289Y015030D02*
X022289Y014780D01*
X022289Y014530D01*
X022139Y014530D02*
X021939Y014530D01*
X021939Y015030D01*
X022139Y015030D01*
X022139Y014530D01*
X021789Y014530D02*
X021789Y014780D01*
X021789Y015030D01*
X023302Y012379D02*
X019786Y012379D01*
X019786Y010581D01*
X023302Y010581D01*
X023302Y012379D01*
X019956Y011000D02*
X019958Y011026D01*
X019964Y011052D01*
X019973Y011076D01*
X019986Y011099D01*
X020002Y011120D01*
X020021Y011138D01*
X020042Y011154D01*
X020066Y011166D01*
X020090Y011174D01*
X020116Y011179D01*
X020143Y011180D01*
X020169Y011177D01*
X020194Y011170D01*
X020218Y011160D01*
X020241Y011146D01*
X020261Y011130D01*
X020278Y011110D01*
X020293Y011088D01*
X020304Y011064D01*
X020312Y011039D01*
X020316Y011013D01*
X020316Y010987D01*
X020312Y010961D01*
X020304Y010936D01*
X020293Y010912D01*
X020278Y010890D01*
X020261Y010870D01*
X020241Y010854D01*
X020218Y010840D01*
X020194Y010830D01*
X020169Y010823D01*
X020143Y010820D01*
X020116Y010821D01*
X020090Y010826D01*
X020066Y010834D01*
X020042Y010846D01*
X020021Y010862D01*
X020002Y010880D01*
X019986Y010901D01*
X019973Y010924D01*
X019964Y010948D01*
X019958Y010974D01*
X019956Y011000D01*
X014535Y009867D02*
X011543Y009867D01*
X011543Y014493D01*
X014535Y014493D01*
X014535Y009867D01*
X021189Y018380D02*
X021689Y018380D01*
X021939Y018630D01*
X022189Y018380D01*
X022689Y018380D01*
X022939Y018630D01*
X022939Y019130D01*
X022689Y019380D01*
X022189Y019380D01*
X021939Y019130D01*
X021939Y018630D01*
X021939Y019130D02*
X021689Y019380D01*
X021189Y019380D01*
X020939Y019130D01*
X020939Y018630D01*
X021189Y018380D01*
D13*
X020689Y015580D02*
X023389Y015580D01*
X023389Y015280D02*
X020689Y015280D01*
X020651Y015279D01*
X020614Y015274D01*
X020577Y015267D01*
X020541Y015258D01*
X020505Y015245D01*
X020471Y015230D01*
X020028Y014330D02*
X020060Y014285D01*
X020096Y014243D01*
X020135Y014203D01*
X020177Y014166D01*
X020220Y014132D01*
X020267Y014101D01*
X020315Y014073D01*
X020365Y014049D01*
X020416Y014028D01*
X020469Y014011D01*
X020523Y013997D01*
X020578Y013988D01*
X020633Y013982D01*
X020689Y013980D01*
X023389Y013980D01*
X023389Y014280D02*
X020689Y014280D01*
X020028Y015230D02*
X020060Y015275D01*
X020096Y015317D01*
X020135Y015357D01*
X020176Y015394D01*
X020220Y015428D01*
X020267Y015459D01*
X020315Y015487D01*
X020365Y015511D01*
X020416Y015532D01*
X020469Y015549D01*
X020523Y015563D01*
X020578Y015572D01*
X020633Y015578D01*
X020689Y015580D01*
X020471Y014330D02*
X020505Y014315D01*
X020541Y014302D01*
X020577Y014293D01*
X020614Y014286D01*
X020651Y014281D01*
X020689Y014280D01*
X021639Y014780D02*
X021789Y014780D01*
X022289Y014780D02*
X022439Y014780D01*
X023389Y013980D02*
X023445Y013982D01*
X023500Y013988D01*
X023555Y013997D01*
X023609Y014011D01*
X023662Y014028D01*
X023713Y014049D01*
X023763Y014073D01*
X023811Y014101D01*
X023858Y014132D01*
X023902Y014166D01*
X023943Y014203D01*
X023982Y014243D01*
X024018Y014285D01*
X024050Y014330D01*
X024050Y015230D02*
X024018Y015275D01*
X023982Y015317D01*
X023943Y015357D01*
X023901Y015394D01*
X023858Y015428D01*
X023811Y015459D01*
X023763Y015487D01*
X023713Y015511D01*
X023662Y015532D01*
X023609Y015549D01*
X023555Y015563D01*
X023500Y015572D01*
X023445Y015578D01*
X023389Y015580D01*
X023389Y015280D02*
X023427Y015279D01*
X023464Y015274D01*
X023501Y015267D01*
X023537Y015258D01*
X023573Y015245D01*
X023607Y015230D01*
X023607Y014330D02*
X023573Y014315D01*
X023537Y014302D01*
X023501Y014293D01*
X023464Y014286D01*
X023427Y014281D01*
X023389Y014280D01*
X013667Y016268D02*
X013520Y016268D01*
X013667Y016415D01*
X013667Y016452D01*
X013630Y016488D01*
X013557Y016488D01*
X013520Y016452D01*
X012667Y016268D02*
X012520Y016268D01*
X012594Y016268D02*
X012594Y016488D01*
X012520Y016415D01*
X012512Y018286D02*
X012549Y018323D01*
X012549Y018469D01*
X012512Y018506D01*
X012439Y018506D01*
X012402Y018469D01*
X012402Y018323D01*
X012439Y018286D01*
X012512Y018286D01*
X012623Y018286D02*
X012623Y018506D01*
X012770Y018286D01*
X012770Y018506D01*
D14*
X027100Y014380D03*
X027100Y013680D03*
X009239Y007670D03*
X008239Y007670D03*
X007239Y007670D03*
X006239Y007670D03*
D15*
X031289Y008030D02*
X033539Y008030D01*
X033539Y009030D02*
X031289Y009030D01*
X031289Y010030D02*
X033539Y010030D01*
X033539Y011030D02*
X031289Y011030D01*
X031289Y012030D02*
X033539Y012030D01*
X033539Y007030D02*
X031289Y007030D01*
D16*
X031139Y007030D03*
X031139Y008030D03*
X031139Y009030D03*
X031139Y010030D03*
X031139Y011030D03*
X031139Y012030D03*
D17*
X029839Y012030D03*
X029839Y011030D03*
X029839Y010030D03*
X029839Y009030D03*
X029839Y008030D03*
X029839Y007030D03*
D18*
X014329Y016110D02*
X014111Y016110D01*
X014329Y016110D02*
X014329Y018650D01*
X014111Y018650D01*
X013884Y018168D02*
X013294Y018168D01*
X013294Y016593D01*
X013884Y016593D01*
X013884Y018168D01*
X013111Y018650D02*
X013057Y018650D01*
X012884Y018168D02*
X012294Y018168D01*
X012294Y016593D01*
X012884Y016593D01*
X012884Y018168D01*
X012057Y018650D02*
X011839Y018650D01*
X011839Y016110D01*
X012331Y016110D01*
X011849Y016593D01*
X012057Y016110D02*
X012331Y016110D01*
X013057Y016110D02*
X013111Y016110D01*
D19*
X013589Y016888D03*
X012589Y016888D03*
D20*
X006284Y003416D02*
X030694Y003416D01*
X030064Y004990D02*
X030066Y005040D01*
X030072Y005090D01*
X030082Y005139D01*
X030096Y005187D01*
X030113Y005234D01*
X030134Y005279D01*
X030159Y005323D01*
X030187Y005364D01*
X030219Y005403D01*
X030253Y005440D01*
X030290Y005474D01*
X030330Y005504D01*
X030372Y005531D01*
X030416Y005555D01*
X030462Y005576D01*
X030509Y005592D01*
X030557Y005605D01*
X030607Y005614D01*
X030656Y005619D01*
X030707Y005620D01*
X030757Y005617D01*
X030806Y005610D01*
X030855Y005599D01*
X030903Y005584D01*
X030949Y005566D01*
X030994Y005544D01*
X031037Y005518D01*
X031078Y005489D01*
X031117Y005457D01*
X031153Y005422D01*
X031185Y005384D01*
X031215Y005344D01*
X031242Y005301D01*
X031265Y005257D01*
X031284Y005211D01*
X031300Y005163D01*
X031312Y005114D01*
X031320Y005065D01*
X031324Y005015D01*
X031324Y004965D01*
X031320Y004915D01*
X031312Y004866D01*
X031300Y004817D01*
X031284Y004769D01*
X031265Y004723D01*
X031242Y004679D01*
X031215Y004636D01*
X031185Y004596D01*
X031153Y004558D01*
X031117Y004523D01*
X031078Y004491D01*
X031037Y004462D01*
X030994Y004436D01*
X030949Y004414D01*
X030903Y004396D01*
X030855Y004381D01*
X030806Y004370D01*
X030757Y004363D01*
X030707Y004360D01*
X030656Y004361D01*
X030607Y004366D01*
X030557Y004375D01*
X030509Y004388D01*
X030462Y004404D01*
X030416Y004425D01*
X030372Y004449D01*
X030330Y004476D01*
X030290Y004506D01*
X030253Y004540D01*
X030219Y004577D01*
X030187Y004616D01*
X030159Y004657D01*
X030134Y004701D01*
X030113Y004746D01*
X030096Y004793D01*
X030082Y004841D01*
X030072Y004890D01*
X030066Y004940D01*
X030064Y004990D01*
X030694Y003415D02*
X030771Y003417D01*
X030848Y003423D01*
X030925Y003432D01*
X031001Y003445D01*
X031077Y003462D01*
X031151Y003483D01*
X031225Y003507D01*
X031297Y003535D01*
X031367Y003566D01*
X031436Y003601D01*
X031504Y003639D01*
X031569Y003680D01*
X031632Y003725D01*
X031693Y003773D01*
X031752Y003823D01*
X031808Y003876D01*
X031861Y003932D01*
X031911Y003991D01*
X031959Y004052D01*
X032004Y004115D01*
X032045Y004180D01*
X032083Y004248D01*
X032118Y004317D01*
X032149Y004387D01*
X032177Y004459D01*
X032201Y004533D01*
X032222Y004607D01*
X032239Y004683D01*
X032252Y004759D01*
X032261Y004836D01*
X032267Y004913D01*
X032269Y004990D01*
X032269Y018770D01*
X030064Y018770D02*
X030066Y018820D01*
X030072Y018870D01*
X030082Y018919D01*
X030096Y018967D01*
X030113Y019014D01*
X030134Y019059D01*
X030159Y019103D01*
X030187Y019144D01*
X030219Y019183D01*
X030253Y019220D01*
X030290Y019254D01*
X030330Y019284D01*
X030372Y019311D01*
X030416Y019335D01*
X030462Y019356D01*
X030509Y019372D01*
X030557Y019385D01*
X030607Y019394D01*
X030656Y019399D01*
X030707Y019400D01*
X030757Y019397D01*
X030806Y019390D01*
X030855Y019379D01*
X030903Y019364D01*
X030949Y019346D01*
X030994Y019324D01*
X031037Y019298D01*
X031078Y019269D01*
X031117Y019237D01*
X031153Y019202D01*
X031185Y019164D01*
X031215Y019124D01*
X031242Y019081D01*
X031265Y019037D01*
X031284Y018991D01*
X031300Y018943D01*
X031312Y018894D01*
X031320Y018845D01*
X031324Y018795D01*
X031324Y018745D01*
X031320Y018695D01*
X031312Y018646D01*
X031300Y018597D01*
X031284Y018549D01*
X031265Y018503D01*
X031242Y018459D01*
X031215Y018416D01*
X031185Y018376D01*
X031153Y018338D01*
X031117Y018303D01*
X031078Y018271D01*
X031037Y018242D01*
X030994Y018216D01*
X030949Y018194D01*
X030903Y018176D01*
X030855Y018161D01*
X030806Y018150D01*
X030757Y018143D01*
X030707Y018140D01*
X030656Y018141D01*
X030607Y018146D01*
X030557Y018155D01*
X030509Y018168D01*
X030462Y018184D01*
X030416Y018205D01*
X030372Y018229D01*
X030330Y018256D01*
X030290Y018286D01*
X030253Y018320D01*
X030219Y018357D01*
X030187Y018396D01*
X030159Y018437D01*
X030134Y018481D01*
X030113Y018526D01*
X030096Y018573D01*
X030082Y018621D01*
X030072Y018670D01*
X030066Y018720D01*
X030064Y018770D01*
X030694Y020345D02*
X030771Y020343D01*
X030848Y020337D01*
X030925Y020328D01*
X031001Y020315D01*
X031077Y020298D01*
X031151Y020277D01*
X031225Y020253D01*
X031297Y020225D01*
X031367Y020194D01*
X031436Y020159D01*
X031504Y020121D01*
X031569Y020080D01*
X031632Y020035D01*
X031693Y019987D01*
X031752Y019937D01*
X031808Y019884D01*
X031861Y019828D01*
X031911Y019769D01*
X031959Y019708D01*
X032004Y019645D01*
X032045Y019580D01*
X032083Y019512D01*
X032118Y019443D01*
X032149Y019373D01*
X032177Y019301D01*
X032201Y019227D01*
X032222Y019153D01*
X032239Y019077D01*
X032252Y019001D01*
X032261Y018924D01*
X032267Y018847D01*
X032269Y018770D01*
X030694Y020345D02*
X006284Y020345D01*
X005654Y018770D02*
X005656Y018820D01*
X005662Y018870D01*
X005672Y018919D01*
X005686Y018967D01*
X005703Y019014D01*
X005724Y019059D01*
X005749Y019103D01*
X005777Y019144D01*
X005809Y019183D01*
X005843Y019220D01*
X005880Y019254D01*
X005920Y019284D01*
X005962Y019311D01*
X006006Y019335D01*
X006052Y019356D01*
X006099Y019372D01*
X006147Y019385D01*
X006197Y019394D01*
X006246Y019399D01*
X006297Y019400D01*
X006347Y019397D01*
X006396Y019390D01*
X006445Y019379D01*
X006493Y019364D01*
X006539Y019346D01*
X006584Y019324D01*
X006627Y019298D01*
X006668Y019269D01*
X006707Y019237D01*
X006743Y019202D01*
X006775Y019164D01*
X006805Y019124D01*
X006832Y019081D01*
X006855Y019037D01*
X006874Y018991D01*
X006890Y018943D01*
X006902Y018894D01*
X006910Y018845D01*
X006914Y018795D01*
X006914Y018745D01*
X006910Y018695D01*
X006902Y018646D01*
X006890Y018597D01*
X006874Y018549D01*
X006855Y018503D01*
X006832Y018459D01*
X006805Y018416D01*
X006775Y018376D01*
X006743Y018338D01*
X006707Y018303D01*
X006668Y018271D01*
X006627Y018242D01*
X006584Y018216D01*
X006539Y018194D01*
X006493Y018176D01*
X006445Y018161D01*
X006396Y018150D01*
X006347Y018143D01*
X006297Y018140D01*
X006246Y018141D01*
X006197Y018146D01*
X006147Y018155D01*
X006099Y018168D01*
X006052Y018184D01*
X006006Y018205D01*
X005962Y018229D01*
X005920Y018256D01*
X005880Y018286D01*
X005843Y018320D01*
X005809Y018357D01*
X005777Y018396D01*
X005749Y018437D01*
X005724Y018481D01*
X005703Y018526D01*
X005686Y018573D01*
X005672Y018621D01*
X005662Y018670D01*
X005656Y018720D01*
X005654Y018770D01*
X004709Y018770D02*
X004711Y018847D01*
X004717Y018924D01*
X004726Y019001D01*
X004739Y019077D01*
X004756Y019153D01*
X004777Y019227D01*
X004801Y019301D01*
X004829Y019373D01*
X004860Y019443D01*
X004895Y019512D01*
X004933Y019580D01*
X004974Y019645D01*
X005019Y019708D01*
X005067Y019769D01*
X005117Y019828D01*
X005170Y019884D01*
X005226Y019937D01*
X005285Y019987D01*
X005346Y020035D01*
X005409Y020080D01*
X005474Y020121D01*
X005542Y020159D01*
X005611Y020194D01*
X005681Y020225D01*
X005753Y020253D01*
X005827Y020277D01*
X005901Y020298D01*
X005977Y020315D01*
X006053Y020328D01*
X006130Y020337D01*
X006207Y020343D01*
X006284Y020345D01*
X004709Y018770D02*
X004709Y004990D01*
X005654Y004990D02*
X005656Y005040D01*
X005662Y005090D01*
X005672Y005139D01*
X005686Y005187D01*
X005703Y005234D01*
X005724Y005279D01*
X005749Y005323D01*
X005777Y005364D01*
X005809Y005403D01*
X005843Y005440D01*
X005880Y005474D01*
X005920Y005504D01*
X005962Y005531D01*
X006006Y005555D01*
X006052Y005576D01*
X006099Y005592D01*
X006147Y005605D01*
X006197Y005614D01*
X006246Y005619D01*
X006297Y005620D01*
X006347Y005617D01*
X006396Y005610D01*
X006445Y005599D01*
X006493Y005584D01*
X006539Y005566D01*
X006584Y005544D01*
X006627Y005518D01*
X006668Y005489D01*
X006707Y005457D01*
X006743Y005422D01*
X006775Y005384D01*
X006805Y005344D01*
X006832Y005301D01*
X006855Y005257D01*
X006874Y005211D01*
X006890Y005163D01*
X006902Y005114D01*
X006910Y005065D01*
X006914Y005015D01*
X006914Y004965D01*
X006910Y004915D01*
X006902Y004866D01*
X006890Y004817D01*
X006874Y004769D01*
X006855Y004723D01*
X006832Y004679D01*
X006805Y004636D01*
X006775Y004596D01*
X006743Y004558D01*
X006707Y004523D01*
X006668Y004491D01*
X006627Y004462D01*
X006584Y004436D01*
X006539Y004414D01*
X006493Y004396D01*
X006445Y004381D01*
X006396Y004370D01*
X006347Y004363D01*
X006297Y004360D01*
X006246Y004361D01*
X006197Y004366D01*
X006147Y004375D01*
X006099Y004388D01*
X006052Y004404D01*
X006006Y004425D01*
X005962Y004449D01*
X005920Y004476D01*
X005880Y004506D01*
X005843Y004540D01*
X005809Y004577D01*
X005777Y004616D01*
X005749Y004657D01*
X005724Y004701D01*
X005703Y004746D01*
X005686Y004793D01*
X005672Y004841D01*
X005662Y004890D01*
X005656Y004940D01*
X005654Y004990D01*
X004709Y004990D02*
X004711Y004913D01*
X004717Y004836D01*
X004726Y004759D01*
X004739Y004683D01*
X004756Y004607D01*
X004777Y004533D01*
X004801Y004459D01*
X004829Y004387D01*
X004860Y004317D01*
X004895Y004248D01*
X004933Y004180D01*
X004974Y004115D01*
X005019Y004052D01*
X005067Y003991D01*
X005117Y003932D01*
X005170Y003876D01*
X005226Y003823D01*
X005285Y003773D01*
X005346Y003725D01*
X005409Y003680D01*
X005474Y003639D01*
X005542Y003601D01*
X005611Y003566D01*
X005681Y003535D01*
X005753Y003507D01*
X005827Y003483D01*
X005901Y003462D01*
X005977Y003445D01*
X006053Y003432D01*
X006130Y003423D01*
X006207Y003417D01*
X006284Y003415D01*
X017446Y018280D02*
X017448Y018306D01*
X017454Y018332D01*
X017464Y018357D01*
X017477Y018380D01*
X017493Y018400D01*
X017513Y018418D01*
X017535Y018433D01*
X017558Y018445D01*
X017584Y018453D01*
X017610Y018457D01*
X017636Y018457D01*
X017662Y018453D01*
X017688Y018445D01*
X017712Y018433D01*
X017733Y018418D01*
X017753Y018400D01*
X017769Y018380D01*
X017782Y018357D01*
X017792Y018332D01*
X017798Y018306D01*
X017800Y018280D01*
X017798Y018254D01*
X017792Y018228D01*
X017782Y018203D01*
X017769Y018180D01*
X017753Y018160D01*
X017733Y018142D01*
X017711Y018127D01*
X017688Y018115D01*
X017662Y018107D01*
X017636Y018103D01*
X017610Y018103D01*
X017584Y018107D01*
X017558Y018115D01*
X017534Y018127D01*
X017513Y018142D01*
X017493Y018160D01*
X017477Y018180D01*
X017464Y018203D01*
X017454Y018228D01*
X017448Y018254D01*
X017446Y018280D01*
X019178Y018280D02*
X019180Y018306D01*
X019186Y018332D01*
X019196Y018357D01*
X019209Y018380D01*
X019225Y018400D01*
X019245Y018418D01*
X019267Y018433D01*
X019290Y018445D01*
X019316Y018453D01*
X019342Y018457D01*
X019368Y018457D01*
X019394Y018453D01*
X019420Y018445D01*
X019444Y018433D01*
X019465Y018418D01*
X019485Y018400D01*
X019501Y018380D01*
X019514Y018357D01*
X019524Y018332D01*
X019530Y018306D01*
X019532Y018280D01*
X019530Y018254D01*
X019524Y018228D01*
X019514Y018203D01*
X019501Y018180D01*
X019485Y018160D01*
X019465Y018142D01*
X019443Y018127D01*
X019420Y018115D01*
X019394Y018107D01*
X019368Y018103D01*
X019342Y018103D01*
X019316Y018107D01*
X019290Y018115D01*
X019266Y018127D01*
X019245Y018142D01*
X019225Y018160D01*
X019209Y018180D01*
X019196Y018203D01*
X019186Y018228D01*
X019180Y018254D01*
X019178Y018280D01*
X024378Y019458D02*
X024380Y019483D01*
X024386Y019507D01*
X024395Y019529D01*
X024408Y019550D01*
X024424Y019569D01*
X024443Y019585D01*
X024464Y019598D01*
X024486Y019607D01*
X024510Y019613D01*
X024535Y019615D01*
X024560Y019613D01*
X024584Y019607D01*
X024606Y019598D01*
X024627Y019585D01*
X024646Y019569D01*
X024662Y019550D01*
X024675Y019529D01*
X024684Y019507D01*
X024690Y019483D01*
X024692Y019458D01*
X024690Y019433D01*
X024684Y019409D01*
X024675Y019387D01*
X024662Y019366D01*
X024646Y019347D01*
X024627Y019331D01*
X024606Y019318D01*
X024584Y019309D01*
X024560Y019303D01*
X024535Y019301D01*
X024510Y019303D01*
X024486Y019309D01*
X024464Y019318D01*
X024443Y019331D01*
X024424Y019347D01*
X024408Y019366D01*
X024395Y019387D01*
X024386Y019409D01*
X024380Y019433D01*
X024378Y019458D01*
X028394Y019458D02*
X028396Y019483D01*
X028402Y019507D01*
X028411Y019529D01*
X028424Y019550D01*
X028440Y019569D01*
X028459Y019585D01*
X028480Y019598D01*
X028502Y019607D01*
X028526Y019613D01*
X028551Y019615D01*
X028576Y019613D01*
X028600Y019607D01*
X028622Y019598D01*
X028643Y019585D01*
X028662Y019569D01*
X028678Y019550D01*
X028691Y019529D01*
X028700Y019507D01*
X028706Y019483D01*
X028708Y019458D01*
X028706Y019433D01*
X028700Y019409D01*
X028691Y019387D01*
X028678Y019366D01*
X028662Y019347D01*
X028643Y019331D01*
X028622Y019318D01*
X028600Y019309D01*
X028576Y019303D01*
X028551Y019301D01*
X028526Y019303D01*
X028502Y019309D01*
X028480Y019318D01*
X028459Y019331D01*
X028440Y019347D01*
X028424Y019366D01*
X028411Y019387D01*
X028402Y019409D01*
X028396Y019433D01*
X028394Y019458D01*
M02*
