G75*
%MOIN*%
%OFA0B0*%
%FSLAX24Y24*%
%IPPOS*%
%LPD*%
%AMOC8*
5,1,8,0,0,1.08239X$1,22.5*
%
%ADD10R,0.0120X0.0390*%
%ADD11R,0.2100X0.0760*%
%ADD12R,0.0433X0.0394*%
%ADD13R,0.0394X0.0433*%
%ADD14R,0.0591X0.0591*%
%ADD15R,0.0591X0.0512*%
%ADD16R,0.0961X0.0445*%
%ADD17C,0.0640*%
%ADD18R,0.0445X0.0961*%
%ADD19R,0.0630X0.0709*%
%ADD20R,0.0709X0.0630*%
%ADD21R,0.0394X0.0177*%
%ADD22R,0.0394X0.0787*%
%ADD23R,0.0827X0.0551*%
%ADD24R,0.0450X0.0300*%
%ADD25OC8,0.0640*%
%ADD26C,0.0160*%
%ADD27C,0.0397*%
%ADD28C,0.0120*%
%ADD29C,0.0100*%
%ADD30C,0.0240*%
D10*
X013740Y006031D03*
X013996Y006031D03*
X014251Y006031D03*
X014507Y006031D03*
X014763Y006031D03*
X015019Y006031D03*
X015275Y006031D03*
X015531Y006031D03*
X015787Y006031D03*
X016043Y006031D03*
X016299Y006031D03*
X016555Y006031D03*
X016811Y006031D03*
X017066Y006031D03*
X017066Y008329D03*
X016811Y008329D03*
X016555Y008329D03*
X016299Y008329D03*
X016043Y008329D03*
X015787Y008329D03*
X015531Y008329D03*
X015275Y008329D03*
X015019Y008329D03*
X014763Y008329D03*
X014507Y008329D03*
X014251Y008329D03*
X013996Y008329D03*
X013740Y008329D03*
D11*
X012253Y010980D03*
X016053Y010980D03*
D12*
X015238Y012430D03*
X014568Y012430D03*
X013738Y012430D03*
X013068Y012430D03*
X009903Y012415D03*
X009903Y011745D03*
X009903Y011015D03*
X009903Y010345D03*
X009928Y009165D03*
X009928Y008495D03*
X006403Y010345D03*
X006403Y011015D03*
X006403Y011745D03*
X006403Y012415D03*
X004988Y009930D03*
X004318Y009930D03*
X004318Y005930D03*
X004988Y005930D03*
X008468Y003205D03*
X009138Y003205D03*
D13*
X007838Y003205D03*
X007168Y003205D03*
X011168Y003480D03*
X011838Y003480D03*
X011838Y004130D03*
X011168Y004130D03*
X017753Y006095D03*
X017753Y006765D03*
X017753Y007545D03*
X017753Y008215D03*
X018018Y008830D03*
X018688Y008830D03*
X018713Y009730D03*
X018043Y009730D03*
X003688Y009930D03*
X003018Y009930D03*
X001988Y009930D03*
X001318Y009930D03*
X001318Y005930D03*
X001988Y005930D03*
X003018Y005930D03*
X003688Y005930D03*
D14*
X003653Y002619D03*
X004653Y002619D03*
X002653Y002619D03*
X001653Y002619D03*
X001653Y001241D03*
X002653Y001241D03*
X003653Y001241D03*
X004653Y001241D03*
X021714Y005630D03*
X023092Y005630D03*
D15*
X023953Y005656D03*
X023953Y006404D03*
X020603Y007856D03*
X020603Y008604D03*
X004653Y004304D03*
X003653Y004304D03*
X002653Y004304D03*
X001653Y004304D03*
X001653Y003556D03*
X002653Y003556D03*
X003653Y003556D03*
X004653Y003556D03*
D16*
X018310Y011530D03*
X021696Y011530D03*
D17*
X025083Y008430D02*
X025723Y008430D01*
X025723Y007430D02*
X025083Y007430D01*
X025083Y006430D02*
X025723Y006430D01*
X025723Y005430D02*
X025083Y005430D01*
X025083Y004430D02*
X025723Y004430D01*
X025723Y003430D02*
X025083Y003430D01*
X025403Y001250D02*
X025403Y000610D01*
X024403Y000610D02*
X024403Y001250D01*
X023403Y001250D02*
X023403Y000610D01*
X022403Y000610D02*
X022403Y001250D01*
X021403Y001250D02*
X021403Y000610D01*
X020403Y000610D02*
X020403Y001250D01*
X019403Y001250D02*
X019403Y000610D01*
X018403Y000610D02*
X018403Y001250D01*
X017403Y001250D02*
X017403Y000610D01*
X016403Y000610D02*
X016403Y001250D01*
X015403Y001250D02*
X015403Y000610D01*
X014403Y000610D02*
X014403Y001250D01*
X013403Y001250D02*
X013403Y000610D01*
X012403Y000610D02*
X012403Y001250D01*
X011403Y001250D02*
X011403Y000610D01*
X010403Y000610D02*
X010403Y001250D01*
X026403Y001250D02*
X026403Y000610D01*
X027403Y000610D02*
X027403Y001250D01*
D18*
X008653Y008887D03*
X007653Y008887D03*
X007653Y012273D03*
X008653Y012273D03*
D19*
X021702Y008980D03*
X022804Y008980D03*
X022854Y006530D03*
X021752Y006530D03*
D20*
X023953Y007879D03*
X023953Y008981D03*
D21*
X023060Y008264D03*
X023060Y008008D03*
X023060Y007752D03*
X023060Y007496D03*
X021446Y007496D03*
X021446Y007752D03*
X021446Y008008D03*
X021446Y008264D03*
D22*
X023582Y010180D03*
X024370Y010180D03*
X025944Y010180D03*
X026732Y010180D03*
D23*
X004905Y010899D03*
X001322Y010899D03*
X001322Y012671D03*
X004905Y012671D03*
X004905Y008671D03*
X001322Y008671D03*
X001322Y006899D03*
X004905Y006899D03*
D24*
X006268Y006830D03*
X006268Y007330D03*
X006268Y007830D03*
X006268Y006330D03*
X006268Y005830D03*
X006268Y005330D03*
X006268Y004830D03*
X006268Y004330D03*
X006268Y003830D03*
X010038Y003830D03*
X010038Y004330D03*
X010038Y004830D03*
X010038Y005330D03*
X010038Y005830D03*
X010038Y006330D03*
X010038Y006830D03*
X010038Y007330D03*
X010038Y007830D03*
D25*
X019753Y009980D03*
X019403Y003280D03*
X020503Y003280D03*
X021603Y003280D03*
X022703Y003280D03*
D26*
X000833Y001261D02*
X000833Y000360D01*
X009965Y000360D01*
X009903Y000511D01*
X009903Y001349D01*
X009979Y001533D01*
X010120Y001674D01*
X010304Y001750D01*
X010498Y001750D01*
X010523Y001775D01*
X010523Y002641D01*
X010428Y002602D01*
X010278Y002602D01*
X010139Y002659D01*
X010032Y002766D01*
X010025Y002783D01*
X009923Y002885D01*
X009534Y003274D01*
X009534Y003223D01*
X009156Y003223D01*
X009156Y003187D01*
X009534Y003187D01*
X009534Y002984D01*
X009522Y002939D01*
X009498Y002898D01*
X009465Y002864D01*
X009424Y002840D01*
X009378Y002828D01*
X009156Y002828D01*
X009156Y003187D01*
X009119Y003187D01*
X009119Y002828D01*
X008897Y002828D01*
X008852Y002840D01*
X008811Y002864D01*
X008803Y002872D01*
X008766Y002835D01*
X008919Y002681D01*
X008939Y002701D01*
X009078Y002758D01*
X009228Y002758D01*
X009367Y002701D01*
X009474Y002594D01*
X009531Y002455D01*
X009531Y002305D01*
X009474Y002166D01*
X009413Y002105D01*
X009413Y001928D01*
X009373Y001833D01*
X009300Y001760D01*
X008500Y000960D01*
X008405Y000920D01*
X005528Y000920D01*
X005467Y000859D01*
X005328Y000802D01*
X005178Y000802D01*
X005094Y000836D01*
X005023Y000766D01*
X004283Y000766D01*
X004178Y000871D01*
X004178Y000981D01*
X004128Y000981D01*
X004128Y000871D01*
X004023Y000766D01*
X003283Y000766D01*
X003178Y000871D01*
X003178Y000981D01*
X003128Y000981D01*
X003128Y000871D01*
X003023Y000766D01*
X002283Y000766D01*
X002178Y000871D01*
X002178Y000981D01*
X002128Y000981D01*
X002128Y000871D01*
X002023Y000766D01*
X001283Y000766D01*
X001178Y000871D01*
X001178Y000922D01*
X001167Y000927D01*
X001100Y000994D01*
X001100Y000994D01*
X000867Y001227D01*
X000867Y001227D01*
X000833Y001261D01*
X000833Y001213D02*
X000881Y001213D01*
X000833Y001055D02*
X001039Y001055D01*
X001178Y000896D02*
X000833Y000896D01*
X000833Y000738D02*
X009903Y000738D01*
X009903Y000896D02*
X005504Y000896D01*
X005253Y001180D02*
X008353Y001180D01*
X009153Y001980D01*
X009153Y002380D01*
X008853Y002380D01*
X008453Y002780D01*
X008453Y003090D01*
X008468Y003205D01*
X007838Y003205D01*
X008453Y003120D02*
X008453Y003480D01*
X008103Y003830D01*
X006268Y003830D01*
X006658Y004090D02*
X006673Y004105D01*
X006673Y004555D01*
X006648Y004580D01*
X006673Y004605D01*
X006673Y005055D01*
X006648Y005080D01*
X006673Y005105D01*
X006673Y005555D01*
X006648Y005580D01*
X006673Y005605D01*
X006673Y006055D01*
X006648Y006080D01*
X006658Y006090D01*
X006781Y006090D01*
X006832Y005966D01*
X006939Y005859D01*
X007078Y005802D01*
X007228Y005802D01*
X007367Y005859D01*
X007474Y005966D01*
X007531Y006105D01*
X007531Y006255D01*
X007474Y006394D01*
X007367Y006501D01*
X007357Y006505D01*
X007367Y006509D01*
X007474Y006616D01*
X007531Y006755D01*
X007531Y006905D01*
X007474Y007044D01*
X007428Y007090D01*
X008151Y007090D01*
X008239Y007127D01*
X008306Y007194D01*
X009356Y008244D01*
X009393Y008332D01*
X009393Y010681D01*
X009487Y010775D01*
X009506Y010775D01*
X009506Y010743D01*
X009570Y010680D01*
X009506Y010617D01*
X009506Y010074D01*
X009559Y010021D01*
X009532Y009994D01*
X009475Y009855D01*
X009475Y009705D01*
X009532Y009566D01*
X009597Y009501D01*
X009531Y009436D01*
X009531Y008893D01*
X009595Y008830D01*
X009531Y008767D01*
X009531Y008224D01*
X009637Y008119D01*
X009697Y008119D01*
X009669Y008091D01*
X009645Y008049D01*
X009633Y008004D01*
X009633Y007830D01*
X010038Y007830D01*
X010038Y007830D01*
X009633Y007830D01*
X009633Y007656D01*
X009645Y007611D01*
X009661Y007583D01*
X009633Y007555D01*
X009633Y007105D01*
X009658Y007080D01*
X009633Y007055D01*
X009633Y006975D01*
X009598Y007010D01*
X009058Y007010D01*
X008923Y006875D01*
X008723Y006675D01*
X008723Y004285D01*
X008775Y004233D01*
X008775Y004105D01*
X008832Y003966D01*
X008939Y003859D01*
X009078Y003802D01*
X009228Y003802D01*
X009323Y003841D01*
X009323Y003675D01*
X009323Y003582D01*
X009156Y003582D01*
X009156Y003223D01*
X009119Y003223D01*
X009119Y003582D01*
X008897Y003582D01*
X008852Y003570D01*
X008811Y003546D01*
X008803Y003538D01*
X008759Y003582D01*
X008692Y003582D01*
X008673Y003627D01*
X008600Y003700D01*
X008323Y003977D01*
X008250Y004050D01*
X008155Y004090D01*
X006658Y004090D01*
X006673Y004225D02*
X008775Y004225D01*
X008791Y004066D02*
X008213Y004066D01*
X008323Y003977D02*
X008323Y003977D01*
X008393Y003908D02*
X008890Y003908D01*
X008552Y003749D02*
X009323Y003749D01*
X009323Y003591D02*
X008689Y003591D01*
X009119Y003432D02*
X009156Y003432D01*
X009156Y003274D02*
X009119Y003274D01*
X009119Y003115D02*
X009156Y003115D01*
X009156Y002957D02*
X009119Y002957D01*
X008803Y002798D02*
X010010Y002798D01*
X009851Y002957D02*
X009527Y002957D01*
X009534Y003115D02*
X009693Y003115D01*
X009534Y003274D02*
X009534Y003274D01*
X008468Y003205D02*
X008453Y003120D01*
X009429Y002640D02*
X010186Y002640D01*
X010520Y002640D02*
X010523Y002640D01*
X010523Y002481D02*
X009521Y002481D01*
X009531Y002323D02*
X010523Y002323D01*
X010523Y002164D02*
X009472Y002164D01*
X009413Y002006D02*
X010523Y002006D01*
X010523Y001847D02*
X009379Y001847D01*
X009229Y001689D02*
X010155Y001689D01*
X009978Y001530D02*
X009071Y001530D01*
X008912Y001372D02*
X009912Y001372D01*
X009903Y001213D02*
X008754Y001213D01*
X008595Y001055D02*
X009903Y001055D01*
X009903Y000579D02*
X000833Y000579D01*
X000833Y000421D02*
X009940Y000421D01*
X005253Y001180D02*
X004753Y001180D01*
X004692Y001241D01*
X004653Y001241D01*
X003653Y001241D01*
X002653Y001241D01*
X001653Y001241D01*
X002128Y000896D02*
X002178Y000896D01*
X003128Y000896D02*
X003178Y000896D01*
X004128Y000896D02*
X004178Y000896D01*
X004653Y002619D02*
X004653Y003556D01*
X003653Y003556D02*
X003653Y002619D01*
X002653Y002619D02*
X002653Y003556D01*
X001653Y003556D02*
X001653Y002619D01*
X006653Y003180D02*
X007143Y003180D01*
X007168Y003205D01*
X006673Y004383D02*
X008723Y004383D01*
X008723Y004542D02*
X006673Y004542D01*
X006673Y004700D02*
X008723Y004700D01*
X008723Y004859D02*
X006673Y004859D01*
X006673Y005017D02*
X008723Y005017D01*
X008723Y005176D02*
X006673Y005176D01*
X006673Y005334D02*
X008723Y005334D01*
X008723Y005493D02*
X006673Y005493D01*
X006673Y005651D02*
X008723Y005651D01*
X008723Y005810D02*
X007248Y005810D01*
X007059Y005810D02*
X006673Y005810D01*
X006673Y005968D02*
X006831Y005968D01*
X007475Y005968D02*
X008723Y005968D01*
X008723Y006127D02*
X007531Y006127D01*
X007519Y006285D02*
X008723Y006285D01*
X008723Y006444D02*
X007425Y006444D01*
X007460Y006602D02*
X008723Y006602D01*
X008808Y006761D02*
X007531Y006761D01*
X007526Y006919D02*
X008967Y006919D01*
X008348Y007236D02*
X009633Y007236D01*
X009633Y007395D02*
X008507Y007395D01*
X008665Y007553D02*
X009633Y007553D01*
X009633Y007712D02*
X008824Y007712D01*
X008982Y007870D02*
X009633Y007870D01*
X009640Y008029D02*
X009141Y008029D01*
X009299Y008187D02*
X009568Y008187D01*
X009531Y008346D02*
X009393Y008346D01*
X009393Y008504D02*
X009531Y008504D01*
X009531Y008663D02*
X009393Y008663D01*
X009393Y008821D02*
X009586Y008821D01*
X009531Y008980D02*
X009393Y008980D01*
X009393Y009138D02*
X009531Y009138D01*
X009531Y009297D02*
X009393Y009297D01*
X009393Y009455D02*
X009550Y009455D01*
X009512Y009614D02*
X009393Y009614D01*
X009393Y009772D02*
X009475Y009772D01*
X009506Y009931D02*
X009393Y009931D01*
X009393Y010089D02*
X009506Y010089D01*
X009506Y010248D02*
X009393Y010248D01*
X009393Y010406D02*
X009506Y010406D01*
X009506Y010565D02*
X009393Y010565D01*
X009435Y010723D02*
X009527Y010723D01*
X009903Y011015D02*
X009903Y011745D01*
X010300Y011674D02*
X012879Y011674D01*
X012745Y011540D02*
X011128Y011540D01*
X011023Y011435D01*
X011023Y010525D01*
X011128Y010420D01*
X013378Y010420D01*
X013383Y010425D01*
X013823Y009985D01*
X013823Y009485D01*
X014358Y008950D01*
X015158Y008950D01*
X015404Y008704D01*
X015396Y008704D01*
X015388Y008696D01*
X015359Y008704D01*
X015275Y008704D01*
X015191Y008704D01*
X015162Y008696D01*
X015154Y008704D01*
X014481Y008704D01*
X014481Y008777D01*
X013883Y009375D01*
X013748Y009510D01*
X011008Y009510D01*
X010295Y008797D01*
X010261Y008830D01*
X010325Y008893D01*
X010325Y009436D01*
X010219Y009541D01*
X010168Y009541D01*
X010168Y009560D01*
X010174Y009566D01*
X010231Y009705D01*
X010231Y009855D01*
X010185Y009969D01*
X010194Y009969D01*
X010300Y010074D01*
X010300Y010617D01*
X010236Y010680D01*
X010300Y010743D01*
X010300Y011286D01*
X010206Y011380D01*
X010300Y011474D01*
X010300Y012017D01*
X010236Y012080D01*
X010300Y012143D01*
X010300Y012686D01*
X010194Y012791D01*
X009612Y012791D01*
X009506Y012686D01*
X009506Y012675D01*
X009055Y012675D01*
X009055Y012828D01*
X008950Y012933D01*
X008356Y012933D01*
X008251Y012828D01*
X008251Y011718D01*
X008356Y011613D01*
X008950Y011613D01*
X009055Y011718D01*
X009055Y012155D01*
X009506Y012155D01*
X009506Y012143D01*
X009570Y012080D01*
X009506Y012017D01*
X009506Y011474D01*
X009600Y011380D01*
X009506Y011286D01*
X009506Y011255D01*
X009340Y011255D01*
X009252Y011218D01*
X009017Y010983D01*
X008950Y010916D01*
X008913Y010828D01*
X008913Y009544D01*
X008899Y009547D01*
X008684Y009547D01*
X008684Y008918D01*
X008622Y008918D01*
X008622Y008856D01*
X008684Y008856D01*
X008684Y008251D01*
X008004Y007570D01*
X006658Y007570D01*
X006648Y007580D01*
X006658Y007590D01*
X006851Y007590D01*
X006939Y007627D01*
X007006Y007694D01*
X007356Y008044D01*
X007393Y008132D01*
X007393Y008230D01*
X007407Y008227D01*
X007622Y008227D01*
X007622Y008856D01*
X007684Y008856D01*
X007684Y008227D01*
X007899Y008227D01*
X007945Y008239D01*
X007986Y008263D01*
X008020Y008296D01*
X008043Y008337D01*
X008055Y008383D01*
X008055Y008856D01*
X007684Y008856D01*
X007684Y008918D01*
X008055Y008918D01*
X008055Y009391D01*
X008043Y009437D01*
X008020Y009478D01*
X007986Y009511D01*
X007945Y009535D01*
X007899Y009547D01*
X007684Y009547D01*
X007684Y008918D01*
X007622Y008918D01*
X007622Y009547D01*
X007407Y009547D01*
X007393Y009544D01*
X007393Y010828D01*
X007356Y010916D01*
X007289Y010983D01*
X007054Y011218D01*
X006966Y011255D01*
X006800Y011255D01*
X006800Y011286D01*
X006706Y011380D01*
X006800Y011474D01*
X006800Y012017D01*
X006736Y012080D01*
X006800Y012143D01*
X006800Y012155D01*
X007251Y012155D01*
X007251Y011718D01*
X007356Y011613D01*
X007950Y011613D01*
X008055Y011718D01*
X008055Y012828D01*
X007950Y012933D01*
X007356Y012933D01*
X007251Y012828D01*
X007251Y012675D01*
X006800Y012675D01*
X006800Y012686D01*
X006694Y012791D01*
X006112Y012791D01*
X006006Y012686D01*
X006006Y012143D01*
X006070Y012080D01*
X006006Y012017D01*
X006006Y011474D01*
X006100Y011380D01*
X006006Y011286D01*
X006006Y010743D01*
X006070Y010680D01*
X006006Y010617D01*
X006006Y010074D01*
X006059Y010021D01*
X006032Y009994D01*
X005975Y009855D01*
X005975Y009705D01*
X006032Y009566D01*
X006139Y009459D01*
X006278Y009402D01*
X006428Y009402D01*
X006567Y009459D01*
X006674Y009566D01*
X006731Y009705D01*
X006731Y009855D01*
X006685Y009969D01*
X006694Y009969D01*
X006800Y010074D01*
X006800Y010617D01*
X006736Y010680D01*
X006800Y010743D01*
X006800Y010775D01*
X006819Y010775D01*
X006913Y010681D01*
X006913Y008279D01*
X006704Y008070D01*
X006658Y008070D01*
X006568Y008160D01*
X005968Y008160D01*
X005863Y008055D01*
X005863Y007605D01*
X005888Y007580D01*
X005863Y007555D01*
X005863Y007105D01*
X005888Y007080D01*
X005863Y007055D01*
X005863Y006605D01*
X005888Y006580D01*
X005863Y006555D01*
X005863Y006105D01*
X005888Y006080D01*
X005863Y006055D01*
X005863Y006020D01*
X005805Y006020D01*
X005717Y005983D01*
X005650Y005916D01*
X005354Y005620D01*
X005346Y005620D01*
X005348Y005623D01*
X005372Y005664D01*
X005384Y005709D01*
X005384Y005912D01*
X005006Y005912D01*
X005006Y005948D01*
X005384Y005948D01*
X005384Y006151D01*
X005372Y006196D01*
X005348Y006237D01*
X005315Y006271D01*
X005274Y006295D01*
X005228Y006307D01*
X005006Y006307D01*
X005006Y005948D01*
X004969Y005948D01*
X004969Y006307D01*
X004747Y006307D01*
X004702Y006295D01*
X004661Y006271D01*
X004653Y006263D01*
X004609Y006307D01*
X004593Y006307D01*
X004593Y006328D01*
X004556Y006416D01*
X004529Y006444D01*
X005393Y006444D01*
X005498Y006549D01*
X005498Y007250D01*
X005393Y007355D01*
X004417Y007355D01*
X004312Y007250D01*
X004312Y007159D01*
X001916Y007159D01*
X001916Y007250D01*
X001810Y007355D01*
X000834Y007355D01*
X000833Y007354D01*
X000833Y008232D01*
X000839Y008228D01*
X000885Y008216D01*
X001265Y008216D01*
X001265Y008613D01*
X001380Y008613D01*
X001380Y008216D01*
X001759Y008216D01*
X001805Y008228D01*
X001846Y008252D01*
X001880Y008285D01*
X001903Y008326D01*
X001916Y008372D01*
X001916Y008613D01*
X001380Y008613D01*
X001380Y008729D01*
X001265Y008729D01*
X001265Y009127D01*
X000885Y009127D01*
X000839Y009114D01*
X000833Y009111D01*
X000833Y010445D01*
X000834Y010444D01*
X001060Y010444D01*
X001060Y010327D01*
X001047Y010327D01*
X000942Y010221D01*
X000942Y009639D01*
X001047Y009533D01*
X001371Y009533D01*
X001332Y009494D01*
X001275Y009355D01*
X001275Y009205D01*
X001332Y009066D01*
X001380Y009018D01*
X001380Y008729D01*
X001916Y008729D01*
X001916Y008970D01*
X001908Y009000D01*
X001948Y009040D01*
X003401Y009040D01*
X003489Y009077D01*
X003556Y009144D01*
X003789Y009377D01*
X003856Y009444D01*
X003893Y009532D01*
X003893Y009533D01*
X003959Y009533D01*
X004003Y009577D01*
X004027Y009553D01*
X004190Y009553D01*
X004617Y009127D01*
X004468Y009127D01*
X004422Y009114D01*
X004381Y009091D01*
X004348Y009057D01*
X004324Y009016D01*
X004312Y008970D01*
X004312Y008729D01*
X004847Y008729D01*
X004847Y008613D01*
X004963Y008613D01*
X004963Y008216D01*
X005342Y008216D01*
X005388Y008228D01*
X005429Y008252D01*
X005462Y008285D01*
X005486Y008326D01*
X005498Y008372D01*
X005498Y008613D01*
X004963Y008613D01*
X004963Y008729D01*
X005498Y008729D01*
X005498Y008884D01*
X005578Y008852D01*
X005728Y008852D01*
X005867Y008909D01*
X005974Y009016D01*
X006031Y009155D01*
X006031Y009305D01*
X005974Y009444D01*
X005867Y009551D01*
X005728Y009608D01*
X005578Y009608D01*
X005439Y009551D01*
X005358Y009470D01*
X004952Y009470D01*
X004869Y009553D01*
X004969Y009553D01*
X004969Y009912D01*
X005006Y009912D01*
X005006Y009948D01*
X005384Y009948D01*
X005384Y010151D01*
X005372Y010196D01*
X005348Y010237D01*
X005315Y010271D01*
X005274Y010295D01*
X005228Y010307D01*
X005006Y010307D01*
X005006Y009948D01*
X004969Y009948D01*
X004969Y010307D01*
X004747Y010307D01*
X004702Y010295D01*
X004661Y010271D01*
X004653Y010263D01*
X004609Y010307D01*
X004593Y010307D01*
X004593Y010328D01*
X004556Y010416D01*
X004529Y010444D01*
X005393Y010444D01*
X005498Y010549D01*
X005498Y011250D01*
X005393Y011355D01*
X004417Y011355D01*
X004312Y011250D01*
X004312Y011159D01*
X001916Y011159D01*
X001916Y011250D01*
X001810Y011355D01*
X000834Y011355D01*
X000833Y011354D01*
X000833Y012232D01*
X000839Y012228D01*
X000885Y012216D01*
X001265Y012216D01*
X001265Y012613D01*
X001380Y012613D01*
X001380Y012216D01*
X001759Y012216D01*
X001805Y012228D01*
X001846Y012252D01*
X001880Y012285D01*
X001903Y012326D01*
X001916Y012372D01*
X001916Y012613D01*
X001380Y012613D01*
X001380Y012729D01*
X001916Y012729D01*
X001916Y012970D01*
X001909Y012996D01*
X004318Y012996D01*
X004312Y012970D01*
X004312Y012729D01*
X004847Y012729D01*
X004847Y012613D01*
X004963Y012613D01*
X004963Y012216D01*
X005342Y012216D01*
X005388Y012228D01*
X005429Y012252D01*
X005462Y012285D01*
X005486Y012326D01*
X005498Y012372D01*
X005498Y012613D01*
X004963Y012613D01*
X004963Y012729D01*
X005498Y012729D01*
X005498Y012970D01*
X005492Y012996D01*
X027968Y012996D01*
X027968Y000360D01*
X027837Y000360D01*
X027866Y000418D01*
X027891Y000493D01*
X027903Y000571D01*
X027903Y000910D01*
X027423Y000910D01*
X027423Y000950D01*
X027383Y000950D01*
X027383Y000910D01*
X026903Y000910D01*
X026903Y000571D01*
X026915Y000493D01*
X026940Y000418D01*
X026969Y000360D01*
X026841Y000360D01*
X026903Y000511D01*
X026903Y001349D01*
X026827Y001533D01*
X026686Y001674D01*
X026585Y001716D01*
X026550Y001750D01*
X026273Y002027D01*
X026200Y002100D01*
X026135Y002127D01*
X026174Y002166D01*
X026231Y002305D01*
X026231Y002455D01*
X026174Y002594D01*
X026067Y002701D01*
X025928Y002758D01*
X025778Y002758D01*
X025639Y002701D01*
X025548Y002610D01*
X024258Y002610D01*
X024167Y002701D01*
X024028Y002758D01*
X023878Y002758D01*
X023739Y002701D01*
X023632Y002594D01*
X023575Y002455D01*
X023575Y002305D01*
X023632Y002166D01*
X023658Y002140D01*
X023461Y002140D01*
X022963Y002638D01*
X022963Y002833D01*
X023203Y003073D01*
X023203Y003487D01*
X022910Y003780D01*
X022496Y003780D01*
X022203Y003487D01*
X022203Y003073D01*
X022443Y002833D01*
X022443Y002515D01*
X022248Y002710D01*
X017948Y002710D01*
X017296Y003362D01*
X017296Y005752D01*
X017306Y005762D01*
X017306Y006301D01*
X017201Y006406D01*
X015652Y006406D01*
X015644Y006398D01*
X015615Y006406D01*
X015605Y006406D01*
X015733Y006535D01*
X017376Y006535D01*
X017376Y006474D01*
X017420Y006430D01*
X017412Y006422D01*
X017388Y006381D01*
X017376Y006336D01*
X017376Y006114D01*
X017735Y006114D01*
X017735Y006077D01*
X017771Y006077D01*
X017771Y005699D01*
X017974Y005699D01*
X018019Y005711D01*
X018060Y005735D01*
X018094Y005768D01*
X018118Y005809D01*
X018130Y005855D01*
X018130Y006077D01*
X017771Y006077D01*
X017771Y006114D01*
X018130Y006114D01*
X018130Y006336D01*
X018118Y006381D01*
X018094Y006422D01*
X018086Y006430D01*
X018130Y006474D01*
X018130Y006520D01*
X018278Y006520D01*
X018339Y006459D01*
X018478Y006402D01*
X018628Y006402D01*
X018767Y006459D01*
X018874Y006566D01*
X018931Y006705D01*
X018931Y006855D01*
X018874Y006994D01*
X018767Y007101D01*
X018628Y007158D01*
X018478Y007158D01*
X018339Y007101D01*
X018278Y007040D01*
X018130Y007040D01*
X018130Y007056D01*
X018024Y007161D01*
X018020Y007161D01*
X018060Y007185D01*
X018094Y007218D01*
X018118Y007259D01*
X018130Y007305D01*
X018130Y007527D01*
X017771Y007527D01*
X017771Y007564D01*
X018130Y007564D01*
X018130Y007786D01*
X018118Y007831D01*
X018095Y007870D01*
X018175Y007791D01*
X018175Y007705D01*
X018232Y007566D01*
X018339Y007459D01*
X018478Y007402D01*
X018628Y007402D01*
X018767Y007459D01*
X018874Y007566D01*
X018931Y007705D01*
X018931Y007855D01*
X018874Y007994D01*
X018767Y008101D01*
X018628Y008158D01*
X018542Y008158D01*
X018499Y008202D01*
X018731Y008433D01*
X018959Y008433D01*
X019065Y008539D01*
X019065Y009121D01*
X018959Y009227D01*
X018928Y009227D01*
X018928Y009333D01*
X018984Y009333D01*
X019090Y009439D01*
X019090Y010021D01*
X018984Y010127D01*
X018441Y010127D01*
X018378Y010063D01*
X018315Y010127D01*
X018303Y010127D01*
X018303Y011128D01*
X018865Y011128D01*
X018970Y011233D01*
X018970Y011827D01*
X018865Y011932D01*
X017755Y011932D01*
X017650Y011827D01*
X017650Y011233D01*
X017755Y011128D01*
X017783Y011128D01*
X017783Y010127D01*
X017772Y010127D01*
X017722Y010077D01*
X017674Y010194D01*
X017567Y010301D01*
X017428Y010358D01*
X017278Y010358D01*
X017139Y010301D01*
X017032Y010194D01*
X016975Y010055D01*
X016975Y009905D01*
X017032Y009766D01*
X017118Y009680D01*
X017032Y009594D01*
X016975Y009455D01*
X015603Y009455D01*
X015583Y009475D02*
X015448Y009610D01*
X014648Y009610D01*
X014483Y009775D01*
X014483Y009985D01*
X014923Y010425D01*
X014928Y010420D01*
X017178Y010420D01*
X017283Y010525D01*
X017283Y011435D01*
X017178Y011540D01*
X015561Y011540D01*
X015048Y012053D01*
X015219Y012053D01*
X015219Y012412D01*
X015256Y012412D01*
X015256Y012448D01*
X015634Y012448D01*
X015634Y012651D01*
X015622Y012696D01*
X015598Y012737D01*
X015565Y012771D01*
X015524Y012795D01*
X015478Y012807D01*
X015256Y012807D01*
X015256Y012448D01*
X015219Y012448D01*
X015219Y012807D01*
X014997Y012807D01*
X014952Y012795D01*
X014911Y012771D01*
X014903Y012763D01*
X014859Y012807D01*
X014277Y012807D01*
X014172Y012701D01*
X014172Y012159D01*
X014277Y012053D01*
X014333Y012053D01*
X014348Y012017D01*
X014877Y011488D01*
X014823Y011435D01*
X014823Y010975D01*
X014723Y010875D01*
X014153Y010305D01*
X013583Y010875D01*
X013583Y010875D01*
X013483Y010975D01*
X013483Y011435D01*
X013429Y011488D01*
X013958Y012017D01*
X013973Y012053D01*
X014029Y012053D01*
X014134Y012159D01*
X014134Y012701D01*
X014029Y012807D01*
X013447Y012807D01*
X013403Y012763D01*
X013395Y012771D01*
X013354Y012795D01*
X013309Y012807D01*
X013087Y012807D01*
X013087Y012448D01*
X013050Y012448D01*
X013050Y012412D01*
X012672Y012412D01*
X012672Y012209D01*
X012684Y012164D01*
X012708Y012123D01*
X012741Y012089D01*
X012782Y012065D01*
X012828Y012053D01*
X013050Y012053D01*
X013050Y012412D01*
X013087Y012412D01*
X013087Y012053D01*
X013258Y012053D01*
X012745Y011540D01*
X013038Y011833D02*
X010300Y011833D01*
X010300Y011991D02*
X013196Y011991D01*
X013087Y012150D02*
X013050Y012150D01*
X013050Y012308D02*
X013087Y012308D01*
X013050Y012448D02*
X012672Y012448D01*
X012672Y012651D01*
X012684Y012696D01*
X012708Y012737D01*
X012741Y012771D01*
X012782Y012795D01*
X012828Y012807D01*
X013050Y012807D01*
X013050Y012448D01*
X013050Y012467D02*
X013087Y012467D01*
X012672Y012467D02*
X010300Y012467D01*
X010300Y012308D02*
X012672Y012308D01*
X012692Y012150D02*
X010300Y012150D01*
X009903Y012415D02*
X008795Y012415D01*
X009055Y012150D02*
X009506Y012150D01*
X009506Y011991D02*
X009055Y011991D01*
X009055Y011833D02*
X009506Y011833D01*
X009506Y011674D02*
X009011Y011674D01*
X009506Y011516D02*
X006800Y011516D01*
X006800Y011674D02*
X007295Y011674D01*
X007251Y011833D02*
X006800Y011833D01*
X006800Y011991D02*
X007251Y011991D01*
X007251Y012150D02*
X006800Y012150D01*
X006403Y012415D02*
X007511Y012415D01*
X008055Y012467D02*
X008251Y012467D01*
X008251Y012308D02*
X008055Y012308D01*
X008055Y012150D02*
X008251Y012150D01*
X008251Y011991D02*
X008055Y011991D01*
X008055Y011833D02*
X008251Y011833D01*
X008295Y011674D02*
X008011Y011674D01*
X007074Y011199D02*
X009232Y011199D01*
X009074Y011040D02*
X007232Y011040D01*
X007371Y010882D02*
X008935Y010882D01*
X008913Y010723D02*
X007393Y010723D01*
X007393Y010565D02*
X008913Y010565D01*
X008913Y010406D02*
X007393Y010406D01*
X006913Y010406D02*
X006800Y010406D01*
X006800Y010565D02*
X006913Y010565D01*
X006871Y010723D02*
X006779Y010723D01*
X006403Y011015D02*
X006403Y011745D01*
X006006Y011674D02*
X000833Y011674D01*
X000833Y011516D02*
X006006Y011516D01*
X006077Y011357D02*
X000833Y011357D01*
X001322Y010899D02*
X001318Y009930D01*
X000942Y009931D02*
X000833Y009931D01*
X000833Y010089D02*
X000942Y010089D01*
X000968Y010248D02*
X000833Y010248D01*
X000833Y010406D02*
X001060Y010406D01*
X001322Y010899D02*
X004905Y010899D01*
X005498Y010882D02*
X006006Y010882D01*
X006006Y011040D02*
X005498Y011040D01*
X005498Y011199D02*
X006006Y011199D01*
X006729Y011357D02*
X009577Y011357D01*
X010229Y011357D02*
X011023Y011357D01*
X011023Y011199D02*
X010300Y011199D01*
X010300Y011040D02*
X011023Y011040D01*
X011023Y010882D02*
X010300Y010882D01*
X010279Y010723D02*
X011023Y010723D01*
X011023Y010565D02*
X010300Y010565D01*
X010300Y010406D02*
X013402Y010406D01*
X013560Y010248D02*
X010300Y010248D01*
X010300Y010089D02*
X013719Y010089D01*
X013823Y009931D02*
X010200Y009931D01*
X010231Y009772D02*
X013823Y009772D01*
X013823Y009614D02*
X010194Y009614D01*
X010306Y009455D02*
X010953Y009455D01*
X010794Y009297D02*
X010325Y009297D01*
X010325Y009138D02*
X010636Y009138D01*
X010477Y008980D02*
X010325Y008980D01*
X010319Y008821D02*
X010270Y008821D01*
X008684Y008821D02*
X008622Y008821D01*
X008622Y008856D02*
X008622Y008227D01*
X008407Y008227D01*
X008361Y008239D01*
X008320Y008263D01*
X008287Y008296D01*
X008263Y008337D01*
X008251Y008383D01*
X008251Y008856D01*
X008622Y008856D01*
X008622Y008918D02*
X008251Y008918D01*
X008251Y009391D01*
X008263Y009437D01*
X008287Y009478D01*
X008320Y009511D01*
X008361Y009535D01*
X008407Y009547D01*
X008622Y009547D01*
X008622Y008918D01*
X008622Y008980D02*
X008684Y008980D01*
X008684Y009138D02*
X008622Y009138D01*
X008251Y009138D02*
X008055Y009138D01*
X008055Y008980D02*
X008251Y008980D01*
X008251Y008821D02*
X008055Y008821D01*
X008055Y008663D02*
X008251Y008663D01*
X008251Y008504D02*
X008055Y008504D01*
X008045Y008346D02*
X008261Y008346D01*
X008622Y008346D02*
X008684Y008346D01*
X008684Y008504D02*
X008622Y008504D01*
X008622Y008663D02*
X008684Y008663D01*
X008621Y008187D02*
X007393Y008187D01*
X007622Y008346D02*
X007684Y008346D01*
X007684Y008504D02*
X007622Y008504D01*
X007622Y008663D02*
X007684Y008663D01*
X007684Y008821D02*
X007622Y008821D01*
X007622Y008980D02*
X007684Y008980D01*
X007684Y009138D02*
X007622Y009138D01*
X007622Y009297D02*
X007684Y009297D01*
X007684Y009455D02*
X007622Y009455D01*
X007393Y009614D02*
X008913Y009614D01*
X008913Y009772D02*
X007393Y009772D01*
X007393Y009931D02*
X008913Y009931D01*
X008913Y010089D02*
X007393Y010089D01*
X007393Y010248D02*
X008913Y010248D01*
X008684Y009455D02*
X008622Y009455D01*
X008622Y009297D02*
X008684Y009297D01*
X008251Y009297D02*
X008055Y009297D01*
X008033Y009455D02*
X008273Y009455D01*
X006913Y009455D02*
X006557Y009455D01*
X006694Y009614D02*
X006913Y009614D01*
X006913Y009772D02*
X006731Y009772D01*
X006700Y009931D02*
X006913Y009931D01*
X006913Y010089D02*
X006800Y010089D01*
X006800Y010248D02*
X006913Y010248D01*
X006006Y010248D02*
X005338Y010248D01*
X005384Y010089D02*
X006006Y010089D01*
X006006Y009931D02*
X005006Y009931D01*
X005006Y009912D02*
X005384Y009912D01*
X005384Y009709D01*
X005372Y009664D01*
X005348Y009623D01*
X005315Y009589D01*
X005274Y009565D01*
X005228Y009553D01*
X005006Y009553D01*
X005006Y009912D01*
X005006Y009772D02*
X004969Y009772D01*
X004969Y009614D02*
X005006Y009614D01*
X005339Y009614D02*
X006012Y009614D01*
X005975Y009772D02*
X005384Y009772D01*
X005006Y010089D02*
X004969Y010089D01*
X004969Y010248D02*
X005006Y010248D01*
X004561Y010406D02*
X006006Y010406D01*
X006006Y010565D02*
X005498Y010565D01*
X005498Y010723D02*
X006027Y010723D01*
X004312Y011199D02*
X001916Y011199D01*
X000833Y011833D02*
X006006Y011833D01*
X006006Y011991D02*
X000833Y011991D01*
X000833Y012150D02*
X006006Y012150D01*
X006006Y012308D02*
X005476Y012308D01*
X005498Y012467D02*
X006006Y012467D01*
X006006Y012625D02*
X004963Y012625D01*
X004847Y012625D02*
X001380Y012625D01*
X001380Y012467D02*
X001265Y012467D01*
X001265Y012308D02*
X001380Y012308D01*
X001893Y012308D02*
X004334Y012308D01*
X004324Y012326D02*
X004348Y012285D01*
X004381Y012252D01*
X004422Y012228D01*
X004468Y012216D01*
X004847Y012216D01*
X004847Y012613D01*
X004312Y012613D01*
X004312Y012372D01*
X004324Y012326D01*
X004312Y012467D02*
X001916Y012467D01*
X001916Y012784D02*
X004312Y012784D01*
X004312Y012942D02*
X001916Y012942D01*
X004847Y012467D02*
X004963Y012467D01*
X004963Y012308D02*
X004847Y012308D01*
X005498Y012784D02*
X006104Y012784D01*
X006702Y012784D02*
X007251Y012784D01*
X008055Y012784D02*
X008251Y012784D01*
X008251Y012625D02*
X008055Y012625D01*
X009055Y012784D02*
X009604Y012784D01*
X010202Y012784D02*
X012763Y012784D01*
X012672Y012625D02*
X010300Y012625D01*
X010300Y011516D02*
X011104Y011516D01*
X012253Y010980D02*
X012553Y010980D01*
X013738Y012165D01*
X013738Y012430D01*
X014134Y012467D02*
X014172Y012467D01*
X014172Y012308D02*
X014134Y012308D01*
X014125Y012150D02*
X014181Y012150D01*
X014374Y011991D02*
X013932Y011991D01*
X013773Y011833D02*
X014533Y011833D01*
X014691Y011674D02*
X013615Y011674D01*
X013456Y011516D02*
X014850Y011516D01*
X014823Y011357D02*
X013483Y011357D01*
X013483Y011199D02*
X014823Y011199D01*
X014823Y011040D02*
X013483Y011040D01*
X013577Y010882D02*
X014729Y010882D01*
X014571Y010723D02*
X013735Y010723D01*
X013894Y010565D02*
X014412Y010565D01*
X014254Y010406D02*
X014052Y010406D01*
X014587Y010089D02*
X016989Y010089D01*
X016975Y009931D02*
X014483Y009931D01*
X014486Y009772D02*
X017030Y009772D01*
X017051Y009614D02*
X014645Y009614D01*
X014011Y009297D02*
X013962Y009297D01*
X013853Y009455D02*
X013803Y009455D01*
X014120Y009138D02*
X014170Y009138D01*
X014279Y008980D02*
X014328Y008980D01*
X014437Y008821D02*
X015287Y008821D01*
X015275Y008704D02*
X015275Y008329D01*
X015275Y008704D01*
X015275Y008663D02*
X015275Y008663D01*
X015275Y008504D02*
X015275Y008504D01*
X015275Y008346D02*
X015275Y008346D01*
X015275Y008329D02*
X015275Y008329D01*
X015275Y008329D01*
X015275Y007954D01*
X015249Y007954D01*
X015249Y007408D01*
X015267Y007401D01*
X015374Y007294D01*
X015431Y007155D01*
X015431Y007005D01*
X015374Y006866D01*
X015267Y006759D01*
X015148Y006710D01*
X015203Y006655D01*
X015542Y006995D01*
X017376Y006995D01*
X017376Y007056D01*
X017482Y007161D01*
X017487Y007161D01*
X017446Y007185D01*
X017412Y007218D01*
X017388Y007259D01*
X017376Y007305D01*
X017376Y007413D01*
X017114Y007150D01*
X015958Y007150D01*
X015823Y007285D01*
X015436Y007672D01*
X015436Y007672D01*
X015301Y007807D01*
X015301Y007954D01*
X015275Y007954D01*
X015275Y008329D01*
X015275Y008187D02*
X015275Y008187D01*
X015275Y008029D02*
X015275Y008029D01*
X015249Y007870D02*
X015301Y007870D01*
X015249Y007712D02*
X015396Y007712D01*
X015249Y007553D02*
X015555Y007553D01*
X015713Y007395D02*
X015274Y007395D01*
X015398Y007236D02*
X015872Y007236D01*
X015431Y007078D02*
X017398Y007078D01*
X017388Y007180D02*
X017153Y007180D01*
X017200Y007236D02*
X017402Y007236D01*
X017388Y007180D02*
X017753Y007545D01*
X017771Y007553D02*
X018245Y007553D01*
X018175Y007712D02*
X018130Y007712D01*
X018095Y007870D02*
X018095Y007870D01*
X018118Y008215D02*
X018553Y007780D01*
X018840Y008029D02*
X020128Y008029D01*
X020128Y007870D02*
X018925Y007870D01*
X018931Y007712D02*
X020128Y007712D01*
X020128Y007553D02*
X018861Y007553D01*
X018791Y007078D02*
X021468Y007078D01*
X021463Y007064D02*
X021498Y007149D01*
X021576Y007228D01*
X021175Y007228D01*
X021069Y007333D01*
X021069Y007516D01*
X020973Y007420D01*
X020233Y007420D01*
X020128Y007526D01*
X020128Y008186D01*
X020171Y008230D01*
X020128Y008274D01*
X020128Y008934D01*
X020233Y009040D01*
X020973Y009040D01*
X021078Y008934D01*
X021078Y008722D01*
X021207Y008594D01*
X021207Y009409D01*
X021312Y009514D01*
X021453Y009514D01*
X021453Y010040D01*
X021499Y010150D01*
X021583Y010234D01*
X021583Y010234D01*
X022399Y011050D01*
X022399Y011050D01*
X022483Y011134D01*
X022593Y011180D01*
X024113Y011180D01*
X024223Y011134D01*
X024307Y011050D01*
X024545Y010812D01*
X024569Y010754D01*
X024641Y010754D01*
X024746Y010648D01*
X024746Y009712D01*
X024641Y009606D01*
X024443Y009606D01*
X024350Y009568D01*
X024231Y009568D01*
X024138Y009606D01*
X024098Y009606D01*
X023993Y009712D01*
X023993Y009804D01*
X023991Y009808D01*
X023991Y010518D01*
X023959Y010550D01*
X023959Y010198D01*
X023601Y010198D01*
X023601Y010162D01*
X023959Y010162D01*
X023959Y009763D01*
X023947Y009717D01*
X023923Y009676D01*
X023890Y009642D01*
X023848Y009619D01*
X023803Y009606D01*
X023601Y009606D01*
X023601Y010162D01*
X023564Y010162D01*
X023205Y010162D01*
X023205Y009763D01*
X023218Y009717D01*
X023241Y009676D01*
X023275Y009642D01*
X023316Y009619D01*
X023362Y009606D01*
X023564Y009606D01*
X023564Y010162D01*
X023564Y010198D01*
X023205Y010198D01*
X023205Y010580D01*
X022777Y010580D01*
X022053Y009856D01*
X022053Y009514D01*
X022091Y009514D01*
X022197Y009409D01*
X022197Y008754D01*
X022309Y008641D01*
X022309Y008903D01*
X022727Y008903D01*
X022727Y009057D01*
X022309Y009057D01*
X022309Y009358D01*
X022322Y009404D01*
X022345Y009445D01*
X022379Y009478D01*
X022420Y009502D01*
X022466Y009514D01*
X022727Y009514D01*
X022727Y009057D01*
X022882Y009057D01*
X023299Y009057D01*
X023299Y009358D01*
X023287Y009404D01*
X023263Y009445D01*
X023230Y009478D01*
X023189Y009502D01*
X023143Y009514D01*
X022882Y009514D01*
X022882Y009057D01*
X022882Y008903D01*
X023299Y008903D01*
X023299Y008602D01*
X023287Y008556D01*
X023273Y008532D01*
X023281Y008532D01*
X023326Y008520D01*
X023367Y008496D01*
X023401Y008463D01*
X023425Y008422D01*
X023437Y008376D01*
X023437Y008287D01*
X023524Y008374D01*
X024382Y008374D01*
X024487Y008268D01*
X024487Y007489D01*
X024382Y007384D01*
X024031Y007384D01*
X023607Y006960D01*
X023607Y006960D01*
X023523Y006876D01*
X023413Y006830D01*
X023349Y006830D01*
X023349Y006607D01*
X022932Y006607D01*
X022932Y006453D01*
X023349Y006453D01*
X023349Y006152D01*
X023337Y006106D01*
X023336Y006105D01*
X023462Y006105D01*
X023492Y006075D01*
X023490Y006079D01*
X023478Y006124D01*
X023478Y006356D01*
X023905Y006356D01*
X023905Y006452D01*
X023478Y006452D01*
X023478Y006684D01*
X023490Y006729D01*
X023514Y006770D01*
X023547Y006804D01*
X023588Y006828D01*
X023634Y006840D01*
X023905Y006840D01*
X023905Y006452D01*
X024001Y006452D01*
X024001Y006840D01*
X024272Y006840D01*
X024318Y006828D01*
X024359Y006804D01*
X024392Y006770D01*
X024416Y006729D01*
X024428Y006684D01*
X024428Y006452D01*
X024001Y006452D01*
X024001Y006356D01*
X024428Y006356D01*
X024428Y006124D01*
X024416Y006079D01*
X024392Y006038D01*
X024385Y006030D01*
X024428Y005986D01*
X024428Y005326D01*
X024323Y005220D01*
X023583Y005220D01*
X023555Y005248D01*
X023462Y005155D01*
X022722Y005155D01*
X022617Y005260D01*
X022617Y005996D01*
X022516Y005996D01*
X022470Y006008D01*
X022429Y006032D01*
X022395Y006065D01*
X022372Y006106D01*
X022359Y006152D01*
X022359Y006453D01*
X022777Y006453D01*
X022777Y006607D01*
X022359Y006607D01*
X022359Y006830D01*
X022247Y006830D01*
X022247Y006101D01*
X022167Y006022D01*
X022189Y006000D01*
X022189Y005260D01*
X022084Y005155D01*
X021344Y005155D01*
X021239Y005260D01*
X021239Y006000D01*
X021298Y006060D01*
X021257Y006101D01*
X021257Y006220D01*
X019928Y006220D01*
X019867Y006159D01*
X019728Y006102D01*
X019642Y006102D01*
X018731Y005191D01*
X018731Y005105D01*
X018674Y004966D01*
X018567Y004859D01*
X018428Y004802D01*
X018278Y004802D01*
X018139Y004859D01*
X018032Y004966D01*
X017975Y005105D01*
X017975Y005255D01*
X018032Y005394D01*
X018139Y005501D01*
X018278Y005558D01*
X018364Y005558D01*
X019275Y006469D01*
X019275Y006555D01*
X019332Y006694D01*
X019439Y006801D01*
X019578Y006858D01*
X019728Y006858D01*
X019867Y006801D01*
X019928Y006740D01*
X021257Y006740D01*
X021257Y006959D01*
X021362Y007064D01*
X021463Y007064D01*
X021257Y006919D02*
X018905Y006919D01*
X018931Y006761D02*
X019398Y006761D01*
X019294Y006602D02*
X018889Y006602D01*
X018730Y006444D02*
X019249Y006444D01*
X019090Y006285D02*
X018130Y006285D01*
X018130Y006127D02*
X018932Y006127D01*
X018773Y005968D02*
X018130Y005968D01*
X017771Y005968D02*
X017735Y005968D01*
X017735Y006077D02*
X017735Y005699D01*
X017532Y005699D01*
X017487Y005711D01*
X017446Y005735D01*
X017412Y005768D01*
X017388Y005809D01*
X017376Y005855D01*
X017376Y006077D01*
X017735Y006077D01*
X017376Y006127D02*
X017306Y006127D01*
X017306Y006285D02*
X017376Y006285D01*
X017406Y006444D02*
X015642Y006444D01*
X015308Y006761D02*
X015269Y006761D01*
X015396Y006919D02*
X015467Y006919D01*
X015531Y006031D02*
X015531Y006031D01*
X015531Y005656D01*
X015557Y005656D01*
X015557Y002551D01*
X016123Y001985D01*
X016123Y001675D01*
X016120Y001674D01*
X015979Y001533D01*
X015903Y001349D01*
X015827Y001533D01*
X015686Y001674D01*
X015502Y001750D01*
X015304Y001750D01*
X015120Y001674D01*
X014979Y001533D01*
X014903Y001349D01*
X014827Y001533D01*
X014686Y001674D01*
X014676Y001678D01*
X015249Y002251D01*
X015249Y005656D01*
X015410Y005656D01*
X015418Y005664D01*
X015447Y005656D01*
X015531Y005656D01*
X015531Y006031D01*
X015531Y005968D02*
X015531Y005968D01*
X015531Y005810D02*
X015531Y005810D01*
X015557Y005651D02*
X015249Y005651D01*
X015249Y005493D02*
X015557Y005493D01*
X015557Y005334D02*
X015249Y005334D01*
X015249Y005176D02*
X015557Y005176D01*
X015557Y005017D02*
X015249Y005017D01*
X015249Y004859D02*
X015557Y004859D01*
X015557Y004700D02*
X015249Y004700D01*
X015249Y004542D02*
X015557Y004542D01*
X015557Y004383D02*
X015249Y004383D01*
X015249Y004225D02*
X015557Y004225D01*
X015557Y004066D02*
X015249Y004066D01*
X015249Y003908D02*
X015557Y003908D01*
X015557Y003749D02*
X015249Y003749D01*
X015249Y003591D02*
X015557Y003591D01*
X015557Y003432D02*
X015249Y003432D01*
X015249Y003274D02*
X015557Y003274D01*
X015557Y003115D02*
X015249Y003115D01*
X015249Y002957D02*
X015557Y002957D01*
X015557Y002798D02*
X015249Y002798D01*
X015249Y002640D02*
X015557Y002640D01*
X015627Y002481D02*
X015249Y002481D01*
X015249Y002323D02*
X015785Y002323D01*
X015944Y002164D02*
X015162Y002164D01*
X015004Y002006D02*
X016102Y002006D01*
X016123Y001847D02*
X014845Y001847D01*
X014687Y001689D02*
X015155Y001689D01*
X014978Y001530D02*
X014828Y001530D01*
X014894Y001372D02*
X014912Y001372D01*
X014903Y001349D02*
X014903Y000511D01*
X014841Y000360D01*
X014965Y000360D01*
X014903Y000511D01*
X014903Y001349D01*
X014903Y001213D02*
X014903Y001213D01*
X014903Y001055D02*
X014903Y001055D01*
X014903Y000896D02*
X014903Y000896D01*
X014903Y000738D02*
X014903Y000738D01*
X014903Y000579D02*
X014903Y000579D01*
X014866Y000421D02*
X014940Y000421D01*
X015841Y000360D02*
X015903Y000511D01*
X015903Y001349D01*
X015903Y000511D01*
X015965Y000360D01*
X015841Y000360D01*
X015866Y000421D02*
X015940Y000421D01*
X015903Y000579D02*
X015903Y000579D01*
X015903Y000738D02*
X015903Y000738D01*
X015903Y000896D02*
X015903Y000896D01*
X015903Y001055D02*
X015903Y001055D01*
X015903Y001213D02*
X015903Y001213D01*
X015894Y001372D02*
X015912Y001372D01*
X015978Y001530D02*
X015828Y001530D01*
X015651Y001689D02*
X016123Y001689D01*
X017860Y002798D02*
X019178Y002798D01*
X019196Y002780D02*
X019610Y002780D01*
X019903Y003073D01*
X019903Y003487D01*
X019610Y003780D01*
X019196Y003780D01*
X018903Y003487D01*
X018903Y003073D01*
X019196Y002780D01*
X019019Y002957D02*
X017702Y002957D01*
X017543Y003115D02*
X018903Y003115D01*
X018903Y003274D02*
X017385Y003274D01*
X017296Y003432D02*
X018903Y003432D01*
X019006Y003591D02*
X017296Y003591D01*
X017296Y003749D02*
X019165Y003749D01*
X019641Y003749D02*
X020265Y003749D01*
X020296Y003780D02*
X020003Y003487D01*
X020003Y003073D01*
X020296Y002780D01*
X020710Y002780D01*
X021003Y003073D01*
X021003Y003487D01*
X020710Y003780D01*
X020296Y003780D01*
X020106Y003591D02*
X019800Y003591D01*
X019903Y003432D02*
X020003Y003432D01*
X020003Y003274D02*
X019903Y003274D01*
X019903Y003115D02*
X020003Y003115D01*
X020119Y002957D02*
X019787Y002957D01*
X019628Y002798D02*
X020278Y002798D01*
X020728Y002798D02*
X021378Y002798D01*
X021396Y002780D02*
X021583Y002780D01*
X021583Y003260D01*
X021103Y003260D01*
X021103Y003073D01*
X021396Y002780D01*
X021583Y002798D02*
X021623Y002798D01*
X021623Y002780D02*
X021810Y002780D01*
X022103Y003073D01*
X022103Y003260D01*
X021623Y003260D01*
X021623Y002780D01*
X021623Y002957D02*
X021583Y002957D01*
X021583Y003115D02*
X021623Y003115D01*
X021623Y003260D02*
X021583Y003260D01*
X021583Y003300D01*
X021103Y003300D01*
X021103Y003487D01*
X021396Y003780D01*
X021583Y003780D01*
X021583Y003300D01*
X021623Y003300D01*
X021623Y003780D01*
X021810Y003780D01*
X022103Y003487D01*
X022103Y003300D01*
X021623Y003300D01*
X021623Y003260D01*
X021623Y003274D02*
X022203Y003274D01*
X022203Y003432D02*
X022103Y003432D01*
X022000Y003591D02*
X022306Y003591D01*
X022465Y003749D02*
X021841Y003749D01*
X021623Y003749D02*
X021583Y003749D01*
X021365Y003749D02*
X020741Y003749D01*
X020900Y003591D02*
X021206Y003591D01*
X021103Y003432D02*
X021003Y003432D01*
X021003Y003274D02*
X021583Y003274D01*
X021583Y003432D02*
X021623Y003432D01*
X021623Y003591D02*
X021583Y003591D01*
X021103Y003115D02*
X021003Y003115D01*
X020887Y002957D02*
X021219Y002957D01*
X021828Y002798D02*
X022443Y002798D01*
X022443Y002640D02*
X022319Y002640D01*
X022703Y002530D02*
X022703Y003280D01*
X022203Y003115D02*
X022103Y003115D01*
X021987Y002957D02*
X022319Y002957D01*
X022963Y002798D02*
X027968Y002798D01*
X027968Y002640D02*
X026129Y002640D01*
X026221Y002481D02*
X027968Y002481D01*
X027968Y002323D02*
X026231Y002323D01*
X026172Y002164D02*
X027968Y002164D01*
X027968Y002006D02*
X026295Y002006D01*
X026273Y002027D02*
X026273Y002027D01*
X026454Y001847D02*
X027968Y001847D01*
X027968Y001689D02*
X027644Y001689D01*
X027665Y001678D02*
X027595Y001713D01*
X027520Y001738D01*
X027442Y001750D01*
X027423Y001750D01*
X027423Y000950D01*
X027903Y000950D01*
X027903Y001289D01*
X027891Y001367D01*
X027866Y001442D01*
X027831Y001512D01*
X027784Y001576D01*
X027729Y001631D01*
X027665Y001678D01*
X027818Y001530D02*
X027968Y001530D01*
X027968Y001372D02*
X027889Y001372D01*
X027903Y001213D02*
X027968Y001213D01*
X027968Y001055D02*
X027903Y001055D01*
X027903Y000896D02*
X027968Y000896D01*
X027968Y000738D02*
X027903Y000738D01*
X027903Y000579D02*
X027968Y000579D01*
X027968Y000421D02*
X027867Y000421D01*
X027383Y000950D02*
X026903Y000950D01*
X026903Y001289D01*
X026915Y001367D01*
X026940Y001442D01*
X026975Y001512D01*
X027022Y001576D01*
X027077Y001631D01*
X027141Y001678D01*
X027211Y001713D01*
X027286Y001738D01*
X027364Y001750D01*
X027383Y001750D01*
X027383Y000950D01*
X027383Y001055D02*
X027423Y001055D01*
X027423Y001213D02*
X027383Y001213D01*
X027383Y001372D02*
X027423Y001372D01*
X026917Y001372D02*
X026894Y001372D01*
X026903Y001213D02*
X026903Y001213D01*
X026903Y001055D02*
X026903Y001055D01*
X026903Y000896D02*
X026903Y000896D01*
X026903Y000738D02*
X026903Y000738D01*
X026903Y000579D02*
X026903Y000579D01*
X026866Y000421D02*
X026939Y000421D01*
X026403Y000930D02*
X026403Y001530D01*
X026053Y001880D01*
X023353Y001880D01*
X022703Y002530D01*
X022963Y002640D02*
X023677Y002640D01*
X023585Y002481D02*
X023120Y002481D01*
X023278Y002323D02*
X023575Y002323D01*
X023634Y002164D02*
X023437Y002164D01*
X024229Y002640D02*
X025577Y002640D01*
X025822Y002930D02*
X024984Y002930D01*
X024800Y003006D01*
X024659Y003147D01*
X024583Y003331D01*
X024583Y003529D01*
X024659Y003713D01*
X024800Y003854D01*
X024984Y003930D01*
X025822Y003930D01*
X026006Y004006D01*
X026147Y004147D01*
X026223Y004331D01*
X026223Y004529D01*
X026147Y004713D01*
X026006Y004854D01*
X025822Y004930D01*
X026006Y005006D01*
X026147Y005147D01*
X026223Y005331D01*
X026223Y005529D01*
X026147Y005713D01*
X026006Y005854D01*
X025822Y005930D01*
X024984Y005930D01*
X024800Y005854D01*
X024659Y005713D01*
X024583Y005529D01*
X024583Y005331D01*
X024659Y005147D01*
X024800Y005006D01*
X024984Y004930D01*
X025822Y004930D01*
X024984Y004930D01*
X024800Y004854D01*
X024659Y004713D01*
X024583Y004529D01*
X024583Y004331D01*
X024659Y004147D01*
X024800Y004006D01*
X024984Y003930D01*
X025822Y003930D01*
X026006Y003854D01*
X026147Y003713D01*
X026223Y003529D01*
X026223Y003331D01*
X026147Y003147D01*
X026006Y003006D01*
X025822Y002930D01*
X025887Y002957D02*
X027968Y002957D01*
X027968Y003115D02*
X026115Y003115D01*
X026199Y003274D02*
X027968Y003274D01*
X027968Y003432D02*
X026223Y003432D01*
X026198Y003591D02*
X027968Y003591D01*
X027968Y003749D02*
X026111Y003749D01*
X025877Y003908D02*
X027968Y003908D01*
X027968Y004066D02*
X026066Y004066D01*
X026179Y004225D02*
X027968Y004225D01*
X027968Y004383D02*
X026223Y004383D01*
X026218Y004542D02*
X027968Y004542D01*
X027968Y004700D02*
X026152Y004700D01*
X025995Y004859D02*
X027968Y004859D01*
X027968Y005017D02*
X026017Y005017D01*
X026159Y005176D02*
X027968Y005176D01*
X027968Y005334D02*
X026223Y005334D01*
X026223Y005493D02*
X027968Y005493D01*
X027968Y005651D02*
X026173Y005651D01*
X026051Y005810D02*
X027968Y005810D01*
X027968Y005968D02*
X025914Y005968D01*
X025822Y005930D02*
X026006Y006006D01*
X026147Y006147D01*
X026157Y006170D01*
X026355Y006170D01*
X026450Y006210D01*
X026879Y006638D01*
X026952Y006711D01*
X026992Y006807D01*
X026992Y009606D01*
X027003Y009606D01*
X027109Y009712D01*
X027109Y010530D01*
X027178Y010502D01*
X027328Y010502D01*
X027467Y010559D01*
X027574Y010666D01*
X027631Y010805D01*
X027631Y010955D01*
X027574Y011094D01*
X027467Y011201D01*
X027328Y011258D01*
X027324Y011258D01*
X027356Y011272D01*
X027451Y011367D01*
X027502Y011491D01*
X027502Y011625D01*
X027451Y011749D01*
X027356Y011844D01*
X027232Y011895D01*
X027098Y011895D01*
X026974Y011844D01*
X026879Y011749D01*
X026827Y011625D01*
X026827Y011491D01*
X026879Y011367D01*
X026974Y011272D01*
X027092Y011223D01*
X027039Y011201D01*
X026978Y011140D01*
X026201Y011140D01*
X026106Y011100D01*
X026033Y011027D01*
X025759Y010754D01*
X025673Y010754D01*
X025568Y010648D01*
X025568Y009712D01*
X025673Y009606D01*
X026216Y009606D01*
X026321Y009712D01*
X026321Y010580D01*
X026355Y010614D01*
X026355Y009712D01*
X026460Y009606D01*
X026472Y009606D01*
X026472Y006966D01*
X026195Y006690D01*
X026157Y006690D01*
X026147Y006713D01*
X026006Y006854D01*
X025822Y006930D01*
X026006Y007006D01*
X026147Y007147D01*
X026223Y007331D01*
X026223Y007529D01*
X026147Y007713D01*
X026006Y007854D01*
X025822Y007930D01*
X024984Y007930D01*
X024800Y007854D01*
X024659Y007713D01*
X024583Y007529D01*
X024583Y007331D01*
X024659Y007147D01*
X024800Y007006D01*
X024984Y006930D01*
X025822Y006930D01*
X024984Y006930D01*
X024800Y006854D01*
X024659Y006713D01*
X024583Y006529D01*
X024583Y006331D01*
X024659Y006147D01*
X024800Y006006D01*
X024984Y005930D01*
X025822Y005930D01*
X026127Y006127D02*
X027968Y006127D01*
X027968Y006285D02*
X026526Y006285D01*
X026684Y006444D02*
X027968Y006444D01*
X027968Y006602D02*
X026843Y006602D01*
X026973Y006761D02*
X027968Y006761D01*
X027968Y006919D02*
X026992Y006919D01*
X026732Y006859D02*
X026732Y010180D01*
X027109Y010248D02*
X027968Y010248D01*
X027968Y010089D02*
X027109Y010089D01*
X027109Y009931D02*
X027968Y009931D01*
X027968Y009772D02*
X027109Y009772D01*
X027010Y009614D02*
X027968Y009614D01*
X027968Y009455D02*
X026992Y009455D01*
X026992Y009297D02*
X027968Y009297D01*
X027968Y009138D02*
X026992Y009138D01*
X026992Y008980D02*
X027968Y008980D01*
X027968Y008821D02*
X026992Y008821D01*
X026992Y008663D02*
X027968Y008663D01*
X027968Y008504D02*
X026992Y008504D01*
X026992Y008346D02*
X027968Y008346D01*
X027968Y008187D02*
X026992Y008187D01*
X026992Y008029D02*
X027968Y008029D01*
X027968Y007870D02*
X026992Y007870D01*
X026992Y007712D02*
X027968Y007712D01*
X027968Y007553D02*
X026992Y007553D01*
X026992Y007395D02*
X027968Y007395D01*
X027968Y007236D02*
X026992Y007236D01*
X026992Y007078D02*
X027968Y007078D01*
X026732Y006859D02*
X026303Y006430D01*
X025403Y006430D01*
X024706Y006761D02*
X024398Y006761D01*
X024428Y006602D02*
X024613Y006602D01*
X024583Y006444D02*
X024001Y006444D01*
X023905Y006444D02*
X023349Y006444D01*
X023349Y006285D02*
X023478Y006285D01*
X023478Y006127D02*
X023342Y006127D01*
X023478Y006602D02*
X022932Y006602D01*
X022777Y006602D02*
X022247Y006602D01*
X022247Y006444D02*
X022359Y006444D01*
X022359Y006285D02*
X022247Y006285D01*
X022247Y006127D02*
X022366Y006127D01*
X022189Y005968D02*
X022617Y005968D01*
X022617Y005810D02*
X022189Y005810D01*
X022189Y005651D02*
X022617Y005651D01*
X022617Y005493D02*
X022189Y005493D01*
X022189Y005334D02*
X022617Y005334D01*
X022701Y005176D02*
X022105Y005176D01*
X021323Y005176D02*
X018731Y005176D01*
X018695Y005017D02*
X024789Y005017D01*
X024811Y004859D02*
X018566Y004859D01*
X018353Y005180D02*
X019653Y006480D01*
X021702Y006480D01*
X021752Y006530D01*
X021753Y006531D01*
X021753Y005669D01*
X021714Y005630D01*
X021239Y005651D02*
X019192Y005651D01*
X019350Y005810D02*
X021239Y005810D01*
X021239Y005968D02*
X019509Y005968D01*
X019789Y006127D02*
X021257Y006127D01*
X021257Y006761D02*
X019908Y006761D01*
X021166Y007236D02*
X018104Y007236D01*
X018108Y007078D02*
X018315Y007078D01*
X018130Y007395D02*
X021069Y007395D01*
X021446Y007496D02*
X021446Y007752D01*
X022319Y007752D01*
X022575Y008008D01*
X023060Y008008D01*
X023060Y008264D02*
X023060Y008724D01*
X022804Y008980D01*
X022727Y008980D02*
X022197Y008980D01*
X022197Y009138D02*
X022309Y009138D01*
X022309Y009297D02*
X022197Y009297D01*
X022151Y009455D02*
X022355Y009455D01*
X022053Y009614D02*
X023335Y009614D01*
X023253Y009455D02*
X023514Y009455D01*
X023529Y009464D02*
X023488Y009440D01*
X023455Y009407D01*
X023431Y009366D01*
X023419Y009320D01*
X023419Y009059D01*
X023876Y009059D01*
X023876Y009476D01*
X023575Y009476D01*
X023529Y009464D01*
X023564Y009614D02*
X023601Y009614D01*
X023601Y009772D02*
X023564Y009772D01*
X023564Y009931D02*
X023601Y009931D01*
X023601Y010089D02*
X023564Y010089D01*
X023205Y010089D02*
X022286Y010089D01*
X022128Y009931D02*
X023205Y009931D01*
X023205Y009772D02*
X022053Y009772D01*
X021453Y009772D02*
X020252Y009772D01*
X020253Y009773D02*
X019960Y009480D01*
X019546Y009480D01*
X019253Y009773D01*
X019253Y010187D01*
X019546Y010480D01*
X019960Y010480D01*
X020253Y010187D01*
X020253Y009773D01*
X020253Y009931D02*
X021453Y009931D01*
X021473Y010089D02*
X020253Y010089D01*
X020193Y010248D02*
X021596Y010248D01*
X021755Y010406D02*
X020034Y010406D01*
X019472Y010406D02*
X018303Y010406D01*
X018303Y010565D02*
X021913Y010565D01*
X022072Y010723D02*
X018303Y010723D01*
X018303Y010882D02*
X022230Y010882D01*
X022389Y011040D02*
X018303Y011040D01*
X017783Y011040D02*
X017283Y011040D01*
X017283Y010882D02*
X017783Y010882D01*
X017783Y010723D02*
X017283Y010723D01*
X017283Y010565D02*
X017783Y010565D01*
X017783Y010406D02*
X014904Y010406D01*
X014746Y010248D02*
X017085Y010248D01*
X017621Y010248D02*
X017783Y010248D01*
X017734Y010089D02*
X017717Y010089D01*
X018043Y009730D02*
X018043Y011530D01*
X018310Y011530D01*
X017650Y011516D02*
X017202Y011516D01*
X017283Y011357D02*
X017650Y011357D01*
X017684Y011199D02*
X017283Y011199D01*
X017650Y011674D02*
X015427Y011674D01*
X015268Y011833D02*
X017655Y011833D01*
X018965Y011833D02*
X021054Y011833D01*
X021048Y011822D02*
X021036Y011776D01*
X021036Y011561D01*
X021665Y011561D01*
X021665Y011932D01*
X021192Y011932D01*
X021146Y011920D01*
X021105Y011896D01*
X021072Y011863D01*
X021048Y011822D01*
X021036Y011674D02*
X018970Y011674D01*
X018970Y011516D02*
X021665Y011516D01*
X021665Y011499D02*
X021665Y011561D01*
X021727Y011561D01*
X022356Y011561D01*
X022356Y011776D01*
X022344Y011822D01*
X022320Y011863D01*
X022287Y011896D01*
X022246Y011920D01*
X022200Y011932D01*
X021727Y011932D01*
X021727Y011561D01*
X021727Y011499D01*
X022356Y011499D01*
X022356Y011284D01*
X022344Y011238D01*
X022320Y011197D01*
X022287Y011164D01*
X022246Y011140D01*
X022200Y011128D01*
X021727Y011128D01*
X021727Y011499D01*
X021665Y011499D01*
X021665Y011128D01*
X021192Y011128D01*
X021146Y011140D01*
X021105Y011164D01*
X021072Y011197D01*
X021048Y011238D01*
X021036Y011284D01*
X021036Y011499D01*
X021665Y011499D01*
X021727Y011516D02*
X022812Y011516D01*
X022812Y011491D02*
X022812Y011625D01*
X022863Y011749D01*
X022958Y011844D01*
X023082Y011895D01*
X023216Y011895D01*
X023340Y011844D01*
X023435Y011749D01*
X023487Y011625D01*
X023487Y011491D01*
X023435Y011367D01*
X023340Y011272D01*
X023216Y011220D01*
X023082Y011220D01*
X022958Y011272D01*
X022863Y011367D01*
X022812Y011491D01*
X022873Y011357D02*
X022356Y011357D01*
X022321Y011199D02*
X027036Y011199D01*
X026888Y011357D02*
X023425Y011357D01*
X023487Y011516D02*
X026827Y011516D01*
X026848Y011674D02*
X023466Y011674D01*
X023352Y011833D02*
X026962Y011833D01*
X027368Y011833D02*
X027968Y011833D01*
X027968Y011991D02*
X015110Y011991D01*
X015256Y012053D02*
X015478Y012053D01*
X015524Y012065D01*
X015565Y012089D01*
X015598Y012123D01*
X015622Y012164D01*
X015634Y012209D01*
X015634Y012412D01*
X015256Y012412D01*
X015256Y012053D01*
X015256Y012150D02*
X015219Y012150D01*
X015219Y012308D02*
X015256Y012308D01*
X015256Y012467D02*
X015219Y012467D01*
X015219Y012625D02*
X015256Y012625D01*
X015256Y012784D02*
X015219Y012784D01*
X014933Y012784D02*
X014883Y012784D01*
X014254Y012784D02*
X014052Y012784D01*
X014134Y012625D02*
X014172Y012625D01*
X014568Y012430D02*
X014568Y012165D01*
X015753Y010980D01*
X016053Y010980D01*
X015614Y012150D02*
X027968Y012150D01*
X027968Y012308D02*
X015634Y012308D01*
X015634Y012467D02*
X027968Y012467D01*
X027968Y012625D02*
X015634Y012625D01*
X015543Y012784D02*
X027968Y012784D01*
X027968Y012942D02*
X005498Y012942D01*
X003018Y009930D02*
X001988Y009930D01*
X001316Y009455D02*
X000833Y009455D01*
X000833Y009297D02*
X001275Y009297D01*
X001302Y009138D02*
X000833Y009138D01*
X001265Y008980D02*
X001380Y008980D01*
X001380Y008821D02*
X001265Y008821D01*
X001380Y008663D02*
X004847Y008663D01*
X004847Y008613D02*
X004312Y008613D01*
X004312Y008372D01*
X004324Y008326D01*
X004348Y008285D01*
X004381Y008252D01*
X004422Y008228D01*
X004468Y008216D01*
X004847Y008216D01*
X004847Y008613D01*
X004847Y008504D02*
X004963Y008504D01*
X004963Y008346D02*
X004847Y008346D01*
X004963Y008663D02*
X006913Y008663D01*
X006913Y008821D02*
X005498Y008821D01*
X005938Y008980D02*
X006913Y008980D01*
X006913Y009138D02*
X006025Y009138D01*
X006031Y009297D02*
X006913Y009297D01*
X006149Y009455D02*
X005963Y009455D01*
X004606Y009138D02*
X003550Y009138D01*
X003556Y009144D02*
X003556Y009144D01*
X003709Y009297D02*
X004447Y009297D01*
X004289Y009455D02*
X003861Y009455D01*
X004314Y008980D02*
X001913Y008980D01*
X001916Y008821D02*
X004312Y008821D01*
X004312Y008504D02*
X001916Y008504D01*
X001909Y008346D02*
X004319Y008346D01*
X005491Y008346D02*
X006913Y008346D01*
X006913Y008504D02*
X005498Y008504D01*
X005863Y008029D02*
X000833Y008029D01*
X000833Y007870D02*
X005863Y007870D01*
X005863Y007712D02*
X000833Y007712D01*
X000833Y007553D02*
X005863Y007553D01*
X005863Y007395D02*
X000833Y007395D01*
X001322Y006899D02*
X001318Y005930D01*
X001322Y006899D02*
X004905Y006899D01*
X005498Y006919D02*
X005863Y006919D01*
X005863Y006761D02*
X005498Y006761D01*
X005498Y006602D02*
X005866Y006602D01*
X005863Y006444D02*
X004529Y006444D01*
X004631Y006285D02*
X004685Y006285D01*
X004969Y006285D02*
X005006Y006285D01*
X005006Y006127D02*
X004969Y006127D01*
X004969Y005968D02*
X005006Y005968D01*
X005384Y005968D02*
X005702Y005968D01*
X005863Y006127D02*
X005384Y006127D01*
X005290Y006285D02*
X005863Y006285D01*
X005543Y005810D02*
X005384Y005810D01*
X005385Y005651D02*
X005365Y005651D01*
X005498Y007078D02*
X005886Y007078D01*
X005863Y007236D02*
X005498Y007236D01*
X004312Y007236D02*
X001916Y007236D01*
X000833Y008187D02*
X006821Y008187D01*
X007341Y008029D02*
X008462Y008029D01*
X008304Y007870D02*
X007182Y007870D01*
X007024Y007712D02*
X008145Y007712D01*
X007441Y007078D02*
X009656Y007078D01*
X015583Y009475D02*
X016112Y008946D01*
X016132Y008994D01*
X016239Y009101D01*
X016378Y009158D01*
X016528Y009158D01*
X016667Y009101D01*
X016774Y008994D01*
X016831Y008855D01*
X016831Y008705D01*
X016831Y008704D01*
X016951Y008704D01*
X016975Y008727D01*
X016975Y008855D01*
X017032Y008994D01*
X017118Y009080D01*
X017032Y009166D01*
X016975Y009305D01*
X016975Y009455D01*
X016978Y009297D02*
X015762Y009297D01*
X015920Y009138D02*
X016329Y009138D01*
X016578Y009138D02*
X017060Y009138D01*
X017026Y008980D02*
X016780Y008980D01*
X016831Y008821D02*
X016975Y008821D01*
X016126Y008980D02*
X016079Y008980D01*
X017753Y008215D02*
X017753Y008149D01*
X017788Y008115D01*
X017753Y008080D01*
X017753Y008215D02*
X018118Y008215D01*
X018514Y008187D02*
X020128Y008187D01*
X020128Y008346D02*
X018643Y008346D01*
X019030Y008504D02*
X020128Y008504D01*
X020128Y008663D02*
X019065Y008663D01*
X019065Y008821D02*
X020128Y008821D01*
X020173Y008980D02*
X019065Y008980D01*
X019048Y009138D02*
X021207Y009138D01*
X021207Y008980D02*
X021033Y008980D01*
X021078Y008821D02*
X021207Y008821D01*
X021207Y008663D02*
X021138Y008663D01*
X020853Y008580D02*
X020627Y008580D01*
X020603Y008604D01*
X020527Y008580D01*
X020603Y008604D02*
X020404Y008605D01*
X020853Y008580D02*
X021169Y008264D01*
X021446Y008264D01*
X021446Y008008D02*
X021081Y008008D01*
X020853Y007780D01*
X020679Y007780D01*
X020603Y007856D01*
X020579Y007780D01*
X020603Y007856D02*
X020404Y007855D01*
X022288Y008663D02*
X022309Y008663D01*
X022309Y008821D02*
X022197Y008821D01*
X021852Y008731D02*
X022575Y008008D01*
X023060Y007752D02*
X023826Y007752D01*
X023953Y007879D01*
X023953Y007730D01*
X024053Y007830D02*
X023953Y007879D01*
X024487Y007870D02*
X024839Y007870D01*
X024891Y007967D02*
X024966Y007942D01*
X025044Y007930D01*
X025383Y007930D01*
X025383Y008410D01*
X024583Y008410D01*
X024583Y008391D01*
X024595Y008313D01*
X024620Y008238D01*
X024655Y008168D01*
X024702Y008104D01*
X024757Y008049D01*
X024821Y008002D01*
X024891Y007967D01*
X024785Y008029D02*
X024487Y008029D01*
X024487Y008187D02*
X024646Y008187D01*
X024590Y008346D02*
X024410Y008346D01*
X024377Y008498D02*
X024418Y008522D01*
X024451Y008556D01*
X024475Y008597D01*
X024487Y008643D01*
X024487Y008904D01*
X024031Y008904D01*
X024031Y009059D01*
X024487Y009059D01*
X024487Y009320D01*
X024475Y009366D01*
X024451Y009407D01*
X024418Y009440D01*
X024377Y009464D01*
X024331Y009476D01*
X024031Y009476D01*
X024031Y009059D01*
X023876Y009059D01*
X023876Y008904D01*
X024031Y008904D01*
X024031Y008486D01*
X024331Y008486D01*
X024377Y008498D01*
X024386Y008504D02*
X024589Y008504D01*
X024583Y008469D02*
X024583Y008450D01*
X025383Y008450D01*
X025383Y008410D01*
X025423Y008410D01*
X025423Y007930D01*
X025762Y007930D01*
X025840Y007942D01*
X025915Y007967D01*
X025985Y008002D01*
X026049Y008049D01*
X026104Y008104D01*
X026151Y008168D01*
X026186Y008238D01*
X026211Y008313D01*
X026223Y008391D01*
X026223Y008410D01*
X025423Y008410D01*
X025423Y008450D01*
X025383Y008450D01*
X025383Y008930D01*
X025044Y008930D01*
X024966Y008918D01*
X024891Y008893D01*
X024821Y008858D01*
X024757Y008811D01*
X024702Y008756D01*
X024655Y008692D01*
X024620Y008622D01*
X024595Y008547D01*
X024583Y008469D01*
X024640Y008663D02*
X024487Y008663D01*
X024487Y008821D02*
X024771Y008821D01*
X024487Y009138D02*
X026472Y009138D01*
X026472Y008980D02*
X024031Y008980D01*
X023876Y008980D02*
X022882Y008980D01*
X022882Y009138D02*
X022727Y009138D01*
X023299Y009138D02*
X023419Y009138D01*
X023419Y008904D02*
X023419Y008643D01*
X023431Y008597D01*
X023455Y008556D01*
X023488Y008522D01*
X023529Y008498D01*
X023575Y008486D01*
X023876Y008486D01*
X023876Y008904D01*
X023419Y008904D01*
X023419Y008821D02*
X023299Y008821D01*
X023299Y008663D02*
X023419Y008663D01*
X023354Y008504D02*
X023520Y008504D01*
X023496Y008346D02*
X023437Y008346D01*
X023876Y008504D02*
X024031Y008504D01*
X024031Y008663D02*
X023876Y008663D01*
X023876Y008821D02*
X024031Y008821D01*
X024031Y009138D02*
X023876Y009138D01*
X023876Y009297D02*
X024031Y009297D01*
X024031Y009455D02*
X023876Y009455D01*
X023830Y009614D02*
X024091Y009614D01*
X023993Y009772D02*
X023959Y009772D01*
X023959Y009931D02*
X023991Y009931D01*
X023991Y010089D02*
X023959Y010089D01*
X023959Y010248D02*
X023991Y010248D01*
X024370Y010180D02*
X024291Y009868D01*
X024746Y009931D02*
X025568Y009931D01*
X025568Y010089D02*
X024746Y010089D01*
X024746Y010248D02*
X025568Y010248D01*
X025944Y010180D02*
X025866Y010493D01*
X026253Y010880D01*
X027253Y010880D01*
X027631Y010882D02*
X027968Y010882D01*
X027968Y011040D02*
X027596Y011040D01*
X027470Y011199D02*
X027968Y011199D01*
X027968Y011357D02*
X027441Y011357D01*
X027502Y011516D02*
X027968Y011516D01*
X027968Y011674D02*
X027482Y011674D01*
X026045Y011040D02*
X024317Y011040D01*
X024476Y010882D02*
X025887Y010882D01*
X025642Y010723D02*
X024672Y010723D01*
X024746Y010565D02*
X025568Y010565D01*
X025568Y010406D02*
X024746Y010406D01*
X023991Y010406D02*
X023959Y010406D01*
X023205Y010406D02*
X022603Y010406D01*
X022762Y010565D02*
X023205Y010565D01*
X023205Y010248D02*
X022445Y010248D01*
X021453Y009614D02*
X020094Y009614D01*
X019412Y009614D02*
X019090Y009614D01*
X019090Y009772D02*
X019254Y009772D01*
X019253Y009931D02*
X019090Y009931D01*
X019022Y010089D02*
X019253Y010089D01*
X019313Y010248D02*
X018303Y010248D01*
X018352Y010089D02*
X018404Y010089D01*
X019090Y009455D02*
X021253Y009455D01*
X021207Y009297D02*
X018928Y009297D01*
X021702Y008980D02*
X021702Y008731D01*
X021852Y008731D01*
X022727Y009297D02*
X022882Y009297D01*
X022882Y009455D02*
X022727Y009455D01*
X023299Y009297D02*
X023419Y009297D01*
X024392Y009455D02*
X026472Y009455D01*
X026472Y009297D02*
X024487Y009297D01*
X024648Y009614D02*
X025666Y009614D01*
X025568Y009772D02*
X024746Y009772D01*
X026223Y009614D02*
X026453Y009614D01*
X026355Y009772D02*
X026321Y009772D01*
X026321Y009931D02*
X026355Y009931D01*
X026355Y010089D02*
X026321Y010089D01*
X026321Y010248D02*
X026355Y010248D01*
X026355Y010406D02*
X026321Y010406D01*
X026321Y010565D02*
X026355Y010565D01*
X027109Y010406D02*
X027968Y010406D01*
X027968Y010565D02*
X027473Y010565D01*
X027598Y010723D02*
X027968Y010723D01*
X025985Y008858D02*
X025915Y008893D01*
X025840Y008918D01*
X025762Y008930D01*
X025423Y008930D01*
X025423Y008450D01*
X026223Y008450D01*
X026223Y008469D01*
X026211Y008547D01*
X026186Y008622D01*
X026151Y008692D01*
X026104Y008756D01*
X026049Y008811D01*
X025985Y008858D01*
X026035Y008821D02*
X026472Y008821D01*
X026472Y008663D02*
X026166Y008663D01*
X026218Y008504D02*
X026472Y008504D01*
X026472Y008346D02*
X026216Y008346D01*
X026160Y008187D02*
X026472Y008187D01*
X026472Y008029D02*
X026021Y008029D01*
X025967Y007870D02*
X026472Y007870D01*
X026472Y007712D02*
X026148Y007712D01*
X026213Y007553D02*
X026472Y007553D01*
X026472Y007395D02*
X026223Y007395D01*
X026184Y007236D02*
X026472Y007236D01*
X026472Y007078D02*
X026078Y007078D01*
X025849Y006919D02*
X026424Y006919D01*
X026266Y006761D02*
X026100Y006761D01*
X024957Y006919D02*
X023566Y006919D01*
X023508Y006761D02*
X023349Y006761D01*
X023905Y006761D02*
X024001Y006761D01*
X024001Y006602D02*
X023905Y006602D01*
X024428Y006285D02*
X024602Y006285D01*
X024679Y006127D02*
X024428Y006127D01*
X024428Y005968D02*
X024892Y005968D01*
X024755Y005810D02*
X024428Y005810D01*
X024428Y005651D02*
X024633Y005651D01*
X024583Y005493D02*
X024428Y005493D01*
X024428Y005334D02*
X024583Y005334D01*
X024647Y005176D02*
X023483Y005176D01*
X023092Y005630D02*
X023927Y005630D01*
X023953Y005656D01*
X024654Y004700D02*
X017296Y004700D01*
X017296Y004542D02*
X024588Y004542D01*
X024583Y004383D02*
X017296Y004383D01*
X017296Y004225D02*
X024627Y004225D01*
X024740Y004066D02*
X017296Y004066D01*
X017296Y003908D02*
X024929Y003908D01*
X024695Y003749D02*
X022941Y003749D01*
X023100Y003591D02*
X024608Y003591D01*
X024583Y003432D02*
X023203Y003432D01*
X023203Y003274D02*
X024607Y003274D01*
X024691Y003115D02*
X023203Y003115D01*
X023087Y002957D02*
X024920Y002957D01*
X026550Y001750D02*
X026550Y001750D01*
X026651Y001689D02*
X027162Y001689D01*
X027383Y001689D02*
X027423Y001689D01*
X027423Y001530D02*
X027383Y001530D01*
X026988Y001530D02*
X026828Y001530D01*
X021239Y005334D02*
X018875Y005334D01*
X019033Y005493D02*
X021239Y005493D01*
X022247Y006761D02*
X022359Y006761D01*
X023725Y007078D02*
X024728Y007078D01*
X024622Y007236D02*
X023883Y007236D01*
X024393Y007395D02*
X024583Y007395D01*
X024593Y007553D02*
X024487Y007553D01*
X024487Y007712D02*
X024658Y007712D01*
X025383Y008029D02*
X025423Y008029D01*
X025423Y008187D02*
X025383Y008187D01*
X025383Y008346D02*
X025423Y008346D01*
X025423Y008504D02*
X025383Y008504D01*
X025383Y008663D02*
X025423Y008663D01*
X025423Y008821D02*
X025383Y008821D01*
X021727Y011199D02*
X021665Y011199D01*
X021665Y011357D02*
X021727Y011357D01*
X021071Y011199D02*
X018936Y011199D01*
X018970Y011357D02*
X021036Y011357D01*
X021665Y011674D02*
X021727Y011674D01*
X021727Y011833D02*
X021665Y011833D01*
X022338Y011833D02*
X022946Y011833D01*
X022832Y011674D02*
X022356Y011674D01*
X013423Y012784D02*
X013374Y012784D01*
X013087Y012784D02*
X013050Y012784D01*
X013050Y012625D02*
X013087Y012625D01*
X012253Y010980D02*
X012453Y010880D01*
X017358Y007395D02*
X017376Y007395D01*
X017768Y006780D02*
X018553Y006780D01*
X018376Y006444D02*
X018100Y006444D01*
X017753Y006765D02*
X017768Y006780D01*
X017376Y005968D02*
X017306Y005968D01*
X017306Y005810D02*
X017388Y005810D01*
X017296Y005651D02*
X018456Y005651D01*
X018615Y005810D02*
X018118Y005810D01*
X017771Y005810D02*
X017735Y005810D01*
X018130Y005493D02*
X017296Y005493D01*
X017296Y005334D02*
X018007Y005334D01*
X017975Y005176D02*
X017296Y005176D01*
X017296Y005017D02*
X018011Y005017D01*
X018140Y004859D02*
X017296Y004859D01*
X001380Y008346D02*
X001265Y008346D01*
X001265Y008504D02*
X001380Y008504D01*
X000967Y009614D02*
X000833Y009614D01*
X000833Y009772D02*
X000942Y009772D01*
D27*
X001653Y009280D03*
X005653Y009230D03*
X006353Y009780D03*
X009853Y009780D03*
X013453Y008880D03*
X013053Y007580D03*
X013053Y006980D03*
X013053Y006480D03*
X013403Y006080D03*
X012153Y005180D03*
X013953Y004480D03*
X013953Y003880D03*
X013953Y003280D03*
X011403Y002980D03*
X010353Y002980D03*
X009703Y002680D03*
X009153Y002380D03*
X006653Y003180D03*
X009153Y004180D03*
X009353Y004780D03*
X009353Y005580D03*
X009353Y006380D03*
X007153Y006180D03*
X007153Y006830D03*
X002503Y005930D03*
X001653Y005280D03*
X005253Y001180D03*
X015053Y007080D03*
X014703Y007430D03*
X016353Y007780D03*
X016853Y007780D03*
X018553Y007780D03*
X017353Y008780D03*
X016453Y008780D03*
X017353Y009380D03*
X017353Y009980D03*
X018553Y006780D03*
X019653Y006480D03*
X019953Y005980D03*
X018353Y005180D03*
X023953Y002380D03*
X025853Y002380D03*
X021903Y002130D03*
X027253Y010880D03*
X026453Y011680D03*
D28*
X018713Y009730D02*
X018688Y009605D01*
X018688Y008830D01*
X018653Y008695D01*
X018172Y008215D01*
X018118Y008215D01*
X018018Y008830D02*
X017903Y008830D01*
X017353Y009380D01*
X017603Y009730D02*
X018043Y009730D01*
X017603Y009730D02*
X017353Y009980D01*
X014251Y008329D02*
X014251Y008178D01*
X010038Y007830D02*
X009503Y007830D01*
X009988Y007380D02*
X010038Y007330D01*
X009153Y008380D02*
X008103Y007330D01*
X006268Y007330D01*
X006268Y006830D02*
X007153Y006830D01*
X007003Y006330D02*
X006268Y006330D01*
X006268Y005830D02*
X006218Y005780D01*
X005853Y005780D01*
X005453Y005380D01*
X003853Y005380D01*
X003553Y005080D01*
X002153Y005080D01*
X001653Y004580D01*
X001653Y004304D01*
X002653Y004304D02*
X002653Y004480D01*
X003053Y004880D01*
X003753Y004880D01*
X004003Y005130D01*
X005653Y005130D01*
X005853Y005330D01*
X006268Y005330D01*
X006218Y005280D01*
X006218Y004880D02*
X006268Y004830D01*
X006218Y004880D02*
X004053Y004880D01*
X003653Y004480D01*
X003653Y004304D01*
X004653Y004304D02*
X006242Y004304D01*
X006268Y004330D01*
X003653Y005580D02*
X003653Y005895D01*
X003688Y005930D01*
X003653Y005580D02*
X003353Y005280D01*
X001653Y005280D01*
X001403Y005280D01*
X001003Y004880D01*
X001003Y001430D01*
X001303Y001130D01*
X001542Y001130D01*
X001653Y001241D01*
X009353Y004780D02*
X009988Y004780D01*
X010038Y004830D01*
X010038Y005330D02*
X009703Y005330D01*
X009453Y005580D01*
X009353Y005580D01*
X007153Y006180D02*
X007003Y006330D01*
X004353Y006280D02*
X004353Y005965D01*
X004318Y005930D01*
X004353Y006280D02*
X004203Y006430D01*
X003103Y006430D01*
X002953Y006280D01*
X002953Y005995D01*
X003018Y005930D01*
X006268Y007830D02*
X006803Y007830D01*
X007153Y008180D01*
X007153Y010780D01*
X006918Y011015D01*
X006403Y011015D01*
X006403Y010345D02*
X006403Y009830D01*
X006353Y009780D01*
X005653Y009230D02*
X004853Y009230D01*
X004318Y009765D01*
X004318Y009930D01*
X004353Y009965D01*
X004353Y010280D01*
X004203Y010430D01*
X003103Y010430D01*
X002953Y010280D01*
X002953Y009995D01*
X003018Y009930D01*
X003653Y009895D02*
X003653Y009580D01*
X003353Y009280D01*
X001653Y009280D01*
X003653Y009895D02*
X003688Y009930D01*
X007511Y012415D02*
X007653Y012273D01*
X008653Y012273D02*
X008795Y012415D01*
X009388Y011015D02*
X009153Y010780D01*
X009153Y008380D01*
X009928Y008495D02*
X009943Y008480D01*
X009928Y009165D02*
X009928Y009705D01*
X009853Y009780D01*
X009903Y009830D01*
X009903Y010345D01*
X009903Y011015D02*
X009388Y011015D01*
D29*
X012453Y010880D02*
X012553Y010780D01*
X013353Y010780D01*
X014053Y010080D01*
X014053Y009580D01*
X014453Y009180D01*
X015253Y009180D01*
X015787Y008646D01*
X015787Y008329D01*
X016043Y008329D02*
X016043Y008690D01*
X015353Y009380D01*
X014553Y009380D01*
X014253Y009680D01*
X014253Y010080D01*
X014953Y010780D01*
X015853Y010780D01*
X016053Y010980D01*
X012653Y010680D02*
X012553Y010780D01*
X013653Y009280D02*
X011103Y009280D01*
X010353Y008530D01*
X010253Y008530D01*
X010553Y008230D01*
X010553Y007580D01*
X010353Y007380D01*
X009988Y007380D01*
X010603Y007030D02*
X010603Y004030D01*
X011068Y004030D01*
X011168Y004130D01*
X010753Y003830D02*
X010553Y004030D01*
X010603Y004030D01*
X010553Y004030D02*
X010353Y003830D01*
X010038Y003830D01*
X009553Y003580D02*
X010153Y002980D01*
X010353Y002980D01*
X011168Y003215D02*
X011403Y002980D01*
X011403Y000930D01*
X012403Y000930D02*
X012403Y004030D01*
X013753Y005380D01*
X013753Y006018D01*
X013740Y006031D01*
X013691Y006080D01*
X013403Y006080D01*
X013996Y006031D02*
X013996Y006337D01*
X013853Y006480D01*
X013053Y006480D01*
X013996Y006031D02*
X013996Y005223D01*
X013403Y004630D01*
X013403Y000930D01*
X014403Y000930D02*
X014403Y001730D01*
X015019Y002346D01*
X015019Y006031D01*
X015019Y006514D01*
X014553Y006980D01*
X013053Y006980D01*
X013053Y007580D02*
X014253Y007580D01*
X014507Y007834D01*
X014507Y008329D01*
X014763Y008329D02*
X014763Y007490D01*
X014703Y007430D01*
X015019Y007114D02*
X015053Y007080D01*
X015019Y007114D02*
X015019Y008329D01*
X015531Y008329D02*
X015531Y007902D01*
X016053Y007380D01*
X017018Y007380D01*
X017353Y007715D01*
X017353Y007980D01*
X017588Y008215D01*
X017753Y008215D01*
X017353Y008780D02*
X017066Y008493D01*
X017066Y008329D01*
X016811Y008329D02*
X016811Y007823D01*
X016853Y007780D01*
X016353Y007780D02*
X016299Y007834D01*
X016299Y008329D01*
X016555Y008329D02*
X016555Y008678D01*
X016453Y008780D01*
X018003Y008730D02*
X018018Y008830D01*
X018018Y008715D01*
X014251Y008682D02*
X014251Y008178D01*
X013996Y008073D02*
X013853Y007930D01*
X011503Y007930D01*
X010603Y007030D01*
X009953Y006330D02*
X009503Y006780D01*
X009153Y006780D01*
X008953Y006580D01*
X008953Y004380D01*
X009153Y004180D01*
X009553Y004080D02*
X009553Y003580D01*
X009553Y004080D02*
X009803Y004330D01*
X010038Y004330D01*
X010753Y003830D02*
X010753Y001680D01*
X010403Y001330D01*
X010403Y000930D01*
X011168Y003215D02*
X011168Y003480D01*
X011838Y003480D02*
X011838Y004130D01*
X011838Y004865D01*
X012153Y005180D01*
X013953Y004480D02*
X014251Y004778D01*
X014251Y006031D01*
X014507Y006031D02*
X014507Y004434D01*
X013953Y003880D01*
X013953Y003280D02*
X014763Y004090D01*
X014763Y006031D01*
X015275Y006031D02*
X015275Y006402D01*
X015638Y006765D01*
X017753Y006765D01*
X017253Y006480D02*
X017638Y006095D01*
X017753Y006095D01*
X017066Y006031D02*
X017066Y003267D01*
X017853Y002480D01*
X022153Y002480D01*
X023403Y001230D01*
X023403Y000930D01*
X021903Y002130D02*
X021403Y001630D01*
X021403Y000930D01*
X020403Y000930D02*
X020403Y001330D01*
X019453Y002280D01*
X017653Y002280D01*
X016811Y003123D01*
X016811Y006031D01*
X016555Y006031D02*
X016555Y002978D01*
X017453Y002080D01*
X018553Y002080D01*
X019403Y001230D01*
X019403Y000930D01*
X018403Y000930D02*
X018403Y001230D01*
X017753Y001880D01*
X017253Y001880D01*
X016299Y002834D01*
X016299Y006031D01*
X016043Y006031D02*
X016043Y002690D01*
X017403Y001330D01*
X017403Y000930D01*
X016403Y000930D02*
X016353Y000980D01*
X016353Y002080D01*
X015787Y002646D01*
X015787Y006031D01*
X015531Y006031D02*
X015531Y006358D01*
X015653Y006480D01*
X017253Y006480D01*
X013996Y008073D02*
X013996Y008329D01*
X013740Y008329D02*
X013740Y008593D01*
X013453Y008880D01*
X013653Y009280D02*
X014251Y008682D01*
X010253Y008530D02*
X009963Y008530D01*
X009928Y008495D01*
X009353Y006380D02*
X009903Y005830D01*
X010038Y005830D01*
X010038Y006330D02*
X009953Y006330D01*
X003018Y005930D02*
X002503Y005930D01*
X001988Y005930D01*
X023953Y002380D02*
X025853Y002380D01*
D30*
X021752Y006530D02*
X021752Y006979D01*
X021903Y007130D01*
X023353Y007130D01*
X023953Y007730D01*
X021753Y008981D02*
X021702Y008980D01*
X021753Y008981D02*
X021753Y009980D01*
X022653Y010880D01*
X024053Y010880D01*
X024291Y010642D01*
X024291Y009868D01*
M02*
