G75*
%MOIN*%
%OFA0B0*%
%FSLAX24Y24*%
%IPPOS*%
%LPD*%
%AMOC8*
5,1,8,0,0,1.08239X$1,22.5*
%
%ADD10R,0.0200X0.0470*%
%ADD11R,0.0300X0.0710*%
%ADD12R,0.2180X0.0840*%
%ADD13R,0.0592X0.0671*%
%ADD14R,0.0671X0.0592*%
%ADD15R,0.0552X0.0552*%
%ADD16C,0.0720*%
%ADD17R,0.0525X0.1041*%
%ADD18R,0.0710X0.0789*%
%ADD19R,0.0789X0.0710*%
%ADD20R,0.0651X0.0237*%
%ADD21R,0.0474X0.0867*%
%ADD22C,0.0395*%
%ADD23R,0.0907X0.0631*%
%ADD24R,0.0671X0.0316*%
%ADD25OC8,0.0720*%
%ADD26C,0.1340*%
%ADD27R,0.0867X0.1064*%
%ADD28R,0.0277X0.1379*%
%ADD29C,0.0434*%
D10*
X019881Y010331D03*
X020136Y010331D03*
X020392Y010331D03*
X020648Y010331D03*
X020904Y010331D03*
X021160Y010331D03*
X021416Y010331D03*
X021672Y010331D03*
X021928Y010331D03*
X022184Y010331D03*
X022440Y010331D03*
X022696Y010331D03*
X022951Y010331D03*
X023207Y010331D03*
X023207Y012629D03*
X022951Y012629D03*
X022696Y012629D03*
X022440Y012629D03*
X022184Y012629D03*
X021928Y012629D03*
X021672Y012629D03*
X021416Y012629D03*
X021160Y012629D03*
X020904Y012629D03*
X020648Y012629D03*
X020392Y012629D03*
X020136Y012629D03*
X019881Y012629D03*
D11*
X018789Y012490D03*
X018289Y012490D03*
X017789Y012490D03*
X017289Y012490D03*
X017289Y010470D03*
X017789Y010470D03*
X018289Y010470D03*
X018789Y010470D03*
D12*
X020139Y014780D03*
X023939Y014780D03*
D13*
X023213Y016230D03*
X022465Y016230D03*
X021613Y016230D03*
X020865Y016230D03*
X022465Y017680D03*
X023213Y017680D03*
X016713Y014580D03*
X015965Y014580D03*
X009813Y011480D03*
X009065Y011480D03*
X008213Y011480D03*
X007465Y011480D03*
X006613Y011480D03*
X005865Y011480D03*
X011765Y009180D03*
X012513Y009180D03*
X013565Y009180D03*
X014313Y009180D03*
X015165Y009180D03*
X015913Y009180D03*
X015913Y008380D03*
X015165Y008380D03*
X024165Y013280D03*
X024913Y013280D03*
X029665Y014330D03*
X030413Y014330D03*
X009713Y017630D03*
X008965Y017630D03*
X008965Y018430D03*
X009713Y018430D03*
X009713Y019230D03*
X008965Y019230D03*
D14*
X011189Y019254D03*
X011189Y018506D03*
X011189Y017654D03*
X011189Y016906D03*
X011189Y016054D03*
X011189Y015306D03*
X014939Y015306D03*
X014939Y016054D03*
X014939Y016906D03*
X014939Y017654D03*
X014939Y018506D03*
X014939Y019254D03*
X024139Y012354D03*
X024139Y011606D03*
X024139Y010754D03*
X024139Y010006D03*
X016339Y011106D03*
X016339Y011854D03*
X009239Y009654D03*
X009239Y008906D03*
X008239Y008906D03*
X008239Y009654D03*
X007239Y009654D03*
X006239Y009654D03*
X006239Y008906D03*
X007239Y008906D03*
X027289Y015456D03*
X027289Y016204D03*
D15*
X027552Y014380D03*
X026726Y014380D03*
X026726Y013680D03*
X027552Y013680D03*
X009239Y008044D03*
X008239Y008044D03*
X007239Y008044D03*
X006239Y008044D03*
X006239Y007217D03*
X007239Y007217D03*
X008239Y007217D03*
X009239Y007217D03*
D16*
X011739Y005100D02*
X011739Y004460D01*
X012739Y004460D02*
X012739Y005100D01*
X013739Y005100D02*
X013739Y004460D01*
X014739Y004460D02*
X014739Y005100D01*
X015739Y005100D02*
X015739Y004460D01*
X016739Y004460D02*
X016739Y005100D01*
X017739Y005100D02*
X017739Y004460D01*
X018739Y004460D02*
X018739Y005100D01*
X019739Y005100D02*
X019739Y004460D01*
X020739Y004460D02*
X020739Y005100D01*
X021739Y005100D02*
X021739Y004460D01*
X022739Y004460D02*
X022739Y005100D01*
X023739Y005100D02*
X023739Y004460D01*
X024739Y004460D02*
X024739Y005100D01*
X025739Y005100D02*
X025739Y004460D01*
X026739Y004460D02*
X026739Y005100D01*
X027739Y005100D02*
X027739Y004460D01*
X028739Y004460D02*
X028739Y005100D01*
X028969Y007030D02*
X029609Y007030D01*
X029609Y008030D02*
X028969Y008030D01*
X028969Y009030D02*
X029609Y009030D01*
X029609Y010030D02*
X028969Y010030D01*
X028969Y011030D02*
X029609Y011030D01*
X029609Y012030D02*
X028969Y012030D01*
X022439Y018560D02*
X022439Y019200D01*
X021439Y019200D02*
X021439Y018560D01*
D17*
X013589Y019073D03*
X012589Y019073D03*
X012589Y015687D03*
X013589Y015687D03*
D18*
X028688Y016880D03*
X029790Y016880D03*
D19*
X031189Y016331D03*
X031189Y015229D03*
D20*
X030135Y015196D03*
X030135Y015452D03*
X030135Y015708D03*
X030135Y015964D03*
X028343Y015964D03*
X028343Y015708D03*
X028343Y015452D03*
X028343Y015196D03*
D21*
X028118Y018080D03*
X027330Y018080D03*
X025756Y018080D03*
X024968Y018080D03*
D22*
X024535Y019458D03*
X028551Y019458D03*
D23*
X009430Y016836D03*
X009430Y015064D03*
X009430Y014246D03*
X009430Y012475D03*
X005848Y012475D03*
X005848Y014246D03*
X005848Y015064D03*
X005848Y016836D03*
D24*
X011145Y014180D03*
X011145Y013680D03*
X011145Y013180D03*
X011145Y012680D03*
X011145Y012180D03*
X011145Y011680D03*
X011145Y011180D03*
X011145Y010680D03*
X011145Y010180D03*
X014933Y010180D03*
X014933Y010680D03*
X014933Y011180D03*
X014933Y011680D03*
X014933Y012180D03*
X014933Y012680D03*
X014933Y013180D03*
X014933Y013680D03*
X014933Y014180D03*
D25*
X021739Y007280D03*
X022739Y007280D03*
X023739Y007280D03*
X024739Y007280D03*
X025739Y007280D03*
D26*
X006284Y004990D03*
X006284Y018770D03*
X030694Y018770D03*
X030694Y004990D03*
D27*
X020241Y017296D03*
X020241Y019461D03*
X016737Y019461D03*
X016737Y017296D03*
D28*
X017859Y017060D03*
X018174Y017060D03*
X018489Y017060D03*
X018804Y017060D03*
X019119Y017060D03*
D29*
X019355Y018280D03*
X017623Y018280D03*
M02*
