%
M48
M72
T01C0.0197
T02C0.0315
T03C0.0354
T04C0.0400
T05C0.1260
%
T01
X10639Y6780
X12339Y6780
X14339Y7880
X16539Y8380
X16539Y9180
X17389Y11080
X18289Y11080
X19439Y10330
X20439Y9755
X20039Y9330
X20039Y8630
X20639Y10880
X21189Y11330
X20789Y11680
X20564Y12105
X21589Y11780
X22439Y12130
X22939Y12130
X22839Y13130
X23339Y13230
X22539Y13580
X21539Y13580
X19489Y12880
X18339Y14580
X17439Y14580
X17939Y15480
X17439Y16530
X14139Y15780
X12160Y17854
X8139Y18880
X14139Y13480
X14039Y12180
X14039Y11680
X14039Y11180
X15639Y11130
X16339Y12480
X12539Y9980
X11939Y9980
X11139Y9680
X8439Y12080
X21239Y17380
X23589Y19430
X24339Y18430
X26639Y18080
X28039Y17330
X28839Y18080
X26139Y16380
X26139Y13980
X26139Y13480
X25239Y13980
X26039Y12580
X27139Y12180
X24839Y11580
X22339Y10930
X24839Y9980
X23239Y9180
X24239Y5980
T02
X24535Y19458
X28551Y19458
T03
X19355Y18280
X17623Y18280
T04
X21439Y18880
X22439Y18880
X29289Y12030
X29289Y11030
X29289Y10030
X29289Y9030
X29289Y8030
X29289Y7030
X28739Y4780
X27739Y4780
X26739Y4780
X25739Y4780
X24739Y4780
X23739Y4780
X22739Y4780
X21739Y4780
X20739Y4780
X19739Y4780
X18739Y4780
X17739Y4780
X16739Y4780
X15739Y4780
X14739Y4780
X13739Y4780
X12739Y4780
X11739Y4780
X21739Y7280
X22739Y7280
X23739Y7280
X24739Y7280
X25739Y7280
T05
X6284Y4990
X6284Y18770
X30694Y18770
X30694Y4990
M30
