G75*
%MOIN*%
%OFA0B0*%
%FSLAX24Y24*%
%IPPOS*%
%LPD*%
%AMOC8*
5,1,8,0,0,1.08239X$1,22.5*
%
%ADD10C,0.0000*%
%ADD11C,0.0060*%
%ADD12C,0.0050*%
%ADD13C,0.0070*%
%ADD14C,0.0020*%
%ADD15R,0.0128X0.0167*%
%ADD16R,0.0138X0.0138*%
%ADD17R,0.0167X0.0128*%
%ADD18C,0.0080*%
%ADD19R,0.0591X0.0591*%
%ADD20C,0.0300*%
%ADD21R,0.0200X0.0300*%
%ADD22R,0.0400X0.0300*%
%ADD23C,0.0157*%
D10*
X000653Y000180D02*
X000653Y013176D01*
X028148Y013176D01*
X028148Y000180D01*
X000653Y000180D01*
X022992Y011558D02*
X022994Y011583D01*
X023000Y011607D01*
X023009Y011629D01*
X023022Y011650D01*
X023038Y011669D01*
X023057Y011685D01*
X023078Y011698D01*
X023100Y011707D01*
X023124Y011713D01*
X023149Y011715D01*
X023174Y011713D01*
X023198Y011707D01*
X023220Y011698D01*
X023241Y011685D01*
X023260Y011669D01*
X023276Y011650D01*
X023289Y011629D01*
X023298Y011607D01*
X023304Y011583D01*
X023306Y011558D01*
X023304Y011533D01*
X023298Y011509D01*
X023289Y011487D01*
X023276Y011466D01*
X023260Y011447D01*
X023241Y011431D01*
X023220Y011418D01*
X023198Y011409D01*
X023174Y011403D01*
X023149Y011401D01*
X023124Y011403D01*
X023100Y011409D01*
X023078Y011418D01*
X023057Y011431D01*
X023038Y011447D01*
X023022Y011466D01*
X023009Y011487D01*
X023000Y011509D01*
X022994Y011533D01*
X022992Y011558D01*
X027008Y011558D02*
X027010Y011583D01*
X027016Y011607D01*
X027025Y011629D01*
X027038Y011650D01*
X027054Y011669D01*
X027073Y011685D01*
X027094Y011698D01*
X027116Y011707D01*
X027140Y011713D01*
X027165Y011715D01*
X027190Y011713D01*
X027214Y011707D01*
X027236Y011698D01*
X027257Y011685D01*
X027276Y011669D01*
X027292Y011650D01*
X027305Y011629D01*
X027314Y011607D01*
X027320Y011583D01*
X027322Y011558D01*
X027320Y011533D01*
X027314Y011509D01*
X027305Y011487D01*
X027292Y011466D01*
X027276Y011447D01*
X027257Y011431D01*
X027236Y011418D01*
X027214Y011409D01*
X027190Y011403D01*
X027165Y011401D01*
X027140Y011403D01*
X027116Y011409D01*
X027094Y011418D01*
X027073Y011431D01*
X027054Y011447D01*
X027038Y011466D01*
X027025Y011487D01*
X027016Y011509D01*
X027010Y011533D01*
X027008Y011558D01*
D11*
X026913Y012510D02*
X026826Y012510D01*
X026783Y012553D01*
X026783Y012770D01*
X026957Y012770D02*
X026957Y012553D01*
X026913Y012510D01*
X027078Y012553D02*
X027121Y012510D01*
X027208Y012510D01*
X027251Y012553D01*
X027251Y012597D01*
X027208Y012640D01*
X027121Y012640D01*
X027078Y012683D01*
X027078Y012727D01*
X027121Y012770D01*
X027208Y012770D01*
X027251Y012727D01*
X027372Y012770D02*
X027372Y012510D01*
X027502Y012510D01*
X027546Y012553D01*
X027546Y012597D01*
X027502Y012640D01*
X027372Y012640D01*
X027372Y012770D02*
X027502Y012770D01*
X027546Y012727D01*
X027546Y012683D01*
X027502Y012640D01*
X025596Y012770D02*
X025422Y012770D01*
X025509Y012770D02*
X025509Y012510D01*
X025301Y012510D02*
X025301Y012683D01*
X025214Y012770D01*
X025128Y012683D01*
X025128Y012510D01*
X025007Y012553D02*
X024963Y012510D01*
X024833Y012510D01*
X024833Y012770D01*
X024963Y012770D01*
X025007Y012727D01*
X025007Y012683D01*
X024963Y012640D01*
X024833Y012640D01*
X024963Y012640D02*
X025007Y012597D01*
X025007Y012553D01*
X025128Y012640D02*
X025301Y012640D01*
X023596Y012770D02*
X023422Y012770D01*
X023422Y012510D01*
X023422Y012640D02*
X023509Y012640D01*
X023301Y012770D02*
X023128Y012770D01*
X023128Y012510D01*
X023007Y012553D02*
X023007Y012727D01*
X022963Y012770D01*
X022876Y012770D01*
X022833Y012727D01*
X022833Y012553D01*
X022876Y012510D01*
X022963Y012510D01*
X023007Y012553D01*
X023128Y012640D02*
X023214Y012640D01*
X020301Y012460D02*
X020128Y012460D01*
X020128Y012720D01*
X020007Y012677D02*
X020007Y012633D01*
X019963Y012590D01*
X019833Y012590D01*
X019833Y012460D02*
X019963Y012460D01*
X020007Y012503D01*
X020007Y012547D01*
X019963Y012590D01*
X020007Y012677D02*
X019963Y012720D01*
X019833Y012720D01*
X019833Y012460D01*
X016403Y011830D02*
X016403Y011430D01*
X016403Y011830D02*
X016401Y011847D01*
X016397Y011864D01*
X016390Y011880D01*
X016380Y011894D01*
X016367Y011907D01*
X016353Y011917D01*
X016337Y011924D01*
X016320Y011928D01*
X016303Y011930D01*
X012003Y011930D01*
X011986Y011928D01*
X011969Y011924D01*
X011953Y011917D01*
X011939Y011907D01*
X011926Y011894D01*
X011916Y011880D01*
X011909Y011864D01*
X011905Y011847D01*
X011903Y011830D01*
X011903Y011430D01*
X011903Y010530D02*
X011903Y010130D01*
X011905Y010113D01*
X011909Y010096D01*
X011916Y010080D01*
X011926Y010066D01*
X011939Y010053D01*
X011953Y010043D01*
X011969Y010036D01*
X011986Y010032D01*
X012003Y010030D01*
X016303Y010030D01*
X016320Y010032D01*
X016337Y010036D01*
X016353Y010043D01*
X016367Y010053D01*
X016380Y010066D01*
X016390Y010080D01*
X016397Y010096D01*
X016401Y010113D01*
X016403Y010130D01*
X016403Y010530D01*
X014403Y010730D02*
X014403Y010980D01*
X014403Y011230D01*
X014253Y011230D02*
X014053Y011230D01*
X014053Y010730D01*
X014253Y010730D01*
X014253Y011230D01*
X013903Y011230D02*
X013903Y010980D01*
X013903Y010730D01*
X019253Y010230D02*
X019253Y009730D01*
X019503Y009480D01*
X020003Y009480D01*
X020253Y009730D01*
X020253Y010230D01*
X020003Y010480D01*
X019503Y010480D01*
X019253Y010230D01*
X020403Y010240D02*
X021876Y010240D01*
X021785Y010120D02*
X021612Y010120D01*
X021698Y010120D02*
X021698Y009860D01*
X021490Y009860D02*
X021317Y009860D01*
X021317Y010120D01*
X021490Y010120D01*
X021404Y009990D02*
X021317Y009990D01*
X021196Y009947D02*
X021196Y009903D01*
X021152Y009860D01*
X021066Y009860D01*
X021022Y009903D01*
X021066Y009990D02*
X021152Y009990D01*
X021196Y009947D01*
X021196Y010077D02*
X021152Y010120D01*
X021066Y010120D01*
X021022Y010077D01*
X021022Y010033D01*
X021066Y009990D01*
X020901Y009860D02*
X020728Y009860D01*
X020728Y010120D01*
X020901Y010120D01*
X020814Y009990D02*
X020728Y009990D01*
X020607Y009990D02*
X020563Y009947D01*
X020433Y009947D01*
X020520Y009947D02*
X020607Y009860D01*
X020607Y009990D02*
X020607Y010077D01*
X020563Y010120D01*
X020433Y010120D01*
X020433Y009860D01*
X017161Y008079D02*
X017161Y006281D01*
X013815Y006700D02*
X013817Y006726D01*
X013823Y006752D01*
X013832Y006776D01*
X013845Y006799D01*
X013861Y006820D01*
X013880Y006838D01*
X013901Y006854D01*
X013925Y006866D01*
X013949Y006874D01*
X013975Y006879D01*
X014002Y006880D01*
X014028Y006877D01*
X014053Y006870D01*
X014077Y006860D01*
X014100Y006846D01*
X014120Y006830D01*
X014137Y006810D01*
X014152Y006788D01*
X014163Y006764D01*
X014171Y006739D01*
X014175Y006713D01*
X014175Y006687D01*
X014171Y006661D01*
X014163Y006636D01*
X014152Y006612D01*
X014137Y006590D01*
X014120Y006570D01*
X014100Y006554D01*
X014077Y006540D01*
X014053Y006530D01*
X014028Y006523D01*
X014002Y006520D01*
X013975Y006521D01*
X013949Y006526D01*
X013925Y006534D01*
X013901Y006546D01*
X013880Y006562D01*
X013861Y006580D01*
X013845Y006601D01*
X013832Y006624D01*
X013823Y006648D01*
X013817Y006674D01*
X013815Y006700D01*
X013645Y006281D02*
X013645Y008079D01*
X009608Y008050D02*
X006708Y008050D01*
X006708Y003600D01*
X009608Y003600D01*
X009608Y008050D01*
X009038Y003990D02*
X009040Y004019D01*
X009046Y004047D01*
X009055Y004074D01*
X009069Y004099D01*
X009085Y004123D01*
X009105Y004143D01*
X009127Y004162D01*
X009151Y004176D01*
X009178Y004188D01*
X009205Y004196D01*
X009234Y004200D01*
X009262Y004200D01*
X009291Y004196D01*
X009318Y004188D01*
X009345Y004176D01*
X009369Y004162D01*
X009391Y004143D01*
X009411Y004123D01*
X009427Y004099D01*
X009441Y004074D01*
X009450Y004047D01*
X009456Y004019D01*
X009458Y003990D01*
X009456Y003961D01*
X009450Y003933D01*
X009441Y003906D01*
X009427Y003881D01*
X009411Y003857D01*
X009391Y003837D01*
X009369Y003818D01*
X009345Y003804D01*
X009318Y003792D01*
X009291Y003784D01*
X009262Y003780D01*
X009234Y003780D01*
X009205Y003784D01*
X009178Y003792D01*
X009151Y003804D01*
X009127Y003818D01*
X009105Y003837D01*
X009085Y003857D01*
X009069Y003881D01*
X009055Y003906D01*
X009046Y003933D01*
X009040Y003961D01*
X009038Y003990D01*
X010326Y002500D02*
X010283Y002457D01*
X010283Y002370D01*
X010326Y002327D01*
X010370Y002327D01*
X010413Y002370D01*
X010413Y002457D01*
X010457Y002500D01*
X010500Y002500D01*
X010543Y002457D01*
X010543Y002370D01*
X010500Y002327D01*
X010500Y002205D02*
X010326Y002205D01*
X010283Y002162D01*
X010283Y002075D01*
X010326Y002032D01*
X010283Y001911D02*
X010283Y001737D01*
X010283Y001911D02*
X010543Y001911D01*
X010500Y002032D02*
X010543Y002075D01*
X010543Y002162D01*
X010500Y002205D01*
X011283Y002205D02*
X011283Y002075D01*
X011326Y002032D01*
X011500Y002032D01*
X011543Y002075D01*
X011543Y002205D01*
X011283Y002205D01*
X011326Y002327D02*
X011283Y002370D01*
X011283Y002457D01*
X011326Y002500D01*
X011413Y002457D02*
X011413Y002370D01*
X011370Y002327D01*
X011326Y002327D01*
X011413Y002457D02*
X011457Y002500D01*
X011500Y002500D01*
X011543Y002457D01*
X011543Y002370D01*
X011500Y002327D01*
X011457Y001911D02*
X011283Y001911D01*
X011413Y001911D02*
X011413Y001737D01*
X011457Y001737D02*
X011283Y001737D01*
X011457Y001737D02*
X011543Y001824D01*
X011457Y001911D01*
X011653Y001430D02*
X011153Y001430D01*
X010903Y001180D01*
X010653Y001430D01*
X010153Y001430D01*
X009903Y001180D01*
X009903Y000680D01*
X010153Y000430D01*
X010653Y000430D01*
X010903Y000680D01*
X010903Y001180D01*
X011653Y001430D02*
X011903Y001180D01*
X012153Y001430D01*
X012653Y001430D01*
X012903Y001180D01*
X013153Y001430D01*
X013653Y001430D01*
X013903Y001180D01*
X014153Y001430D01*
X014653Y001430D01*
X014903Y001180D01*
X015153Y001430D01*
X015653Y001430D01*
X015903Y001180D01*
X016153Y001430D01*
X016653Y001430D01*
X016903Y001180D01*
X016903Y000680D01*
X016653Y000430D01*
X016153Y000430D01*
X015903Y000680D01*
X015653Y000430D01*
X015153Y000430D01*
X014903Y000680D01*
X014903Y001180D01*
X014903Y000680D01*
X014653Y000430D01*
X014153Y000430D01*
X013903Y000680D01*
X013653Y000430D01*
X013153Y000430D01*
X012903Y000680D01*
X012653Y000430D01*
X012153Y000430D01*
X011903Y000680D01*
X011903Y001180D01*
X011903Y000680D01*
X011653Y000430D01*
X011153Y000430D01*
X010903Y000680D01*
X009370Y001070D02*
X009290Y000910D01*
X009210Y001070D01*
X009094Y001030D02*
X009094Y000990D01*
X008934Y000990D01*
X008934Y000950D02*
X008934Y001030D01*
X008974Y001070D01*
X009054Y001070D01*
X009094Y001030D01*
X009054Y000910D02*
X008974Y000910D01*
X008934Y000950D01*
X008818Y000990D02*
X008658Y000990D01*
X008658Y000950D02*
X008658Y001030D01*
X008698Y001070D01*
X008778Y001070D01*
X008818Y001030D01*
X008818Y000990D01*
X008778Y000910D02*
X008698Y000910D01*
X008658Y000950D01*
X008542Y000910D02*
X008422Y000910D01*
X008382Y000950D01*
X008382Y001030D01*
X008422Y001070D01*
X008542Y001070D01*
X008542Y000870D01*
X008502Y000830D01*
X008462Y000830D01*
X008387Y000700D02*
X008427Y000660D01*
X008427Y000620D01*
X008387Y000580D01*
X008427Y000540D01*
X008427Y000500D01*
X008387Y000460D01*
X008306Y000460D01*
X008266Y000500D01*
X008347Y000580D02*
X008387Y000580D01*
X008387Y000700D02*
X008306Y000700D01*
X008266Y000660D01*
X008150Y000580D02*
X007990Y000580D01*
X007874Y000660D02*
X007874Y000700D01*
X007874Y000660D02*
X007794Y000580D01*
X007794Y000460D01*
X007794Y000580D02*
X007714Y000660D01*
X007714Y000700D01*
X007598Y000660D02*
X007558Y000700D01*
X007438Y000700D01*
X007438Y000460D01*
X007558Y000460D01*
X007598Y000500D01*
X007598Y000540D01*
X007558Y000580D01*
X007438Y000580D01*
X007322Y000580D02*
X007161Y000580D01*
X007045Y000500D02*
X007005Y000460D01*
X006925Y000460D01*
X006885Y000500D01*
X006885Y000660D01*
X006925Y000700D01*
X007005Y000700D01*
X007045Y000660D01*
X006769Y000660D02*
X006729Y000700D01*
X006649Y000700D01*
X006609Y000660D01*
X006609Y000500D01*
X006649Y000460D01*
X006729Y000460D01*
X006769Y000500D01*
X006810Y000910D02*
X006770Y000950D01*
X006930Y001110D01*
X006930Y000950D01*
X006890Y000910D01*
X006810Y000910D01*
X006770Y000950D02*
X006770Y001110D01*
X006810Y001150D01*
X006890Y001150D01*
X006930Y001110D01*
X007323Y001070D02*
X007403Y000910D01*
X007483Y001070D01*
X007599Y001030D02*
X007639Y001070D01*
X007759Y001070D01*
X007719Y000990D02*
X007639Y000990D01*
X007599Y001030D01*
X007599Y000910D02*
X007719Y000910D01*
X007759Y000950D01*
X007719Y000990D01*
X007875Y000990D02*
X008035Y000990D01*
X008035Y001030D01*
X007995Y001070D01*
X007915Y001070D01*
X007875Y001030D01*
X007875Y000950D01*
X007915Y000910D01*
X007995Y000910D01*
X008151Y000910D02*
X008151Y001070D01*
X008151Y000990D02*
X008231Y001070D01*
X008271Y001070D01*
X008681Y000660D02*
X008721Y000700D01*
X008801Y000700D01*
X008841Y000660D01*
X008681Y000500D01*
X008721Y000460D01*
X008801Y000460D01*
X008841Y000500D01*
X008841Y000660D01*
X008681Y000660D02*
X008681Y000500D01*
X008583Y000500D02*
X008583Y000460D01*
X008543Y000460D01*
X008543Y000500D01*
X008583Y000500D01*
X007598Y000620D02*
X007558Y000580D01*
X007598Y000620D02*
X007598Y000660D01*
X006672Y000910D02*
X006632Y000910D01*
X006632Y000950D01*
X006672Y000950D01*
X006672Y000910D01*
X006516Y000910D02*
X006356Y000910D01*
X006436Y000910D02*
X006436Y001150D01*
X006356Y001070D01*
X006240Y001070D02*
X006160Y000910D01*
X006080Y001070D01*
X006752Y001560D02*
X006752Y001733D01*
X006838Y001820D01*
X006925Y001733D01*
X006925Y001560D01*
X007046Y001560D02*
X007046Y001820D01*
X007177Y001820D01*
X007220Y001777D01*
X007220Y001690D01*
X007177Y001647D01*
X007046Y001647D01*
X007133Y001647D02*
X007220Y001560D01*
X007341Y001560D02*
X007341Y001820D01*
X007428Y001733D01*
X007515Y001820D01*
X007515Y001560D01*
X007930Y001560D02*
X008060Y001560D01*
X008104Y001603D01*
X008104Y001690D01*
X008060Y001733D01*
X007930Y001733D01*
X007930Y001820D02*
X007930Y001560D01*
X008225Y001560D02*
X008225Y001733D01*
X008268Y001733D01*
X008312Y001690D01*
X008355Y001733D01*
X008398Y001690D01*
X008398Y001560D01*
X008312Y001560D02*
X008312Y001690D01*
X008520Y001733D02*
X008520Y001603D01*
X008563Y001560D01*
X008606Y001603D01*
X008650Y001560D01*
X008693Y001603D01*
X008693Y001733D01*
X006925Y001690D02*
X006752Y001690D01*
X004713Y000770D02*
X004583Y000640D01*
X004757Y000640D01*
X004713Y000510D02*
X004713Y000770D01*
X003757Y000727D02*
X003757Y000683D01*
X003713Y000640D01*
X003757Y000597D01*
X003757Y000553D01*
X003713Y000510D01*
X003626Y000510D01*
X003583Y000553D01*
X003670Y000640D02*
X003713Y000640D01*
X003757Y000727D02*
X003713Y000770D01*
X003626Y000770D01*
X003583Y000727D01*
X002757Y000727D02*
X002757Y000683D01*
X002583Y000510D01*
X002757Y000510D01*
X002757Y000727D02*
X002713Y000770D01*
X002626Y000770D01*
X002583Y000727D01*
X001757Y000510D02*
X001583Y000510D01*
X001670Y000510D02*
X001670Y000770D01*
X001583Y000683D01*
X012283Y001784D02*
X012326Y001741D01*
X012500Y001741D01*
X012543Y001784D01*
X012543Y001871D01*
X012500Y001914D01*
X012326Y001914D01*
X012283Y001871D01*
X012283Y001784D01*
X012326Y002035D02*
X012283Y002079D01*
X012283Y002166D01*
X012326Y002209D01*
X012413Y002166D02*
X012413Y002079D01*
X012370Y002035D01*
X012326Y002035D01*
X012413Y002166D02*
X012457Y002209D01*
X012500Y002209D01*
X012543Y002166D01*
X012543Y002079D01*
X012500Y002035D01*
X012543Y002319D02*
X012543Y002405D01*
X012543Y002362D02*
X012283Y002362D01*
X012283Y002405D02*
X012283Y002319D01*
X012283Y002527D02*
X012543Y002527D01*
X012457Y002613D01*
X012543Y002700D01*
X012283Y002700D01*
X013283Y002700D02*
X013543Y002700D01*
X013457Y002613D01*
X013543Y002527D01*
X013283Y002527D01*
X013326Y002405D02*
X013283Y002362D01*
X013283Y002275D01*
X013326Y002232D01*
X013500Y002232D01*
X013543Y002275D01*
X013543Y002362D01*
X013500Y002405D01*
X013326Y002405D01*
X013326Y002111D02*
X013283Y002067D01*
X013283Y001981D01*
X013326Y001937D01*
X013370Y001937D01*
X013413Y001981D01*
X013413Y002067D01*
X013457Y002111D01*
X013500Y002111D01*
X013543Y002067D01*
X013543Y001981D01*
X013500Y001937D01*
X013543Y001816D02*
X013543Y001729D01*
X013543Y001773D02*
X013283Y001773D01*
X013283Y001816D02*
X013283Y001729D01*
X014283Y001737D02*
X014413Y001867D01*
X014370Y001911D02*
X014543Y001737D01*
X014543Y001911D02*
X014283Y001911D01*
X014326Y002032D02*
X014283Y002075D01*
X014283Y002162D01*
X014326Y002205D01*
X014500Y002205D01*
X014543Y002162D01*
X014543Y002075D01*
X014500Y002032D01*
X014500Y002327D02*
X014543Y002370D01*
X014543Y002457D01*
X014500Y002500D01*
X014457Y002500D01*
X014413Y002457D01*
X014413Y002370D01*
X014370Y002327D01*
X014326Y002327D01*
X014283Y002370D01*
X014283Y002457D01*
X014326Y002500D01*
X015283Y002200D02*
X015457Y002200D01*
X015543Y002113D01*
X015457Y002027D01*
X015283Y002027D01*
X015326Y001905D02*
X015500Y001732D01*
X015326Y001732D01*
X015283Y001775D01*
X015283Y001862D01*
X015326Y001905D01*
X015500Y001905D01*
X015543Y001862D01*
X015543Y001775D01*
X015500Y001732D01*
X015413Y002027D02*
X015413Y002200D01*
X016283Y002200D02*
X016457Y002200D01*
X016543Y002113D01*
X016457Y002027D01*
X016283Y002027D01*
X016283Y001905D02*
X016283Y001732D01*
X016283Y001819D02*
X016543Y001819D01*
X016457Y001905D01*
X016413Y002027D02*
X016413Y002200D01*
X017283Y002200D02*
X017457Y002200D01*
X017543Y002113D01*
X017457Y002027D01*
X017283Y002027D01*
X017283Y001905D02*
X017457Y001732D01*
X017500Y001732D01*
X017543Y001775D01*
X017543Y001862D01*
X017500Y001905D01*
X017413Y002027D02*
X017413Y002200D01*
X017283Y001905D02*
X017283Y001732D01*
X017153Y001430D02*
X017653Y001430D01*
X017903Y001180D01*
X018153Y001430D01*
X018653Y001430D01*
X018903Y001180D01*
X019153Y001430D01*
X019653Y001430D01*
X019903Y001180D01*
X020153Y001430D01*
X020653Y001430D01*
X020903Y001180D01*
X021153Y001430D01*
X021653Y001430D01*
X021903Y001180D01*
X022153Y001430D01*
X022653Y001430D01*
X022903Y001180D01*
X022903Y000680D01*
X022653Y000430D01*
X022153Y000430D01*
X021903Y000680D01*
X021653Y000430D01*
X021153Y000430D01*
X020903Y000680D01*
X020903Y001180D01*
X020903Y000680D01*
X020653Y000430D01*
X020153Y000430D01*
X019903Y000680D01*
X019653Y000430D01*
X019153Y000430D01*
X018903Y000680D01*
X018653Y000430D01*
X018153Y000430D01*
X017903Y000680D01*
X017653Y000430D01*
X017153Y000430D01*
X016903Y000680D01*
X015903Y000680D02*
X015903Y001180D01*
X016903Y001180D02*
X017153Y001430D01*
X017903Y001180D02*
X017903Y000680D01*
X018903Y000680D02*
X018903Y001180D01*
X019903Y001180D02*
X019903Y000680D01*
X021903Y000680D02*
X021903Y001180D01*
X022903Y001180D02*
X023153Y001430D01*
X023653Y001430D01*
X023903Y001180D01*
X024153Y001430D01*
X024653Y001430D01*
X024903Y001180D01*
X025153Y001430D01*
X025653Y001430D01*
X025903Y001180D01*
X026153Y001430D01*
X026653Y001430D01*
X026903Y001180D01*
X027153Y001430D01*
X027653Y001430D01*
X027903Y001180D01*
X027903Y000680D01*
X027653Y000430D01*
X027153Y000430D01*
X026903Y000680D01*
X026653Y000430D01*
X026153Y000430D01*
X025903Y000680D01*
X025903Y001180D01*
X025903Y000680D01*
X025653Y000430D01*
X025153Y000430D01*
X024903Y000680D01*
X024653Y000430D01*
X024153Y000430D01*
X023903Y000680D01*
X023653Y000430D01*
X023153Y000430D01*
X022903Y000680D01*
X023903Y000680D02*
X023903Y001180D01*
X023500Y001732D02*
X023543Y001775D01*
X023543Y001862D01*
X023500Y001905D01*
X023500Y002027D02*
X023413Y002027D01*
X023370Y002070D01*
X023370Y002200D01*
X023283Y002200D02*
X023543Y002200D01*
X023543Y002070D01*
X023500Y002027D01*
X023283Y001905D02*
X023457Y001732D01*
X023500Y001732D01*
X023283Y001732D02*
X023283Y001905D01*
X022543Y001819D02*
X022283Y001819D01*
X022283Y001905D02*
X022283Y001732D01*
X022457Y001905D02*
X022543Y001819D01*
X022500Y002027D02*
X022413Y002027D01*
X022370Y002070D01*
X022370Y002200D01*
X022283Y002200D02*
X022543Y002200D01*
X022543Y002070D01*
X022500Y002027D01*
X021543Y002070D02*
X021500Y002027D01*
X021413Y002027D01*
X021370Y002070D01*
X021370Y002200D01*
X021283Y002200D02*
X021543Y002200D01*
X021543Y002070D01*
X021500Y001905D02*
X021543Y001862D01*
X021543Y001775D01*
X021500Y001732D01*
X021326Y001905D01*
X021283Y001862D01*
X021283Y001775D01*
X021326Y001732D01*
X021500Y001732D01*
X021500Y001905D02*
X021326Y001905D01*
X020543Y001905D02*
X020543Y001732D01*
X020457Y001775D02*
X020413Y001732D01*
X020326Y001732D01*
X020283Y001775D01*
X020283Y001862D01*
X020326Y001905D01*
X020413Y001905D02*
X020457Y001819D01*
X020457Y001775D01*
X020413Y001905D02*
X020543Y001905D01*
X020457Y002027D02*
X020283Y002027D01*
X020413Y002027D02*
X020413Y002200D01*
X020457Y002200D02*
X020543Y002113D01*
X020457Y002027D01*
X020457Y002200D02*
X020283Y002200D01*
X019543Y002113D02*
X019457Y002027D01*
X019283Y002027D01*
X019413Y002027D02*
X019413Y002200D01*
X019457Y002200D02*
X019283Y002200D01*
X019457Y002200D02*
X019543Y002113D01*
X019413Y001905D02*
X019413Y001732D01*
X019283Y001775D02*
X019543Y001775D01*
X019413Y001905D01*
X018543Y001862D02*
X018543Y001775D01*
X018500Y001732D01*
X018457Y001732D01*
X018413Y001775D01*
X018370Y001732D01*
X018326Y001732D01*
X018283Y001775D01*
X018283Y001862D01*
X018326Y001905D01*
X018413Y001819D02*
X018413Y001775D01*
X018500Y001905D02*
X018543Y001862D01*
X018457Y002027D02*
X018283Y002027D01*
X018413Y002027D02*
X018413Y002200D01*
X018457Y002200D02*
X018543Y002113D01*
X018457Y002027D01*
X018457Y002200D02*
X018283Y002200D01*
X018903Y003030D02*
X019153Y002780D01*
X019653Y002780D01*
X019903Y003030D01*
X019903Y003530D01*
X019653Y003780D01*
X019153Y003780D01*
X018903Y003530D01*
X018903Y003030D01*
X020003Y003030D02*
X020253Y002780D01*
X020753Y002780D01*
X021003Y003030D01*
X021003Y003530D01*
X020753Y003780D01*
X020253Y003780D01*
X020003Y003530D01*
X020003Y003030D01*
X021103Y003030D02*
X021103Y003530D01*
X021353Y003780D01*
X021853Y003780D01*
X022103Y003530D01*
X022103Y003030D01*
X021853Y002780D01*
X021353Y002780D01*
X021103Y003030D01*
X022203Y003030D02*
X022203Y003530D01*
X022453Y003780D01*
X022953Y003780D01*
X023203Y003530D01*
X023203Y003030D01*
X022953Y002780D01*
X022453Y002780D01*
X022203Y003030D01*
X022376Y003960D02*
X022333Y004003D01*
X022376Y003960D02*
X022463Y003960D01*
X022507Y004003D01*
X022507Y004047D01*
X022463Y004090D01*
X022420Y004090D01*
X022463Y004090D02*
X022507Y004133D01*
X022507Y004177D01*
X022463Y004220D01*
X022376Y004220D01*
X022333Y004177D01*
X022628Y004220D02*
X022628Y004047D01*
X022714Y003960D01*
X022801Y004047D01*
X022801Y004220D01*
X022922Y004177D02*
X022966Y004220D01*
X023052Y004220D01*
X023096Y004177D01*
X023096Y004133D01*
X023052Y004090D01*
X023096Y004047D01*
X023096Y004003D01*
X023052Y003960D01*
X022966Y003960D01*
X022922Y004003D01*
X023009Y004090D02*
X023052Y004090D01*
X021996Y004003D02*
X021996Y004177D01*
X021952Y004220D01*
X021822Y004220D01*
X021822Y003960D01*
X021952Y003960D01*
X021996Y004003D01*
X021701Y003960D02*
X021701Y004220D01*
X021528Y004220D02*
X021701Y003960D01*
X021528Y003960D02*
X021528Y004220D01*
X021407Y004177D02*
X021363Y004220D01*
X021276Y004220D01*
X021233Y004177D01*
X021233Y004003D01*
X021276Y003960D01*
X021363Y003960D01*
X021407Y004003D01*
X021407Y004090D01*
X021320Y004090D01*
X020854Y003960D02*
X020724Y004090D01*
X020680Y004047D02*
X020854Y004220D01*
X020680Y004220D02*
X020680Y003960D01*
X020559Y003960D02*
X020386Y003960D01*
X020386Y004220D01*
X020265Y004177D02*
X020221Y004220D01*
X020134Y004220D01*
X020091Y004177D01*
X020091Y004003D01*
X020134Y003960D01*
X020221Y003960D01*
X020265Y004003D01*
X019557Y004003D02*
X019557Y004177D01*
X019514Y004220D01*
X019427Y004220D01*
X019384Y004177D01*
X019384Y004003D01*
X019427Y003960D01*
X019514Y003960D01*
X019557Y004003D01*
X019274Y003960D02*
X019187Y003960D01*
X019231Y003960D02*
X019231Y004220D01*
X019274Y004220D02*
X019187Y004220D01*
X019121Y004440D02*
X019034Y004440D01*
X018991Y004483D01*
X019034Y004570D02*
X019121Y004570D01*
X019165Y004527D01*
X019165Y004483D01*
X019121Y004440D01*
X019034Y004570D02*
X018991Y004613D01*
X018991Y004657D01*
X019034Y004700D01*
X019121Y004700D01*
X019165Y004657D01*
X019286Y004700D02*
X019286Y004440D01*
X019372Y004527D01*
X019459Y004440D01*
X019459Y004700D01*
X019580Y004700D02*
X019710Y004700D01*
X019754Y004657D01*
X019754Y004483D01*
X019710Y004440D01*
X019580Y004440D01*
X019580Y004700D01*
X020091Y004657D02*
X020091Y004613D01*
X020134Y004570D01*
X020221Y004570D01*
X020265Y004527D01*
X020265Y004483D01*
X020221Y004440D01*
X020134Y004440D01*
X020091Y004483D01*
X020091Y004657D02*
X020134Y004700D01*
X020221Y004700D01*
X020265Y004657D01*
X020386Y004700D02*
X020386Y004440D01*
X020472Y004527D01*
X020559Y004440D01*
X020559Y004700D01*
X020680Y004700D02*
X020680Y004440D01*
X020810Y004440D01*
X020854Y004483D01*
X020854Y004657D01*
X020810Y004700D01*
X020680Y004700D01*
X024283Y002200D02*
X024543Y002200D01*
X024543Y002070D01*
X024500Y002027D01*
X024413Y002027D01*
X024370Y002070D01*
X024370Y002200D01*
X024326Y001905D02*
X024283Y001862D01*
X024283Y001775D01*
X024326Y001732D01*
X024370Y001732D01*
X024413Y001775D01*
X024413Y001819D01*
X024413Y001775D02*
X024457Y001732D01*
X024500Y001732D01*
X024543Y001775D01*
X024543Y001862D01*
X024500Y001905D01*
X025283Y001775D02*
X025543Y001775D01*
X025413Y001905D01*
X025413Y001732D01*
X025413Y002027D02*
X025370Y002070D01*
X025370Y002200D01*
X025283Y002200D02*
X025543Y002200D01*
X025543Y002070D01*
X025500Y002027D01*
X025413Y002027D01*
X026283Y002119D02*
X026370Y002032D01*
X026543Y002032D01*
X026500Y001911D02*
X026543Y001867D01*
X026543Y001781D01*
X026500Y001737D01*
X026457Y001737D01*
X026413Y001781D01*
X026370Y001737D01*
X026326Y001737D01*
X026283Y001781D01*
X026283Y001867D01*
X026326Y001911D01*
X026413Y001824D02*
X026413Y001781D01*
X026283Y002119D02*
X026370Y002205D01*
X026543Y002205D01*
X026500Y002327D02*
X026457Y002327D01*
X026413Y002370D01*
X026370Y002327D01*
X026326Y002327D01*
X026283Y002370D01*
X026283Y002457D01*
X026326Y002500D01*
X026413Y002413D02*
X026413Y002370D01*
X026500Y002327D02*
X026543Y002370D01*
X026543Y002457D01*
X026500Y002500D01*
X026153Y002930D02*
X027153Y002930D01*
X027153Y003930D01*
X027153Y004930D01*
X027153Y005930D01*
X027153Y006930D01*
X027153Y007930D01*
X027153Y008930D01*
X026153Y008930D01*
X026153Y007930D01*
X026153Y006930D01*
X026153Y005930D01*
X026153Y004930D01*
X026153Y003930D01*
X026153Y002930D01*
X027283Y002457D02*
X027283Y002370D01*
X027326Y002327D01*
X027413Y002327D01*
X027413Y002413D01*
X027500Y002327D02*
X027543Y002370D01*
X027543Y002457D01*
X027500Y002500D01*
X027326Y002500D01*
X027283Y002457D01*
X027283Y002205D02*
X027543Y002205D01*
X027283Y002032D01*
X027543Y002032D01*
X027543Y001911D02*
X027283Y001911D01*
X027283Y001781D01*
X027326Y001737D01*
X027500Y001737D01*
X027543Y001781D01*
X027543Y001911D01*
X026903Y001180D02*
X026903Y000680D01*
X024903Y000680D02*
X024903Y001180D01*
X026153Y003930D02*
X027153Y003930D01*
X027153Y004930D02*
X026153Y004930D01*
X026153Y005930D02*
X027153Y005930D01*
X027153Y006930D02*
X026153Y006930D01*
X026153Y007930D02*
X027153Y007930D01*
X027154Y009110D02*
X027154Y009370D01*
X027240Y009370D02*
X027067Y009370D01*
X026946Y009327D02*
X026946Y009240D01*
X026902Y009197D01*
X026772Y009197D01*
X026772Y009110D02*
X026772Y009370D01*
X026902Y009370D01*
X026946Y009327D01*
X026859Y009197D02*
X026946Y009110D01*
X026651Y009110D02*
X026651Y009283D01*
X026564Y009370D01*
X026478Y009283D01*
X026478Y009110D01*
X026357Y009153D02*
X026357Y009370D01*
X026183Y009370D02*
X026183Y009153D01*
X026226Y009110D01*
X026313Y009110D01*
X026357Y009153D01*
X026478Y009240D02*
X026651Y009240D01*
X013903Y001180D02*
X013903Y000680D01*
X012903Y000680D02*
X012903Y001180D01*
D12*
X009014Y002655D02*
X008968Y002610D01*
X008878Y002610D01*
X008833Y002655D01*
X008833Y002745D02*
X008923Y002790D01*
X008968Y002790D01*
X009014Y002745D01*
X009014Y002655D01*
X008833Y002745D02*
X008833Y002880D01*
X009014Y002880D01*
X008719Y002835D02*
X008674Y002880D01*
X008584Y002880D01*
X008539Y002835D01*
X008539Y002655D01*
X008584Y002610D01*
X008674Y002610D01*
X008719Y002655D01*
X007897Y002625D02*
X007897Y002805D01*
X007852Y002850D01*
X007762Y002850D01*
X007717Y002805D01*
X007717Y002760D01*
X007762Y002715D01*
X007897Y002715D01*
X007897Y002625D02*
X007852Y002580D01*
X007762Y002580D01*
X007717Y002625D01*
X007603Y002580D02*
X007423Y002580D01*
X007513Y002580D02*
X007513Y002850D01*
X007423Y002760D01*
X007308Y002715D02*
X007263Y002670D01*
X007128Y002670D01*
X007128Y002580D02*
X007128Y002850D01*
X007263Y002850D01*
X007308Y002805D01*
X007308Y002715D01*
X007218Y002670D02*
X007308Y002580D01*
X004903Y004700D02*
X004858Y004655D01*
X004768Y004655D01*
X004723Y004700D01*
X004723Y004790D02*
X004813Y004835D01*
X004858Y004835D01*
X004903Y004790D01*
X004903Y004700D01*
X004723Y004790D02*
X004723Y004925D01*
X004903Y004925D01*
X004608Y004880D02*
X004608Y004790D01*
X004563Y004745D01*
X004428Y004745D01*
X004428Y004655D02*
X004428Y004925D01*
X004563Y004925D01*
X004608Y004880D01*
X004518Y004745D02*
X004608Y004655D01*
X003903Y004790D02*
X003723Y004790D01*
X003858Y004925D01*
X003858Y004655D01*
X003608Y004655D02*
X003518Y004745D01*
X003563Y004745D02*
X003428Y004745D01*
X003428Y004655D02*
X003428Y004925D01*
X003563Y004925D01*
X003608Y004880D01*
X003608Y004790D01*
X003563Y004745D01*
X002903Y004745D02*
X002903Y004700D01*
X002858Y004655D01*
X002768Y004655D01*
X002723Y004700D01*
X002608Y004655D02*
X002518Y004745D01*
X002563Y004745D02*
X002428Y004745D01*
X002428Y004655D02*
X002428Y004925D01*
X002563Y004925D01*
X002608Y004880D01*
X002608Y004790D01*
X002563Y004745D01*
X002723Y004880D02*
X002768Y004925D01*
X002858Y004925D01*
X002903Y004880D01*
X002903Y004835D01*
X002858Y004790D01*
X002903Y004745D01*
X002858Y004790D02*
X002813Y004790D01*
X001903Y004835D02*
X001903Y004880D01*
X001858Y004925D01*
X001768Y004925D01*
X001723Y004880D01*
X001608Y004880D02*
X001608Y004790D01*
X001563Y004745D01*
X001428Y004745D01*
X001428Y004655D02*
X001428Y004925D01*
X001563Y004925D01*
X001608Y004880D01*
X001518Y004745D02*
X001608Y004655D01*
X001723Y004655D02*
X001903Y004835D01*
X001903Y004655D02*
X001723Y004655D01*
X002944Y005335D02*
X002944Y005605D01*
X003079Y005605D01*
X003124Y005560D01*
X003124Y005470D01*
X003079Y005425D01*
X002944Y005425D01*
X003034Y005425D02*
X003124Y005335D01*
X003239Y005335D02*
X003419Y005335D01*
X003329Y005335D02*
X003329Y005605D01*
X003239Y005515D01*
X003533Y005560D02*
X003578Y005605D01*
X003668Y005605D01*
X003714Y005560D01*
X003714Y005515D01*
X003668Y005470D01*
X003714Y005425D01*
X003714Y005380D01*
X003668Y005335D01*
X003578Y005335D01*
X003533Y005380D01*
X003623Y005470D02*
X003668Y005470D01*
X004294Y005380D02*
X004339Y005335D01*
X004429Y005335D01*
X004474Y005380D01*
X004589Y005335D02*
X004769Y005335D01*
X004679Y005335D02*
X004679Y005605D01*
X004589Y005515D01*
X004474Y005560D02*
X004429Y005605D01*
X004339Y005605D01*
X004294Y005560D01*
X004294Y005380D01*
X004883Y005335D02*
X005064Y005335D01*
X004973Y005335D02*
X004973Y005605D01*
X004883Y005515D01*
X004295Y006604D02*
X003114Y006604D01*
X001933Y006604D01*
X001933Y007785D01*
X001933Y008966D01*
X003114Y008966D01*
X004295Y008966D01*
X004295Y007785D01*
X004295Y006604D01*
X002097Y006525D02*
X001917Y006525D01*
X001917Y006390D01*
X002007Y006435D01*
X002052Y006435D01*
X002097Y006390D01*
X002097Y006300D01*
X002052Y006255D01*
X001962Y006255D01*
X001917Y006300D01*
X001803Y006255D02*
X001623Y006255D01*
X001713Y006255D02*
X001713Y006525D01*
X001623Y006435D01*
X001508Y006390D02*
X001463Y006345D01*
X001328Y006345D01*
X001328Y006255D02*
X001328Y006525D01*
X001463Y006525D01*
X001508Y006480D01*
X001508Y006390D01*
X001418Y006345D02*
X001508Y006255D01*
X004489Y007685D02*
X004624Y007685D01*
X004669Y007730D01*
X004669Y007775D01*
X004624Y007820D01*
X004489Y007820D01*
X004624Y007820D02*
X004669Y007865D01*
X004669Y007910D01*
X004624Y007955D01*
X004489Y007955D01*
X004489Y007685D01*
X004783Y007685D02*
X004964Y007685D01*
X004873Y007685D02*
X004873Y007955D01*
X004783Y007865D01*
X002521Y007785D02*
X002523Y007833D01*
X002529Y007881D01*
X002539Y007929D01*
X002552Y007975D01*
X002570Y008020D01*
X002591Y008064D01*
X002615Y008106D01*
X002643Y008145D01*
X002674Y008182D01*
X002708Y008217D01*
X002744Y008249D01*
X002783Y008277D01*
X002825Y008303D01*
X002868Y008324D01*
X002912Y008343D01*
X002959Y008357D01*
X003006Y008368D01*
X003054Y008375D01*
X003102Y008378D01*
X003150Y008377D01*
X003198Y008372D01*
X003246Y008363D01*
X003293Y008350D01*
X003338Y008334D01*
X003382Y008314D01*
X003424Y008290D01*
X003465Y008263D01*
X003502Y008233D01*
X003538Y008200D01*
X003570Y008164D01*
X003599Y008126D01*
X003626Y008085D01*
X003648Y008042D01*
X003667Y007998D01*
X003683Y007952D01*
X003695Y007905D01*
X003703Y007857D01*
X003707Y007809D01*
X003707Y007761D01*
X003703Y007713D01*
X003695Y007665D01*
X003683Y007618D01*
X003667Y007572D01*
X003648Y007528D01*
X003626Y007485D01*
X003599Y007444D01*
X003570Y007406D01*
X003538Y007370D01*
X003502Y007337D01*
X003465Y007307D01*
X003424Y007280D01*
X003382Y007256D01*
X003338Y007236D01*
X003293Y007220D01*
X003246Y007207D01*
X003198Y007198D01*
X003150Y007193D01*
X003102Y007192D01*
X003054Y007195D01*
X003006Y007202D01*
X002959Y007213D01*
X002912Y007227D01*
X002868Y007246D01*
X002825Y007267D01*
X002783Y007293D01*
X002744Y007321D01*
X002708Y007353D01*
X002674Y007388D01*
X002643Y007425D01*
X002615Y007464D01*
X002591Y007506D01*
X002570Y007550D01*
X002552Y007595D01*
X002539Y007641D01*
X002529Y007689D01*
X002523Y007737D01*
X002521Y007785D01*
X002425Y007785D02*
X002427Y007837D01*
X002433Y007889D01*
X002443Y007940D01*
X002456Y007990D01*
X002474Y008040D01*
X002495Y008087D01*
X002519Y008133D01*
X002548Y008177D01*
X002579Y008219D01*
X002613Y008258D01*
X002650Y008295D01*
X002690Y008328D01*
X002733Y008359D01*
X002777Y008386D01*
X002823Y008410D01*
X002872Y008430D01*
X002921Y008446D01*
X002972Y008459D01*
X003023Y008468D01*
X003075Y008473D01*
X003127Y008474D01*
X003179Y008471D01*
X003231Y008464D01*
X003282Y008453D01*
X003332Y008439D01*
X003381Y008420D01*
X003428Y008398D01*
X003473Y008373D01*
X003517Y008344D01*
X003558Y008312D01*
X003597Y008277D01*
X003632Y008239D01*
X003665Y008198D01*
X003695Y008156D01*
X003721Y008111D01*
X003744Y008064D01*
X003763Y008015D01*
X003779Y007965D01*
X003791Y007915D01*
X003799Y007863D01*
X003803Y007811D01*
X003803Y007759D01*
X003799Y007707D01*
X003791Y007655D01*
X003779Y007605D01*
X003763Y007555D01*
X003744Y007506D01*
X003721Y007459D01*
X003695Y007414D01*
X003665Y007372D01*
X003632Y007331D01*
X003597Y007293D01*
X003558Y007258D01*
X003517Y007226D01*
X003473Y007197D01*
X003428Y007172D01*
X003381Y007150D01*
X003332Y007131D01*
X003282Y007117D01*
X003231Y007106D01*
X003179Y007099D01*
X003127Y007096D01*
X003075Y007097D01*
X003023Y007102D01*
X002972Y007111D01*
X002921Y007124D01*
X002872Y007140D01*
X002823Y007160D01*
X002777Y007184D01*
X002733Y007211D01*
X002690Y007242D01*
X002650Y007275D01*
X002613Y007312D01*
X002579Y007351D01*
X002548Y007393D01*
X002519Y007437D01*
X002495Y007483D01*
X002474Y007530D01*
X002456Y007580D01*
X002443Y007630D01*
X002433Y007681D01*
X002427Y007733D01*
X002425Y007785D01*
X002944Y009335D02*
X002944Y009605D01*
X003079Y009605D01*
X003124Y009560D01*
X003124Y009470D01*
X003079Y009425D01*
X002944Y009425D01*
X003034Y009425D02*
X003124Y009335D01*
X003239Y009335D02*
X003419Y009335D01*
X003329Y009335D02*
X003329Y009605D01*
X003239Y009515D01*
X003533Y009560D02*
X003578Y009605D01*
X003668Y009605D01*
X003714Y009560D01*
X003714Y009515D01*
X003533Y009335D01*
X003714Y009335D01*
X004294Y009380D02*
X004294Y009560D01*
X004339Y009605D01*
X004429Y009605D01*
X004474Y009560D01*
X004589Y009515D02*
X004679Y009605D01*
X004679Y009335D01*
X004589Y009335D02*
X004769Y009335D01*
X004883Y009380D02*
X005064Y009560D01*
X005064Y009380D01*
X005018Y009335D01*
X004928Y009335D01*
X004883Y009380D01*
X004883Y009560D01*
X004928Y009605D01*
X005018Y009605D01*
X005064Y009560D01*
X004474Y009380D02*
X004429Y009335D01*
X004339Y009335D01*
X004294Y009380D01*
X005778Y010271D02*
X005778Y010406D01*
X005823Y010451D01*
X005913Y010451D01*
X005958Y010406D01*
X005958Y010271D01*
X006048Y010271D02*
X005778Y010271D01*
X005958Y010361D02*
X006048Y010451D01*
X006048Y010566D02*
X006048Y010746D01*
X006048Y010656D02*
X005778Y010656D01*
X005868Y010566D01*
X005823Y010860D02*
X005778Y010905D01*
X005778Y010995D01*
X005823Y011041D01*
X006003Y010860D01*
X006048Y010905D01*
X006048Y010995D01*
X006003Y011041D01*
X005823Y011041D01*
X005823Y010860D02*
X006003Y010860D01*
X006048Y011721D02*
X005778Y011721D01*
X005778Y011856D01*
X005823Y011901D01*
X005913Y011901D01*
X005958Y011856D01*
X005958Y011721D01*
X005958Y011811D02*
X006048Y011901D01*
X006048Y012016D02*
X006048Y012196D01*
X006048Y012106D02*
X005778Y012106D01*
X005868Y012016D01*
X005778Y012310D02*
X005778Y012491D01*
X005823Y012491D01*
X006003Y012310D01*
X006048Y012310D01*
X004964Y011910D02*
X004964Y011730D01*
X004918Y011685D01*
X004828Y011685D01*
X004783Y011730D01*
X004964Y011910D01*
X004918Y011955D01*
X004828Y011955D01*
X004783Y011910D01*
X004783Y011730D01*
X004669Y011730D02*
X004624Y011685D01*
X004489Y011685D01*
X004489Y011955D01*
X004624Y011955D01*
X004669Y011910D01*
X004669Y011865D01*
X004624Y011820D01*
X004489Y011820D01*
X004624Y011820D02*
X004669Y011775D01*
X004669Y011730D01*
X004295Y011785D02*
X004295Y010604D01*
X003114Y010604D01*
X001933Y010604D01*
X001933Y011785D01*
X001933Y012966D01*
X003114Y012966D01*
X004295Y012966D01*
X004295Y011785D01*
X002521Y011785D02*
X002523Y011833D01*
X002529Y011881D01*
X002539Y011929D01*
X002552Y011975D01*
X002570Y012020D01*
X002591Y012064D01*
X002615Y012106D01*
X002643Y012145D01*
X002674Y012182D01*
X002708Y012217D01*
X002744Y012249D01*
X002783Y012277D01*
X002825Y012303D01*
X002868Y012324D01*
X002912Y012343D01*
X002959Y012357D01*
X003006Y012368D01*
X003054Y012375D01*
X003102Y012378D01*
X003150Y012377D01*
X003198Y012372D01*
X003246Y012363D01*
X003293Y012350D01*
X003338Y012334D01*
X003382Y012314D01*
X003424Y012290D01*
X003465Y012263D01*
X003502Y012233D01*
X003538Y012200D01*
X003570Y012164D01*
X003599Y012126D01*
X003626Y012085D01*
X003648Y012042D01*
X003667Y011998D01*
X003683Y011952D01*
X003695Y011905D01*
X003703Y011857D01*
X003707Y011809D01*
X003707Y011761D01*
X003703Y011713D01*
X003695Y011665D01*
X003683Y011618D01*
X003667Y011572D01*
X003648Y011528D01*
X003626Y011485D01*
X003599Y011444D01*
X003570Y011406D01*
X003538Y011370D01*
X003502Y011337D01*
X003465Y011307D01*
X003424Y011280D01*
X003382Y011256D01*
X003338Y011236D01*
X003293Y011220D01*
X003246Y011207D01*
X003198Y011198D01*
X003150Y011193D01*
X003102Y011192D01*
X003054Y011195D01*
X003006Y011202D01*
X002959Y011213D01*
X002912Y011227D01*
X002868Y011246D01*
X002825Y011267D01*
X002783Y011293D01*
X002744Y011321D01*
X002708Y011353D01*
X002674Y011388D01*
X002643Y011425D01*
X002615Y011464D01*
X002591Y011506D01*
X002570Y011550D01*
X002552Y011595D01*
X002539Y011641D01*
X002529Y011689D01*
X002523Y011737D01*
X002521Y011785D01*
X002425Y011785D02*
X002427Y011837D01*
X002433Y011889D01*
X002443Y011940D01*
X002456Y011990D01*
X002474Y012040D01*
X002495Y012087D01*
X002519Y012133D01*
X002548Y012177D01*
X002579Y012219D01*
X002613Y012258D01*
X002650Y012295D01*
X002690Y012328D01*
X002733Y012359D01*
X002777Y012386D01*
X002823Y012410D01*
X002872Y012430D01*
X002921Y012446D01*
X002972Y012459D01*
X003023Y012468D01*
X003075Y012473D01*
X003127Y012474D01*
X003179Y012471D01*
X003231Y012464D01*
X003282Y012453D01*
X003332Y012439D01*
X003381Y012420D01*
X003428Y012398D01*
X003473Y012373D01*
X003517Y012344D01*
X003558Y012312D01*
X003597Y012277D01*
X003632Y012239D01*
X003665Y012198D01*
X003695Y012156D01*
X003721Y012111D01*
X003744Y012064D01*
X003763Y012015D01*
X003779Y011965D01*
X003791Y011915D01*
X003799Y011863D01*
X003803Y011811D01*
X003803Y011759D01*
X003799Y011707D01*
X003791Y011655D01*
X003779Y011605D01*
X003763Y011555D01*
X003744Y011506D01*
X003721Y011459D01*
X003695Y011414D01*
X003665Y011372D01*
X003632Y011331D01*
X003597Y011293D01*
X003558Y011258D01*
X003517Y011226D01*
X003473Y011197D01*
X003428Y011172D01*
X003381Y011150D01*
X003332Y011131D01*
X003282Y011117D01*
X003231Y011106D01*
X003179Y011099D01*
X003127Y011096D01*
X003075Y011097D01*
X003023Y011102D01*
X002972Y011111D01*
X002921Y011124D01*
X002872Y011140D01*
X002823Y011160D01*
X002777Y011184D01*
X002733Y011211D01*
X002690Y011242D01*
X002650Y011275D01*
X002613Y011312D01*
X002579Y011351D01*
X002548Y011393D01*
X002519Y011437D01*
X002495Y011483D01*
X002474Y011530D01*
X002456Y011580D01*
X002443Y011630D01*
X002433Y011681D01*
X002427Y011733D01*
X002425Y011785D01*
X002052Y010525D02*
X001917Y010390D01*
X002097Y010390D01*
X002052Y010255D02*
X002052Y010525D01*
X001713Y010525D02*
X001713Y010255D01*
X001623Y010255D02*
X001803Y010255D01*
X001623Y010435D02*
X001713Y010525D01*
X001508Y010480D02*
X001508Y010390D01*
X001463Y010345D01*
X001328Y010345D01*
X001328Y010255D02*
X001328Y010525D01*
X001463Y010525D01*
X001508Y010480D01*
X001418Y010345D02*
X001508Y010255D01*
X006739Y008420D02*
X006739Y008195D01*
X006784Y008150D01*
X006874Y008150D01*
X006919Y008195D01*
X006919Y008420D01*
X007033Y008375D02*
X007078Y008420D01*
X007168Y008420D01*
X007214Y008375D01*
X007214Y008330D01*
X007168Y008285D01*
X007214Y008240D01*
X007214Y008195D01*
X007168Y008150D01*
X007078Y008150D01*
X007033Y008195D01*
X007123Y008285D02*
X007168Y008285D01*
X010303Y008421D02*
X010303Y008556D01*
X010348Y008601D01*
X010438Y008601D01*
X010483Y008556D01*
X010483Y008421D01*
X010573Y008421D02*
X010303Y008421D01*
X010483Y008511D02*
X010573Y008601D01*
X010573Y008716D02*
X010573Y008896D01*
X010573Y008806D02*
X010303Y008806D01*
X010393Y008716D01*
X010438Y009010D02*
X010438Y009145D01*
X010483Y009191D01*
X010528Y009191D01*
X010573Y009145D01*
X010573Y009055D01*
X010528Y009010D01*
X010438Y009010D01*
X010348Y009100D01*
X010303Y009191D01*
X010258Y010355D02*
X010258Y010490D01*
X010303Y010535D01*
X010393Y010535D01*
X010438Y010490D01*
X010438Y010355D01*
X010528Y010355D02*
X010258Y010355D01*
X010438Y010445D02*
X010528Y010535D01*
X010528Y010650D02*
X010528Y010830D01*
X010528Y010740D02*
X010258Y010740D01*
X010348Y010650D01*
X010348Y010944D02*
X010258Y011034D01*
X010528Y011034D01*
X010528Y010944D02*
X010528Y011124D01*
X010548Y011671D02*
X010278Y011671D01*
X010278Y011806D01*
X010323Y011851D01*
X010413Y011851D01*
X010458Y011806D01*
X010458Y011671D01*
X010458Y011761D02*
X010548Y011851D01*
X010548Y011966D02*
X010548Y012146D01*
X010548Y012056D02*
X010278Y012056D01*
X010368Y011966D01*
X010368Y012260D02*
X010323Y012260D01*
X010278Y012305D01*
X010278Y012395D01*
X010323Y012441D01*
X010368Y012441D01*
X010413Y012395D01*
X010413Y012305D01*
X010368Y012260D01*
X010413Y012305D02*
X010458Y012260D01*
X010503Y012260D01*
X010548Y012305D01*
X010548Y012395D01*
X010503Y012441D01*
X010458Y012441D01*
X010413Y012395D01*
X012228Y012350D02*
X012273Y012305D01*
X012363Y012305D01*
X012408Y012350D01*
X012523Y012305D02*
X012703Y012305D01*
X012613Y012305D02*
X012613Y012575D01*
X012523Y012485D01*
X012408Y012530D02*
X012363Y012575D01*
X012273Y012575D01*
X012228Y012530D01*
X012228Y012350D01*
X015639Y012330D02*
X015684Y012285D01*
X015774Y012285D01*
X015819Y012330D01*
X015933Y012285D02*
X016114Y012465D01*
X016114Y012510D01*
X016068Y012555D01*
X015978Y012555D01*
X015933Y012510D01*
X015819Y012510D02*
X015774Y012555D01*
X015684Y012555D01*
X015639Y012510D01*
X015639Y012330D01*
X015933Y012285D02*
X016114Y012285D01*
X018203Y010325D02*
X018338Y010325D01*
X018383Y010280D01*
X018383Y010190D01*
X018338Y010145D01*
X018203Y010145D01*
X018203Y010055D02*
X018203Y010325D01*
X018293Y010145D02*
X018383Y010055D01*
X018498Y010055D02*
X018498Y010100D01*
X018678Y010280D01*
X018678Y010325D01*
X018498Y010325D01*
X018563Y009425D02*
X018563Y009155D01*
X018473Y009155D02*
X018653Y009155D01*
X018473Y009335D02*
X018563Y009425D01*
X018358Y009380D02*
X018358Y009290D01*
X018313Y009245D01*
X018178Y009245D01*
X018178Y009155D02*
X018178Y009425D01*
X018313Y009425D01*
X018358Y009380D01*
X018268Y009245D02*
X018358Y009155D01*
X016314Y009635D02*
X016133Y009635D01*
X016223Y009635D02*
X016223Y009905D01*
X016133Y009815D01*
X016019Y009860D02*
X016019Y009680D01*
X015974Y009635D01*
X015884Y009635D01*
X015839Y009680D01*
X015839Y009860D01*
X015884Y009905D01*
X015974Y009905D01*
X016019Y009860D01*
X015929Y009725D02*
X016019Y009635D01*
X018078Y008045D02*
X018123Y008091D01*
X018168Y008091D01*
X018213Y008045D01*
X018258Y008091D01*
X018303Y008091D01*
X018348Y008045D01*
X018348Y007955D01*
X018303Y007910D01*
X018303Y007796D02*
X018348Y007751D01*
X018348Y007661D01*
X018303Y007616D01*
X018123Y007616D01*
X018078Y007661D01*
X018078Y007751D01*
X018123Y007796D01*
X018123Y007910D02*
X018078Y007955D01*
X018078Y008045D01*
X018213Y008045D02*
X018213Y008000D01*
X020378Y007380D02*
X020378Y007200D01*
X020423Y007155D01*
X020513Y007155D01*
X020558Y007200D01*
X020673Y007200D02*
X020718Y007155D01*
X020808Y007155D01*
X020853Y007200D01*
X020853Y007380D01*
X020808Y007425D01*
X020718Y007425D01*
X020673Y007380D01*
X020673Y007335D01*
X020718Y007290D01*
X020853Y007290D01*
X020558Y007380D02*
X020513Y007425D01*
X020423Y007425D01*
X020378Y007380D01*
X020489Y006655D02*
X020444Y006610D01*
X020444Y006430D01*
X020489Y006385D01*
X020579Y006385D01*
X020624Y006430D01*
X020739Y006385D02*
X020919Y006385D01*
X020829Y006385D02*
X020829Y006655D01*
X020739Y006565D01*
X020624Y006610D02*
X020579Y006655D01*
X020489Y006655D01*
X021033Y006610D02*
X021078Y006655D01*
X021168Y006655D01*
X021214Y006610D01*
X021214Y006565D01*
X021033Y006385D01*
X021214Y006385D01*
X021378Y005175D02*
X021513Y005175D01*
X021558Y005130D01*
X021558Y005040D01*
X021513Y004995D01*
X021378Y004995D01*
X021378Y004905D02*
X021378Y005175D01*
X021673Y005175D02*
X021673Y004905D01*
X021763Y004995D01*
X021853Y004905D01*
X021853Y005175D01*
X021967Y005175D02*
X022102Y005175D01*
X022147Y005130D01*
X022147Y005040D01*
X022102Y004995D01*
X021967Y004995D01*
X021967Y004905D02*
X021967Y005175D01*
X022057Y004995D02*
X022147Y004905D01*
X022262Y004860D02*
X022442Y004860D01*
X022557Y004905D02*
X022737Y004905D01*
X022851Y004905D02*
X023031Y004905D01*
X023146Y004905D02*
X023281Y004905D01*
X023326Y004950D01*
X023326Y005130D01*
X023281Y005175D01*
X023146Y005175D01*
X023146Y004905D01*
X022941Y005040D02*
X022851Y005040D01*
X022851Y005175D02*
X022851Y004905D01*
X022557Y004905D02*
X022557Y005175D01*
X022851Y005175D02*
X023031Y005175D01*
X023728Y005225D02*
X023728Y004955D01*
X023728Y005045D02*
X023863Y005045D01*
X023908Y005090D01*
X023908Y005180D01*
X023863Y005225D01*
X023728Y005225D01*
X023818Y005045D02*
X023908Y004955D01*
X024023Y005000D02*
X024068Y004955D01*
X024158Y004955D01*
X024203Y005000D01*
X024203Y005045D01*
X024158Y005090D01*
X024023Y005090D01*
X024023Y005000D01*
X024023Y005090D02*
X024113Y005180D01*
X024203Y005225D01*
X024158Y007105D02*
X024068Y007105D01*
X024023Y007150D01*
X024023Y007195D01*
X024068Y007240D01*
X024158Y007240D01*
X024203Y007195D01*
X024203Y007150D01*
X024158Y007105D01*
X024158Y007240D02*
X024203Y007285D01*
X024203Y007330D01*
X024158Y007375D01*
X024068Y007375D01*
X024023Y007330D01*
X024023Y007285D01*
X024068Y007240D01*
X023908Y007150D02*
X023863Y007105D01*
X023773Y007105D01*
X023728Y007150D01*
X023728Y007330D01*
X023773Y007375D01*
X023863Y007375D01*
X023908Y007330D01*
X022464Y007870D02*
X022283Y007870D01*
X022418Y008005D01*
X022418Y007735D01*
X022169Y007780D02*
X022169Y008005D01*
X021989Y008005D02*
X021989Y007780D01*
X022034Y007735D01*
X022124Y007735D01*
X022169Y007780D01*
X022174Y009485D02*
X022084Y009485D01*
X022039Y009530D01*
X022039Y009710D01*
X022084Y009755D01*
X022174Y009755D01*
X022219Y009710D01*
X022333Y009755D02*
X022514Y009755D01*
X022514Y009710D01*
X022333Y009530D01*
X022333Y009485D01*
X022219Y009530D02*
X022174Y009485D01*
X022677Y010574D02*
X022677Y011558D01*
X027637Y011558D01*
X027637Y010574D01*
X022677Y010574D01*
X018348Y006595D02*
X018078Y006595D01*
X018213Y006460D01*
X018213Y006641D01*
X018303Y006346D02*
X018348Y006301D01*
X018348Y006211D01*
X018303Y006166D01*
X018123Y006166D01*
X018078Y006211D01*
X018078Y006301D01*
X018123Y006346D01*
X013570Y006380D02*
X013525Y006335D01*
X013300Y006335D01*
X013570Y006380D02*
X013570Y006470D01*
X013525Y006515D01*
X013300Y006515D01*
X013390Y006630D02*
X013300Y006720D01*
X013570Y006720D01*
X013570Y006630D02*
X013570Y006810D01*
X012608Y004275D02*
X012518Y004275D01*
X012473Y004230D01*
X012473Y004185D01*
X012518Y004140D01*
X012653Y004140D01*
X012653Y004050D02*
X012653Y004230D01*
X012608Y004275D01*
X012653Y004050D02*
X012608Y004005D01*
X012518Y004005D01*
X012473Y004050D01*
X012358Y004005D02*
X012268Y004095D01*
X012313Y004095D02*
X012178Y004095D01*
X012178Y004005D02*
X012178Y004275D01*
X012313Y004275D01*
X012358Y004230D01*
X012358Y004140D01*
X012313Y004095D01*
X012313Y003625D02*
X012178Y003625D01*
X012178Y003355D01*
X012178Y003445D02*
X012313Y003445D01*
X012358Y003490D01*
X012358Y003580D01*
X012313Y003625D01*
X012473Y003580D02*
X012518Y003625D01*
X012608Y003625D01*
X012653Y003580D01*
X012653Y003535D01*
X012608Y003490D01*
X012518Y003490D01*
X012473Y003535D01*
X012473Y003580D01*
X012518Y003490D02*
X012473Y003445D01*
X012473Y003400D01*
X012518Y003355D01*
X012608Y003355D01*
X012653Y003400D01*
X012653Y003445D01*
X012608Y003490D01*
X012358Y003355D02*
X012268Y003445D01*
D13*
X008853Y002030D02*
X008853Y001330D01*
X006553Y001330D01*
X006553Y002030D01*
X008853Y002030D01*
D14*
X008731Y009468D02*
X008584Y009468D01*
X008731Y009615D01*
X008731Y009651D01*
X008694Y009688D01*
X008621Y009688D01*
X008584Y009651D01*
X007731Y009468D02*
X007584Y009468D01*
X007658Y009468D02*
X007658Y009688D01*
X007584Y009615D01*
X007576Y011486D02*
X007613Y011522D01*
X007613Y011669D01*
X007576Y011706D01*
X007503Y011706D01*
X007466Y011669D01*
X007466Y011522D01*
X007503Y011486D01*
X007576Y011486D01*
X007687Y011486D02*
X007687Y011706D01*
X007834Y011486D01*
X007834Y011706D01*
X012803Y011780D02*
X015503Y011780D01*
X015503Y011480D02*
X012803Y011480D01*
X012765Y011479D01*
X012728Y011474D01*
X012691Y011467D01*
X012655Y011458D01*
X012619Y011445D01*
X012585Y011430D01*
X012142Y010530D02*
X012174Y010485D01*
X012210Y010443D01*
X012249Y010403D01*
X012291Y010366D01*
X012334Y010332D01*
X012381Y010301D01*
X012429Y010273D01*
X012479Y010249D01*
X012530Y010228D01*
X012583Y010211D01*
X012637Y010197D01*
X012692Y010188D01*
X012747Y010182D01*
X012803Y010180D01*
X015503Y010180D01*
X015503Y010480D02*
X012803Y010480D01*
X012142Y011430D02*
X012174Y011475D01*
X012210Y011517D01*
X012249Y011557D01*
X012290Y011594D01*
X012334Y011628D01*
X012381Y011659D01*
X012429Y011687D01*
X012479Y011711D01*
X012530Y011732D01*
X012583Y011749D01*
X012637Y011763D01*
X012692Y011772D01*
X012747Y011778D01*
X012803Y011780D01*
X012585Y010530D02*
X012619Y010515D01*
X012655Y010502D01*
X012691Y010493D01*
X012728Y010486D01*
X012765Y010481D01*
X012803Y010480D01*
X013753Y010980D02*
X013903Y010980D01*
X014403Y010980D02*
X014553Y010980D01*
X015503Y010180D02*
X015559Y010182D01*
X015614Y010188D01*
X015669Y010197D01*
X015723Y010211D01*
X015776Y010228D01*
X015827Y010249D01*
X015877Y010273D01*
X015925Y010301D01*
X015972Y010332D01*
X016016Y010366D01*
X016057Y010403D01*
X016096Y010443D01*
X016132Y010485D01*
X016164Y010530D01*
X016164Y011430D02*
X016132Y011475D01*
X016096Y011517D01*
X016057Y011557D01*
X016015Y011594D01*
X015972Y011628D01*
X015925Y011659D01*
X015877Y011687D01*
X015827Y011711D01*
X015776Y011732D01*
X015723Y011749D01*
X015669Y011763D01*
X015614Y011772D01*
X015559Y011778D01*
X015503Y011780D01*
X015503Y011480D02*
X015541Y011479D01*
X015578Y011474D01*
X015615Y011467D01*
X015651Y011458D01*
X015687Y011445D01*
X015721Y011430D01*
X015721Y010530D02*
X015687Y010515D01*
X015651Y010502D01*
X015615Y010493D01*
X015578Y010486D01*
X015541Y010481D01*
X015503Y010480D01*
X018877Y011380D02*
X018914Y011343D01*
X019061Y011343D01*
X019097Y011380D01*
X019097Y011453D01*
X019061Y011490D01*
X018914Y011490D01*
X018877Y011453D01*
X018877Y011380D01*
X018877Y011564D02*
X019097Y011711D01*
X018877Y011711D01*
X018877Y011564D02*
X019097Y011564D01*
X020895Y011535D02*
X021115Y011535D01*
X021115Y011608D02*
X021115Y011461D01*
X020968Y011461D02*
X020895Y011535D01*
D15*
X004924Y002151D03*
X004382Y002151D03*
X003924Y002151D03*
X003382Y002151D03*
X002924Y002151D03*
X002382Y002151D03*
X001924Y002151D03*
X001382Y002151D03*
D16*
X001653Y001999D03*
X002653Y001999D03*
X003653Y001999D03*
X004653Y001999D03*
X022472Y005630D03*
D17*
X022624Y005359D03*
X022624Y005901D03*
D18*
X022804Y007329D02*
X021702Y007329D01*
X021702Y008431D01*
X022804Y008431D01*
X022804Y007329D01*
X021273Y010780D02*
X018733Y010780D01*
X018733Y010999D01*
X019216Y011235D02*
X020790Y011235D01*
X020790Y011825D01*
X019216Y011825D01*
X019216Y011235D01*
X018733Y011999D02*
X018733Y012270D01*
X021273Y012270D01*
X021273Y011999D01*
X021273Y011272D02*
X020790Y010790D01*
X021273Y010780D02*
X021273Y010999D01*
X021273Y011272D01*
X009393Y011850D02*
X009393Y009310D01*
X009175Y009310D01*
X008948Y009793D02*
X008358Y009793D01*
X008358Y011367D01*
X008948Y011367D01*
X008948Y009793D01*
X008175Y009310D02*
X008122Y009310D01*
X007948Y009793D02*
X007358Y009793D01*
X007358Y011367D01*
X007948Y011367D01*
X007948Y009793D01*
X007395Y009310D02*
X006903Y009310D01*
X006903Y011850D01*
X007122Y011850D01*
X008122Y011850D02*
X008175Y011850D01*
X009175Y011850D02*
X009393Y011850D01*
X006913Y009793D02*
X007395Y009310D01*
X007122Y009310D01*
D19*
X007653Y010088D03*
X008653Y010088D03*
X020495Y011530D03*
D20*
X027403Y008430D02*
X029653Y008430D01*
X029653Y007430D02*
X027403Y007430D01*
X027403Y006430D02*
X029653Y006430D01*
X029653Y005430D02*
X027403Y005430D01*
X027403Y004430D02*
X029653Y004430D01*
X029653Y003430D02*
X027403Y003430D01*
D21*
X027253Y003430D03*
X027253Y004430D03*
X027253Y005430D03*
X027253Y006430D03*
X027253Y007430D03*
X027253Y008430D03*
D22*
X025953Y008430D03*
X025953Y007430D03*
X025953Y006430D03*
X025953Y005430D03*
X025953Y004430D03*
X025953Y003430D03*
D23*
X022647Y007486D03*
M02*
