G75*
%MOIN*%
%OFA0B0*%
%FSLAX24Y24*%
%IPPOS*%
%LPD*%
%AMOC8*
5,1,8,0,0,1.08239X$1,22.5*
%
%ADD10C,0.0080*%
%ADD11R,0.0630X0.0220*%
%ADD12R,0.0433X0.0394*%
%ADD13C,0.0640*%
%ADD14R,0.1811X0.0394*%
%ADD15R,0.1339X0.0630*%
%ADD16R,0.0354X0.0276*%
%ADD17OC8,0.0640*%
%ADD18C,0.0397*%
%ADD19C,0.0120*%
%ADD20C,0.0160*%
%ADD21C,0.0100*%
D10*
X001708Y001460D02*
X001748Y001420D01*
X001828Y001420D01*
X001868Y001460D01*
X001708Y001620D01*
X001708Y001460D01*
X001708Y001620D02*
X001748Y001660D01*
X001828Y001660D01*
X001868Y001620D01*
X001868Y001460D01*
X002003Y001420D02*
X002003Y001580D01*
X002083Y001660D01*
X002163Y001580D01*
X002163Y001420D01*
X002163Y001540D02*
X002003Y001540D01*
X002103Y001920D02*
X002263Y001920D01*
X002183Y001920D02*
X002183Y002160D01*
X002263Y002080D01*
X001813Y002120D02*
X001813Y001960D01*
X001653Y002120D01*
X001653Y001960D01*
X001693Y001920D01*
X001773Y001920D01*
X001813Y001960D01*
X001813Y002120D02*
X001773Y002160D01*
X001693Y002160D01*
X001653Y002120D01*
X002903Y002120D02*
X002903Y001960D01*
X002943Y001920D01*
X003023Y001920D01*
X003063Y001960D01*
X002903Y002120D01*
X002943Y002160D01*
X003023Y002160D01*
X003063Y002120D01*
X003063Y001960D01*
X003353Y001920D02*
X003513Y001920D01*
X003433Y001920D02*
X003433Y002160D01*
X003513Y002080D01*
X004153Y002120D02*
X004153Y001960D01*
X004193Y001920D01*
X004273Y001920D01*
X004313Y001960D01*
X004153Y002120D01*
X004193Y002160D01*
X004273Y002160D01*
X004313Y002120D01*
X004313Y001960D01*
X004603Y001920D02*
X004763Y001920D01*
X004683Y001920D02*
X004683Y002160D01*
X004763Y002080D01*
X004583Y001660D02*
X004503Y001580D01*
X004503Y001420D01*
X004503Y001540D02*
X004663Y001540D01*
X004663Y001580D02*
X004583Y001660D01*
X004663Y001580D02*
X004663Y001420D01*
X004368Y001420D02*
X004208Y001580D01*
X004208Y001620D01*
X004248Y001660D01*
X004328Y001660D01*
X004368Y001620D01*
X004368Y001420D02*
X004208Y001420D01*
X003413Y001420D02*
X003413Y001580D01*
X003333Y001660D01*
X003253Y001580D01*
X003253Y001420D01*
X003253Y001540D02*
X003413Y001540D01*
X003118Y001580D02*
X003038Y001660D01*
X003038Y001420D01*
X003118Y001420D02*
X002958Y001420D01*
X011714Y008740D02*
X011754Y008700D01*
X011874Y008700D01*
X011874Y008620D02*
X011874Y008860D01*
X011754Y008860D01*
X011714Y008820D01*
X011714Y008740D01*
X012008Y008660D02*
X012008Y008820D01*
X012048Y008860D01*
X012128Y008860D01*
X012168Y008820D01*
X012168Y008660D01*
X012128Y008620D01*
X012048Y008620D01*
X012008Y008660D01*
X012303Y008860D02*
X012463Y008860D01*
X012383Y008860D02*
X012383Y008620D01*
D11*
X011843Y007980D03*
X011843Y007480D03*
X011843Y006980D03*
X011843Y006480D03*
X013863Y006480D03*
X013863Y006980D03*
X013863Y007480D03*
X013863Y007980D03*
D12*
X012488Y005780D03*
X011818Y005780D03*
D13*
X011403Y001250D02*
X011403Y000610D01*
X012403Y000610D02*
X012403Y001250D01*
X013403Y001250D02*
X013403Y000610D01*
X014403Y000610D02*
X014403Y001250D01*
X015403Y001250D02*
X015403Y000610D01*
X016403Y000610D02*
X016403Y001250D01*
X017403Y001250D02*
X017403Y000610D01*
X018403Y000610D02*
X018403Y001250D01*
X019403Y001250D02*
X019403Y000610D01*
X020403Y000610D02*
X020403Y001250D01*
X021403Y001250D02*
X021403Y000610D01*
X022403Y000610D02*
X022403Y001250D01*
X023403Y001250D02*
X023403Y000610D01*
X024403Y000610D02*
X024403Y001250D01*
X025403Y001250D02*
X025403Y000610D01*
X026403Y000610D02*
X026403Y001250D01*
X027403Y001250D02*
X027403Y000610D01*
X025723Y003430D02*
X025083Y003430D01*
X025083Y004430D02*
X025723Y004430D01*
X025723Y005430D02*
X025083Y005430D01*
X025083Y006430D02*
X025723Y006430D01*
X025723Y007430D02*
X025083Y007430D01*
X025083Y008430D02*
X025723Y008430D01*
X010403Y001250D02*
X010403Y000610D01*
D14*
X024985Y010911D03*
X024985Y011699D03*
D15*
X022937Y012644D03*
X022937Y009966D03*
D16*
X004703Y003386D03*
X004203Y003386D03*
X003453Y003386D03*
X002953Y003386D03*
X002203Y003386D03*
X001703Y003386D03*
X001703Y002874D03*
X002203Y002874D03*
X002953Y002874D03*
X003453Y002874D03*
X004203Y002874D03*
X004703Y002874D03*
D17*
X019403Y003280D03*
X020503Y003280D03*
X021603Y003280D03*
X022703Y003280D03*
X019753Y009980D03*
D18*
X017353Y009980D03*
X017353Y009380D03*
X017353Y008780D03*
X016453Y008780D03*
X016353Y007780D03*
X016853Y007780D03*
X018553Y007780D03*
X018553Y006780D03*
X019653Y006480D03*
X019953Y005980D03*
X018353Y005180D03*
X015053Y007080D03*
X014703Y007430D03*
X013053Y007580D03*
X013053Y006980D03*
X013053Y006480D03*
X013403Y006080D03*
X012153Y005180D03*
X013953Y004480D03*
X013953Y003880D03*
X013953Y003280D03*
X011403Y002980D03*
X010353Y002980D03*
X009703Y002680D03*
X009153Y002380D03*
X006653Y003180D03*
X009153Y004180D03*
X009353Y004780D03*
X009353Y005580D03*
X009353Y006380D03*
X007153Y006180D03*
X007153Y006830D03*
X002503Y005930D03*
X001653Y005280D03*
X001653Y009280D03*
X005653Y009230D03*
X006353Y009780D03*
X009853Y009780D03*
X013453Y008880D03*
X026453Y011680D03*
X027253Y010880D03*
X025853Y002380D03*
X023953Y002380D03*
X021903Y002130D03*
X005253Y001180D03*
D19*
X004703Y003386D02*
X004703Y003430D01*
X005053Y003780D01*
X007253Y003780D01*
X008253Y004780D01*
X009353Y004780D01*
X009353Y005580D02*
X008353Y005580D01*
X007153Y004380D01*
X003953Y004380D01*
X003453Y003880D01*
X003453Y003386D01*
X002203Y003386D02*
X002203Y004130D01*
X003153Y005080D01*
X007053Y005080D01*
X008353Y006380D01*
X009353Y006380D01*
X011353Y006245D02*
X011353Y007780D01*
X011553Y007980D01*
X011843Y007980D01*
X012243Y008380D01*
X014253Y008380D01*
X014253Y006980D02*
X013863Y006980D01*
X011818Y005780D02*
X011818Y005615D01*
X011818Y005780D02*
X011353Y006245D01*
X007153Y006830D02*
X007153Y007730D01*
X005653Y009230D01*
X006353Y009780D02*
X002153Y009780D01*
X001653Y009280D01*
X001653Y005280D01*
X006353Y009780D02*
X009853Y009780D01*
D20*
X000833Y012996D02*
X000833Y000360D01*
X009965Y000360D01*
X009903Y000511D01*
X009903Y001349D01*
X009979Y001533D01*
X010120Y001674D01*
X010304Y001750D01*
X010502Y001750D01*
X010686Y001674D01*
X010827Y001533D01*
X010903Y001349D01*
X010903Y000511D01*
X010841Y000360D01*
X010965Y000360D01*
X010903Y000511D01*
X010903Y001349D01*
X010979Y001533D01*
X011120Y001674D01*
X011304Y001750D01*
X011502Y001750D01*
X011686Y001674D01*
X011827Y001533D01*
X011903Y001349D01*
X011903Y000511D01*
X011841Y000360D01*
X011965Y000360D01*
X011903Y000511D01*
X011903Y001349D01*
X011979Y001533D01*
X012120Y001674D01*
X012304Y001750D01*
X012502Y001750D01*
X012686Y001674D01*
X012827Y001533D01*
X012903Y001349D01*
X012903Y000511D01*
X012841Y000360D01*
X012965Y000360D01*
X012903Y000511D01*
X012903Y001349D01*
X012979Y001533D01*
X013120Y001674D01*
X013304Y001750D01*
X013502Y001750D01*
X013686Y001674D01*
X013827Y001533D01*
X013903Y001349D01*
X013903Y000511D01*
X013841Y000360D01*
X013965Y000360D01*
X013903Y000511D01*
X013903Y001349D01*
X013979Y001533D01*
X014120Y001674D01*
X014304Y001750D01*
X014502Y001750D01*
X014686Y001674D01*
X014827Y001533D01*
X014903Y001349D01*
X014903Y000511D01*
X014841Y000360D01*
X014965Y000360D01*
X014903Y000511D01*
X014903Y001349D01*
X014979Y001533D01*
X015120Y001674D01*
X015173Y001696D01*
X015173Y002335D01*
X014323Y003185D01*
X014274Y003066D01*
X014167Y002959D01*
X014028Y002902D01*
X013900Y002902D01*
X013883Y002885D01*
X013748Y002750D01*
X011708Y002750D01*
X011617Y002659D01*
X011478Y002602D01*
X011328Y002602D01*
X011189Y002659D01*
X011098Y002750D01*
X010658Y002750D01*
X010567Y002659D01*
X010428Y002602D01*
X010278Y002602D01*
X010139Y002659D01*
X010032Y002766D01*
X009975Y002905D01*
X009975Y003055D01*
X010032Y003194D01*
X010139Y003301D01*
X010278Y003358D01*
X010428Y003358D01*
X010567Y003301D01*
X010658Y003210D01*
X011098Y003210D01*
X011189Y003301D01*
X011328Y003358D01*
X011478Y003358D01*
X011617Y003301D01*
X011708Y003210D01*
X013558Y003210D01*
X013575Y003227D01*
X013575Y003355D01*
X013632Y003494D01*
X013718Y003580D01*
X013632Y003666D01*
X013575Y003805D01*
X013575Y003955D01*
X013632Y004094D01*
X013718Y004180D01*
X013632Y004266D01*
X013575Y004405D01*
X013575Y004555D01*
X013632Y004694D01*
X013739Y004801D01*
X013878Y004858D01*
X014028Y004858D01*
X014167Y004801D01*
X014258Y004710D01*
X019798Y004710D01*
X020598Y003910D01*
X020733Y003775D01*
X020733Y003757D01*
X021003Y003487D01*
X021003Y003073D01*
X020733Y002803D01*
X020733Y002425D01*
X021148Y002010D01*
X021543Y002010D01*
X021525Y002055D01*
X021525Y002205D01*
X021582Y002344D01*
X021689Y002451D01*
X021828Y002508D01*
X021956Y002508D01*
X022058Y002610D01*
X023648Y002610D01*
X023739Y002701D01*
X023878Y002758D01*
X024028Y002758D01*
X024167Y002701D01*
X024173Y002695D01*
X024173Y002835D01*
X024023Y002985D01*
X024023Y004885D01*
X023758Y005150D01*
X023758Y005150D01*
X023623Y005285D01*
X023623Y007985D01*
X023458Y008150D01*
X018649Y008150D01*
X018767Y008101D01*
X018874Y007994D01*
X018931Y007855D01*
X018931Y007769D01*
X019800Y006900D01*
X019873Y006827D01*
X019896Y006772D01*
X019928Y006740D01*
X020205Y006740D01*
X020300Y006700D01*
X020373Y006627D01*
X022923Y004077D01*
X022963Y003982D01*
X022963Y003727D01*
X023203Y003487D01*
X023203Y003073D01*
X022910Y002780D01*
X022496Y002780D01*
X022203Y003073D01*
X022203Y003487D01*
X022443Y003727D01*
X022443Y003822D01*
X020045Y006220D01*
X019928Y006220D01*
X019867Y006159D01*
X019728Y006102D01*
X019578Y006102D01*
X019439Y006159D01*
X019378Y006220D01*
X018801Y006220D01*
X018706Y006260D01*
X018633Y006333D01*
X018564Y006402D01*
X018478Y006402D01*
X018339Y006459D01*
X018232Y006566D01*
X018175Y006705D01*
X018175Y006855D01*
X018232Y006994D01*
X018339Y007101D01*
X018478Y007158D01*
X018628Y007158D01*
X018767Y007101D01*
X018874Y006994D01*
X018931Y006855D01*
X018931Y006769D01*
X018961Y006740D01*
X019225Y006740D01*
X018564Y007402D01*
X018478Y007402D01*
X018339Y007459D01*
X018232Y007566D01*
X018175Y007705D01*
X018175Y007776D01*
X017483Y007085D01*
X017483Y007085D01*
X017348Y006950D01*
X016158Y006950D01*
X016023Y007085D01*
X016023Y007085D01*
X015858Y007250D01*
X015858Y007250D01*
X015723Y007385D01*
X015723Y008325D01*
X015283Y007885D01*
X015283Y007385D01*
X015374Y007294D01*
X015431Y007155D01*
X015431Y007005D01*
X015374Y006866D01*
X015267Y006759D01*
X015128Y006702D01*
X014978Y006702D01*
X014839Y006759D01*
X014732Y006866D01*
X014675Y007005D01*
X014675Y007052D01*
X014628Y007052D01*
X014583Y007070D01*
X014583Y006985D01*
X014466Y006868D01*
X014456Y006844D01*
X014389Y006777D01*
X014365Y006767D01*
X014348Y006750D01*
X014325Y006750D01*
X014304Y006741D01*
X014293Y006730D01*
X014322Y006701D01*
X014346Y006659D01*
X014358Y006614D01*
X014358Y006480D01*
X013863Y006480D01*
X013863Y006480D01*
X013863Y006190D01*
X013767Y006190D01*
X013781Y006155D01*
X013781Y006005D01*
X013724Y005866D01*
X013617Y005759D01*
X013478Y005702D01*
X013328Y005702D01*
X013189Y005759D01*
X013082Y005866D01*
X013025Y006005D01*
X013025Y006102D01*
X012978Y006102D01*
X012839Y006159D01*
X012748Y006250D01*
X012293Y006250D01*
X012233Y006190D01*
X011748Y006190D01*
X011781Y006157D01*
X012109Y006157D01*
X012153Y006113D01*
X012161Y006121D01*
X012202Y006145D01*
X012247Y006157D01*
X012469Y006157D01*
X012469Y005798D01*
X012506Y005798D01*
X012884Y005798D01*
X012884Y006001D01*
X012872Y006046D01*
X012848Y006087D01*
X012815Y006121D01*
X012774Y006145D01*
X012728Y006157D01*
X012506Y006157D01*
X012506Y005798D01*
X012506Y005762D01*
X012884Y005762D01*
X012884Y005559D01*
X012872Y005514D01*
X012848Y005473D01*
X012816Y005440D01*
X018078Y005440D01*
X018139Y005501D01*
X018278Y005558D01*
X018428Y005558D01*
X018567Y005501D01*
X018674Y005394D01*
X018731Y005255D01*
X018731Y005105D01*
X018674Y004966D01*
X018567Y004859D01*
X018428Y004802D01*
X018278Y004802D01*
X018139Y004859D01*
X018078Y004920D01*
X012428Y004920D01*
X012367Y004859D01*
X012228Y004802D01*
X012078Y004802D01*
X011939Y004859D01*
X011878Y004920D01*
X011661Y004920D01*
X009413Y002672D01*
X009413Y002655D01*
X009474Y002594D01*
X009531Y002455D01*
X009531Y002305D01*
X009474Y002166D01*
X009367Y002059D01*
X009228Y002002D01*
X009078Y002002D01*
X008939Y002059D01*
X008832Y002166D01*
X008775Y002305D01*
X008775Y002455D01*
X008832Y002594D01*
X008893Y002655D01*
X008893Y002832D01*
X008933Y002927D01*
X009006Y003000D01*
X011406Y005400D01*
X011494Y005437D01*
X011422Y005509D01*
X011422Y005837D01*
X011217Y006042D01*
X011150Y006109D01*
X011113Y006198D01*
X011113Y007828D01*
X011150Y007916D01*
X011348Y008114D01*
X011348Y008165D01*
X011453Y008270D01*
X011794Y008270D01*
X011924Y008400D01*
X011783Y008400D01*
X011703Y008480D01*
X011662Y008480D01*
X011534Y008609D01*
X011494Y008649D01*
X011494Y008729D01*
X011494Y008729D01*
X011494Y008818D01*
X011494Y008911D01*
X011494Y008911D01*
X011494Y008911D01*
X011535Y008953D01*
X011622Y009040D01*
X011622Y009040D01*
X011662Y009080D01*
X011662Y009080D01*
X011662Y009080D01*
X011755Y009080D01*
X011957Y009080D01*
X011957Y009080D01*
X012054Y009080D01*
X012554Y009080D01*
X012683Y008951D01*
X012683Y008769D01*
X012603Y008689D01*
X012603Y008620D01*
X013178Y008620D01*
X013132Y008666D01*
X013075Y008805D01*
X013075Y008955D01*
X013132Y009094D01*
X013239Y009201D01*
X013378Y009258D01*
X013528Y009258D01*
X013667Y009201D01*
X013758Y009110D01*
X014058Y009110D01*
X014323Y009375D01*
X014458Y009510D01*
X015458Y009510D01*
X016423Y010475D01*
X016558Y010610D01*
X019058Y010610D01*
X019223Y010775D01*
X019358Y010910D01*
X020998Y010910D01*
X022088Y009820D01*
X022088Y010356D01*
X022194Y010461D01*
X023681Y010461D01*
X023787Y010356D01*
X023787Y009710D01*
X026148Y009710D01*
X026748Y009110D01*
X026883Y008975D01*
X026883Y002985D01*
X026231Y002333D01*
X026231Y002305D01*
X026174Y002166D01*
X026067Y002059D01*
X025928Y002002D01*
X025778Y002002D01*
X025639Y002059D01*
X025633Y002065D01*
X025633Y001696D01*
X025686Y001674D01*
X025827Y001533D01*
X025903Y001349D01*
X025903Y000511D01*
X025841Y000360D01*
X025965Y000360D01*
X025903Y000511D01*
X025903Y001349D01*
X025979Y001533D01*
X026120Y001674D01*
X026304Y001750D01*
X026502Y001750D01*
X026686Y001674D01*
X026827Y001533D01*
X026903Y001349D01*
X026903Y000511D01*
X026841Y000360D01*
X026969Y000360D01*
X026940Y000418D01*
X026915Y000493D01*
X026903Y000571D01*
X026903Y000910D01*
X027383Y000910D01*
X027383Y000950D01*
X026903Y000950D01*
X026903Y001289D01*
X026915Y001367D01*
X026940Y001442D01*
X026975Y001512D01*
X027022Y001576D01*
X027077Y001631D01*
X027141Y001678D01*
X027211Y001713D01*
X027286Y001738D01*
X027364Y001750D01*
X027383Y001750D01*
X027383Y000950D01*
X027423Y000950D01*
X027423Y001750D01*
X027442Y001750D01*
X027520Y001738D01*
X027595Y001713D01*
X027665Y001678D01*
X027729Y001631D01*
X027784Y001576D01*
X027831Y001512D01*
X027866Y001442D01*
X027891Y001367D01*
X027903Y001289D01*
X027903Y000950D01*
X027423Y000950D01*
X027423Y000910D01*
X027903Y000910D01*
X027903Y000571D01*
X027891Y000493D01*
X027866Y000418D01*
X027837Y000360D01*
X027968Y000360D01*
X027968Y012996D01*
X023787Y012996D01*
X023787Y012254D01*
X023681Y012149D01*
X022194Y012149D01*
X022088Y012254D01*
X022088Y012996D01*
X000833Y012996D01*
X000833Y012942D02*
X022088Y012942D01*
X022088Y012784D02*
X000833Y012784D01*
X000833Y012625D02*
X022088Y012625D01*
X022088Y012467D02*
X000833Y012467D01*
X000833Y012308D02*
X022088Y012308D01*
X022193Y012150D02*
X000833Y012150D01*
X000833Y011991D02*
X023926Y011991D01*
X023935Y012006D02*
X023911Y011965D01*
X023899Y011919D01*
X023899Y011717D01*
X024966Y011717D01*
X024966Y011680D01*
X025003Y011680D01*
X025003Y011322D01*
X025914Y011322D01*
X025960Y011334D01*
X026001Y011358D01*
X026034Y011391D01*
X026058Y011432D01*
X026070Y011478D01*
X026070Y011680D01*
X025003Y011680D01*
X025003Y011717D01*
X024966Y011717D01*
X024966Y012076D01*
X024056Y012076D01*
X024010Y012063D01*
X023969Y012040D01*
X023935Y012006D01*
X023899Y011833D02*
X023352Y011833D01*
X023340Y011844D02*
X023216Y011895D01*
X023082Y011895D01*
X022958Y011844D01*
X022863Y011749D01*
X022812Y011625D01*
X022812Y011491D01*
X022863Y011367D01*
X022958Y011272D01*
X023082Y011220D01*
X023216Y011220D01*
X023340Y011272D01*
X023435Y011367D01*
X023487Y011491D01*
X023487Y011625D01*
X023435Y011749D01*
X023340Y011844D01*
X023466Y011674D02*
X023899Y011674D01*
X023899Y011680D02*
X023899Y011478D01*
X023911Y011432D01*
X023935Y011391D01*
X023969Y011358D01*
X024010Y011334D01*
X024056Y011322D01*
X024966Y011322D01*
X024966Y011680D01*
X023899Y011680D01*
X023899Y011516D02*
X023487Y011516D01*
X023425Y011357D02*
X023970Y011357D01*
X024005Y011288D02*
X023899Y011183D01*
X023899Y010640D01*
X024005Y010534D01*
X025048Y010534D01*
X025051Y010533D01*
X025155Y010533D01*
X025158Y010534D01*
X025965Y010534D01*
X026050Y010620D01*
X026978Y010620D01*
X027039Y010559D01*
X027178Y010502D01*
X027328Y010502D01*
X027467Y010559D01*
X027574Y010666D01*
X027631Y010805D01*
X027631Y010955D01*
X027574Y011094D01*
X027467Y011201D01*
X027328Y011258D01*
X027324Y011258D01*
X027356Y011272D01*
X027451Y011367D01*
X027502Y011491D01*
X027502Y011625D01*
X027451Y011749D01*
X027356Y011844D01*
X027232Y011895D01*
X027098Y011895D01*
X026974Y011844D01*
X026879Y011749D01*
X026827Y011625D01*
X026827Y011491D01*
X026879Y011367D01*
X026974Y011272D01*
X027092Y011223D01*
X027039Y011201D01*
X026978Y011140D01*
X026070Y011140D01*
X026070Y011183D01*
X025965Y011288D01*
X024005Y011288D01*
X023915Y011199D02*
X000833Y011199D01*
X000833Y011357D02*
X022873Y011357D01*
X022812Y011516D02*
X000833Y011516D01*
X000833Y011674D02*
X022832Y011674D01*
X022946Y011833D02*
X000833Y011833D01*
X000833Y011040D02*
X023899Y011040D01*
X023899Y010882D02*
X021027Y010882D01*
X021185Y010723D02*
X023899Y010723D01*
X023975Y010565D02*
X021344Y010565D01*
X021502Y010406D02*
X022138Y010406D01*
X022088Y010248D02*
X021661Y010248D01*
X021819Y010089D02*
X022088Y010089D01*
X022088Y009931D02*
X021978Y009931D01*
X023787Y009931D02*
X027968Y009931D01*
X027968Y010089D02*
X023787Y010089D01*
X023787Y010248D02*
X027968Y010248D01*
X027968Y010406D02*
X023737Y010406D01*
X024985Y010911D02*
X025103Y010793D01*
X025190Y010880D01*
X027253Y010880D01*
X027631Y010882D02*
X027968Y010882D01*
X027968Y011040D02*
X027596Y011040D01*
X027470Y011199D02*
X027968Y011199D01*
X027968Y011357D02*
X027441Y011357D01*
X027036Y011199D02*
X026054Y011199D01*
X025999Y011357D02*
X026888Y011357D01*
X026827Y011516D02*
X026070Y011516D01*
X026070Y011674D02*
X026848Y011674D01*
X026962Y011833D02*
X026070Y011833D01*
X026070Y011919D02*
X026070Y011717D01*
X025003Y011717D01*
X025003Y012076D01*
X025914Y012076D01*
X025960Y012063D01*
X026001Y012040D01*
X026034Y012006D01*
X026058Y011965D01*
X026070Y011919D01*
X026043Y011991D02*
X027968Y011991D01*
X027968Y011833D02*
X027368Y011833D01*
X027482Y011674D02*
X027968Y011674D01*
X027968Y011516D02*
X027502Y011516D01*
X027968Y012150D02*
X023682Y012150D01*
X023787Y012308D02*
X027968Y012308D01*
X027968Y012467D02*
X023787Y012467D01*
X023787Y012625D02*
X027968Y012625D01*
X027968Y012784D02*
X023787Y012784D01*
X023787Y012942D02*
X027968Y012942D01*
X025003Y011991D02*
X024966Y011991D01*
X024966Y011833D02*
X025003Y011833D01*
X025003Y011674D02*
X024966Y011674D01*
X024966Y011516D02*
X025003Y011516D01*
X025003Y011357D02*
X024966Y011357D01*
X025995Y010565D02*
X027033Y010565D01*
X027473Y010565D02*
X027968Y010565D01*
X027968Y010723D02*
X027598Y010723D01*
X027968Y009772D02*
X023787Y009772D01*
X024208Y009250D02*
X025958Y009250D01*
X026423Y008785D01*
X026423Y003175D01*
X025983Y002736D01*
X025928Y002758D01*
X025778Y002758D01*
X025639Y002701D01*
X025532Y002594D01*
X025512Y002546D01*
X025128Y002930D01*
X025822Y002930D01*
X026006Y003006D01*
X026147Y003147D01*
X026223Y003331D01*
X026223Y003529D01*
X026147Y003713D01*
X026006Y003854D01*
X025822Y003930D01*
X026006Y004006D01*
X026147Y004147D01*
X026223Y004331D01*
X026223Y004529D01*
X026147Y004713D01*
X026006Y004854D01*
X025822Y004930D01*
X026006Y005006D01*
X026147Y005147D01*
X026223Y005331D01*
X026223Y005529D01*
X026147Y005713D01*
X026006Y005854D01*
X025822Y005930D01*
X026006Y006006D01*
X026147Y006147D01*
X026223Y006331D01*
X026223Y006529D01*
X026147Y006713D01*
X026006Y006854D01*
X025822Y006930D01*
X026006Y007006D01*
X026147Y007147D01*
X026223Y007331D01*
X026223Y007529D01*
X026147Y007713D01*
X026006Y007854D01*
X025822Y007930D01*
X024984Y007930D01*
X024800Y007854D01*
X024683Y007737D01*
X024683Y008130D01*
X024702Y008104D01*
X024757Y008049D01*
X024821Y008002D01*
X024891Y007967D01*
X024966Y007942D01*
X025044Y007930D01*
X025383Y007930D01*
X025383Y008410D01*
X025423Y008410D01*
X025423Y007930D01*
X025762Y007930D01*
X025840Y007942D01*
X025915Y007967D01*
X025985Y008002D01*
X026049Y008049D01*
X026104Y008104D01*
X026151Y008168D01*
X026186Y008238D01*
X026211Y008313D01*
X026223Y008391D01*
X026223Y008410D01*
X025423Y008410D01*
X025423Y008450D01*
X025383Y008450D01*
X025383Y008930D01*
X025044Y008930D01*
X024966Y008918D01*
X024891Y008893D01*
X024821Y008858D01*
X024757Y008811D01*
X024702Y008756D01*
X024683Y008730D01*
X024683Y008775D01*
X024208Y009250D01*
X024320Y009138D02*
X026070Y009138D01*
X026228Y008980D02*
X024479Y008980D01*
X024637Y008821D02*
X024771Y008821D01*
X025383Y008821D02*
X025423Y008821D01*
X025423Y008930D02*
X025423Y008450D01*
X026223Y008450D01*
X026223Y008469D01*
X026211Y008547D01*
X026186Y008622D01*
X026151Y008692D01*
X026104Y008756D01*
X026049Y008811D01*
X025985Y008858D01*
X025915Y008893D01*
X025840Y008918D01*
X025762Y008930D01*
X025423Y008930D01*
X025423Y008663D02*
X025383Y008663D01*
X025383Y008504D02*
X025423Y008504D01*
X025423Y008346D02*
X025383Y008346D01*
X025383Y008187D02*
X025423Y008187D01*
X025423Y008029D02*
X025383Y008029D01*
X024839Y007870D02*
X024683Y007870D01*
X024683Y008029D02*
X024785Y008029D01*
X023623Y007870D02*
X018925Y007870D01*
X018989Y007712D02*
X023623Y007712D01*
X023623Y007553D02*
X019148Y007553D01*
X019306Y007395D02*
X023623Y007395D01*
X023623Y007236D02*
X019465Y007236D01*
X019623Y007078D02*
X023623Y007078D01*
X023623Y006919D02*
X019782Y006919D01*
X019908Y006761D02*
X023623Y006761D01*
X023623Y006602D02*
X020399Y006602D01*
X020557Y006444D02*
X023623Y006444D01*
X023623Y006285D02*
X020716Y006285D01*
X020874Y006127D02*
X023623Y006127D01*
X023623Y005968D02*
X021033Y005968D01*
X021191Y005810D02*
X023623Y005810D01*
X023623Y005651D02*
X021350Y005651D01*
X021508Y005493D02*
X023623Y005493D01*
X023623Y005334D02*
X021667Y005334D01*
X021825Y005176D02*
X023732Y005176D01*
X023891Y005017D02*
X021984Y005017D01*
X022142Y004859D02*
X024023Y004859D01*
X024023Y004700D02*
X022301Y004700D01*
X022459Y004542D02*
X024023Y004542D01*
X024023Y004383D02*
X022618Y004383D01*
X022776Y004225D02*
X024023Y004225D01*
X024023Y004066D02*
X022928Y004066D01*
X022963Y003908D02*
X024023Y003908D01*
X024023Y003749D02*
X022963Y003749D01*
X022703Y003930D02*
X020153Y006480D01*
X019653Y006480D01*
X018853Y006480D01*
X018553Y006780D01*
X018905Y006919D02*
X019046Y006919D01*
X018940Y006761D02*
X019205Y006761D01*
X019653Y006680D02*
X019653Y006480D01*
X019653Y006680D02*
X018553Y007780D01*
X018840Y008029D02*
X023579Y008029D01*
X024683Y007123D02*
X024800Y007006D01*
X024984Y006930D01*
X025822Y006930D01*
X024984Y006930D01*
X024800Y006854D01*
X024683Y006737D01*
X024683Y007123D01*
X024683Y007078D02*
X024728Y007078D01*
X024683Y006919D02*
X024957Y006919D01*
X024706Y006761D02*
X024683Y006761D01*
X024683Y006123D02*
X024800Y006006D01*
X024984Y005930D01*
X025822Y005930D01*
X024984Y005930D01*
X024874Y005885D01*
X024683Y006075D01*
X024683Y006123D01*
X024790Y005968D02*
X024892Y005968D01*
X025914Y005968D02*
X026423Y005968D01*
X026423Y006127D02*
X026127Y006127D01*
X026204Y006285D02*
X026423Y006285D01*
X026423Y006444D02*
X026223Y006444D01*
X026193Y006602D02*
X026423Y006602D01*
X026423Y006761D02*
X026100Y006761D01*
X025849Y006919D02*
X026423Y006919D01*
X026883Y006919D02*
X027968Y006919D01*
X027968Y006761D02*
X026883Y006761D01*
X026883Y006602D02*
X027968Y006602D01*
X027968Y006444D02*
X026883Y006444D01*
X026883Y006285D02*
X027968Y006285D01*
X027968Y006127D02*
X026883Y006127D01*
X026883Y005968D02*
X027968Y005968D01*
X027968Y005810D02*
X026883Y005810D01*
X026883Y005651D02*
X027968Y005651D01*
X027968Y005493D02*
X026883Y005493D01*
X026883Y005334D02*
X027968Y005334D01*
X027968Y005176D02*
X026883Y005176D01*
X026883Y005017D02*
X027968Y005017D01*
X027968Y004859D02*
X026883Y004859D01*
X026423Y004859D02*
X025995Y004859D01*
X026017Y005017D02*
X026423Y005017D01*
X026423Y005176D02*
X026159Y005176D01*
X026223Y005334D02*
X026423Y005334D01*
X026423Y005493D02*
X026223Y005493D01*
X026173Y005651D02*
X026423Y005651D01*
X026423Y005810D02*
X026051Y005810D01*
X025822Y004930D02*
X025228Y004930D01*
X025228Y004930D01*
X025822Y004930D01*
X026152Y004700D02*
X026423Y004700D01*
X026423Y004542D02*
X026218Y004542D01*
X026223Y004383D02*
X026423Y004383D01*
X026423Y004225D02*
X026179Y004225D01*
X026066Y004066D02*
X026423Y004066D01*
X026423Y003908D02*
X025877Y003908D01*
X025822Y003930D02*
X024984Y003930D01*
X025822Y003930D01*
X026111Y003749D02*
X026423Y003749D01*
X026883Y003749D02*
X027968Y003749D01*
X027968Y003908D02*
X026883Y003908D01*
X026883Y004066D02*
X027968Y004066D01*
X027968Y004225D02*
X026883Y004225D01*
X026883Y004383D02*
X027968Y004383D01*
X027968Y004542D02*
X026883Y004542D01*
X026883Y004700D02*
X027968Y004700D01*
X027968Y003591D02*
X026883Y003591D01*
X026883Y003432D02*
X027968Y003432D01*
X027968Y003274D02*
X026883Y003274D01*
X026883Y003115D02*
X027968Y003115D01*
X027968Y002957D02*
X026855Y002957D01*
X026696Y002798D02*
X027968Y002798D01*
X027968Y002640D02*
X026538Y002640D01*
X026046Y002798D02*
X025260Y002798D01*
X025419Y002640D02*
X025577Y002640D01*
X025887Y002957D02*
X026204Y002957D01*
X026115Y003115D02*
X026363Y003115D01*
X026423Y003274D02*
X026199Y003274D01*
X026223Y003432D02*
X026423Y003432D01*
X026423Y003591D02*
X026198Y003591D01*
X024984Y003930D02*
X024800Y003854D01*
X024683Y003737D01*
X024683Y004123D01*
X024800Y004006D01*
X024984Y003930D01*
X024929Y003908D02*
X024683Y003908D01*
X024683Y004066D02*
X024740Y004066D01*
X024695Y003749D02*
X024683Y003749D01*
X024023Y003591D02*
X023100Y003591D01*
X023203Y003432D02*
X024023Y003432D01*
X024023Y003274D02*
X023203Y003274D01*
X023203Y003115D02*
X024023Y003115D01*
X024051Y002957D02*
X023087Y002957D01*
X022928Y002798D02*
X024173Y002798D01*
X023677Y002640D02*
X020733Y002640D01*
X020733Y002798D02*
X021378Y002798D01*
X021396Y002780D02*
X021583Y002780D01*
X021583Y003260D01*
X021103Y003260D01*
X021103Y003073D01*
X021396Y002780D01*
X021583Y002798D02*
X021623Y002798D01*
X021623Y002780D02*
X021810Y002780D01*
X022103Y003073D01*
X022103Y003260D01*
X021623Y003260D01*
X021623Y002780D01*
X021623Y002957D02*
X021583Y002957D01*
X021583Y003115D02*
X021623Y003115D01*
X021623Y003260D02*
X021583Y003260D01*
X021583Y003300D01*
X021103Y003300D01*
X021103Y003487D01*
X021396Y003780D01*
X021583Y003780D01*
X021583Y003300D01*
X021623Y003300D01*
X021623Y003780D01*
X021810Y003780D01*
X022103Y003487D01*
X022103Y003300D01*
X021623Y003300D01*
X021623Y003260D01*
X021623Y003274D02*
X022203Y003274D01*
X022203Y003432D02*
X022103Y003432D01*
X022000Y003591D02*
X022306Y003591D01*
X022443Y003749D02*
X021841Y003749D01*
X021623Y003749D02*
X021583Y003749D01*
X021365Y003749D02*
X020741Y003749D01*
X020601Y003908D02*
X022358Y003908D01*
X022199Y004066D02*
X020442Y004066D01*
X020284Y004225D02*
X022041Y004225D01*
X021882Y004383D02*
X020125Y004383D01*
X019967Y004542D02*
X021724Y004542D01*
X021565Y004700D02*
X019808Y004700D01*
X018695Y005017D02*
X021248Y005017D01*
X021090Y005176D02*
X018731Y005176D01*
X018699Y005334D02*
X020931Y005334D01*
X020773Y005493D02*
X018576Y005493D01*
X018353Y005180D02*
X012253Y005180D01*
X012153Y005180D01*
X011553Y005180D01*
X009153Y002780D01*
X009153Y002380D01*
X008785Y002481D02*
X005420Y002481D01*
X005473Y002427D02*
X005273Y002627D01*
X005200Y002700D01*
X005105Y002740D01*
X005060Y002740D01*
X005060Y003086D01*
X005017Y003130D01*
X005060Y003174D01*
X005060Y003448D01*
X005152Y003540D01*
X006533Y003540D01*
X006439Y003501D01*
X006332Y003394D01*
X006275Y003255D01*
X006275Y003105D01*
X006332Y002966D01*
X006439Y002859D01*
X006578Y002802D01*
X006728Y002802D01*
X006867Y002859D01*
X006958Y002950D01*
X008248Y002950D01*
X008383Y003085D01*
X009100Y003802D01*
X009228Y003802D01*
X009367Y003859D01*
X009474Y003966D01*
X009531Y004105D01*
X009531Y004255D01*
X009474Y004394D01*
X009455Y004413D01*
X009567Y004459D01*
X009674Y004566D01*
X009731Y004705D01*
X009731Y004855D01*
X009674Y004994D01*
X009567Y005101D01*
X009428Y005158D01*
X009278Y005158D01*
X009139Y005101D01*
X009058Y005020D01*
X008205Y005020D01*
X008117Y004983D01*
X008050Y004916D01*
X007154Y004020D01*
X005005Y004020D01*
X004917Y003983D01*
X004850Y003916D01*
X004637Y003704D01*
X003951Y003704D01*
X003846Y003598D01*
X003846Y003174D01*
X003889Y003130D01*
X003882Y003122D01*
X003858Y003081D01*
X003846Y003036D01*
X003846Y002874D01*
X003846Y002740D01*
X003810Y002740D01*
X003810Y003086D01*
X003767Y003130D01*
X003810Y003174D01*
X003810Y003598D01*
X003705Y003704D01*
X003693Y003704D01*
X003693Y003781D01*
X004052Y004140D01*
X007201Y004140D01*
X007289Y004177D01*
X008452Y005340D01*
X009058Y005340D01*
X009139Y005259D01*
X009278Y005202D01*
X009428Y005202D01*
X009567Y005259D01*
X009674Y005366D01*
X009731Y005505D01*
X009731Y005655D01*
X009674Y005794D01*
X009567Y005901D01*
X009428Y005958D01*
X009278Y005958D01*
X009139Y005901D01*
X009058Y005820D01*
X008305Y005820D01*
X008217Y005783D01*
X007054Y004620D01*
X003905Y004620D01*
X003817Y004583D01*
X003750Y004516D01*
X003250Y004016D01*
X003213Y003928D01*
X003213Y003704D01*
X002701Y003704D01*
X002596Y003598D01*
X002596Y003174D01*
X002639Y003130D01*
X002632Y003122D01*
X002608Y003081D01*
X002596Y003036D01*
X002596Y002874D01*
X002596Y002740D01*
X002560Y002740D01*
X002560Y003086D01*
X002517Y003130D01*
X002560Y003174D01*
X002560Y003598D01*
X002455Y003704D01*
X002443Y003704D01*
X002443Y004031D01*
X003252Y004840D01*
X007101Y004840D01*
X007189Y004877D01*
X008452Y006140D01*
X009058Y006140D01*
X009139Y006059D01*
X009278Y006002D01*
X009428Y006002D01*
X009567Y006059D01*
X009674Y006166D01*
X009731Y006305D01*
X009731Y006455D01*
X009674Y006594D01*
X009567Y006701D01*
X009428Y006758D01*
X009278Y006758D01*
X009139Y006701D01*
X009058Y006620D01*
X008305Y006620D01*
X008217Y006583D01*
X008150Y006516D01*
X006954Y005320D01*
X003105Y005320D01*
X003017Y005283D01*
X002950Y005216D01*
X002000Y004266D01*
X001963Y004178D01*
X001963Y003704D01*
X001451Y003704D01*
X001346Y003598D01*
X001346Y003174D01*
X001389Y003130D01*
X001382Y003122D01*
X001358Y003081D01*
X001346Y003036D01*
X001346Y002874D01*
X001346Y002713D01*
X001358Y002667D01*
X001382Y002626D01*
X001415Y002592D01*
X001456Y002569D01*
X001502Y002556D01*
X001703Y002556D01*
X001904Y002556D01*
X001941Y002566D01*
X001951Y002556D01*
X001993Y002556D01*
X001993Y002528D01*
X002033Y002433D01*
X002088Y002377D01*
X001978Y002266D01*
X001864Y002380D01*
X001694Y002380D01*
X001602Y002380D01*
X001602Y002380D01*
X001602Y002380D01*
X001562Y002340D01*
X001562Y002340D01*
X001475Y002253D01*
X001433Y002211D01*
X001433Y002051D01*
X001433Y002039D01*
X001433Y002029D01*
X001433Y001869D01*
X001433Y001869D01*
X001433Y001869D01*
X001476Y001826D01*
X001539Y001762D01*
X001530Y001753D01*
X001488Y001711D01*
X001488Y001551D01*
X001488Y001529D01*
X001488Y001529D01*
X001488Y001369D01*
X001488Y001369D01*
X001531Y001326D01*
X001617Y001240D01*
X001657Y001200D01*
X001657Y001200D01*
X001657Y001200D01*
X001746Y001200D01*
X002254Y001200D01*
X002383Y001329D01*
X002383Y001671D01*
X002354Y001700D01*
X002483Y001829D01*
X002483Y002171D01*
X002434Y002220D01*
X002692Y002220D01*
X002683Y002211D01*
X002683Y002051D01*
X002683Y002029D01*
X002683Y001869D01*
X002683Y001869D01*
X002683Y001869D01*
X002726Y001826D01*
X002812Y001740D01*
X002818Y001733D01*
X002818Y001591D01*
X002738Y001511D01*
X002738Y001329D01*
X002867Y001200D01*
X003504Y001200D01*
X003633Y001329D01*
X003633Y001671D01*
X003604Y001700D01*
X003733Y001829D01*
X003733Y002171D01*
X003684Y002220D01*
X003942Y002220D01*
X003933Y002211D01*
X003933Y002115D01*
X003933Y002051D01*
X003933Y002029D01*
X003933Y001959D01*
X003933Y001869D01*
X003933Y001869D01*
X003933Y001869D01*
X003976Y001826D01*
X004039Y001762D01*
X004031Y001754D01*
X003988Y001711D01*
X003988Y001621D01*
X003988Y001529D01*
X003988Y001529D01*
X003988Y001329D01*
X004117Y001200D01*
X004754Y001200D01*
X004883Y001329D01*
X004883Y001671D01*
X004854Y001700D01*
X004983Y001829D01*
X004983Y002171D01*
X004934Y002220D01*
X004945Y002220D01*
X004993Y002172D01*
X004993Y001455D01*
X004932Y001394D01*
X004875Y001255D01*
X004875Y001105D01*
X004932Y000966D01*
X005039Y000859D01*
X005178Y000802D01*
X005328Y000802D01*
X005467Y000859D01*
X005574Y000966D01*
X005631Y001105D01*
X005631Y001255D01*
X005574Y001394D01*
X005513Y001455D01*
X005513Y002332D01*
X005473Y002427D01*
X005513Y002323D02*
X008775Y002323D01*
X008834Y002164D02*
X005513Y002164D01*
X005513Y002006D02*
X009068Y002006D01*
X009238Y002006D02*
X015173Y002006D01*
X015173Y002164D02*
X009472Y002164D01*
X009531Y002323D02*
X015173Y002323D01*
X015027Y002481D02*
X009521Y002481D01*
X009429Y002640D02*
X010186Y002640D01*
X010019Y002798D02*
X009539Y002798D01*
X009697Y002957D02*
X009975Y002957D01*
X009999Y003115D02*
X009856Y003115D01*
X010014Y003274D02*
X010111Y003274D01*
X010173Y003432D02*
X013606Y003432D01*
X013575Y003274D02*
X011645Y003274D01*
X011161Y003274D02*
X010595Y003274D01*
X010331Y003591D02*
X013707Y003591D01*
X013598Y003749D02*
X010490Y003749D01*
X010648Y003908D02*
X013575Y003908D01*
X013620Y004066D02*
X010807Y004066D01*
X010965Y004225D02*
X013673Y004225D01*
X013584Y004383D02*
X011124Y004383D01*
X011282Y004542D02*
X013575Y004542D01*
X013638Y004700D02*
X011441Y004700D01*
X011599Y004859D02*
X011940Y004859D01*
X012366Y004859D02*
X018140Y004859D01*
X018566Y004859D02*
X021407Y004859D01*
X020614Y005651D02*
X012884Y005651D01*
X012884Y005810D02*
X013138Y005810D01*
X013040Y005968D02*
X012884Y005968D01*
X012918Y006127D02*
X012805Y006127D01*
X012506Y006127D02*
X012469Y006127D01*
X012469Y005968D02*
X012506Y005968D01*
X012170Y006127D02*
X012140Y006127D01*
X012469Y005810D02*
X012506Y005810D01*
X012860Y005493D02*
X018130Y005493D01*
X019518Y006127D02*
X013781Y006127D01*
X013863Y006190D02*
X014202Y006190D01*
X014248Y006202D01*
X014289Y006226D01*
X014322Y006259D01*
X014346Y006301D01*
X014358Y006346D01*
X014358Y006480D01*
X013863Y006480D01*
X013863Y006190D01*
X013863Y006285D02*
X013863Y006285D01*
X013863Y006444D02*
X013863Y006444D01*
X013863Y006480D02*
X013863Y006480D01*
X014337Y006285D02*
X018680Y006285D01*
X018376Y006444D02*
X014358Y006444D01*
X014358Y006602D02*
X018217Y006602D01*
X018175Y006761D02*
X015269Y006761D01*
X015396Y006919D02*
X018201Y006919D01*
X018315Y007078D02*
X017476Y007078D01*
X017634Y007236D02*
X018729Y007236D01*
X018791Y007078D02*
X018888Y007078D01*
X018571Y007395D02*
X017793Y007395D01*
X017951Y007553D02*
X018245Y007553D01*
X018175Y007712D02*
X018110Y007712D01*
X016030Y007078D02*
X015431Y007078D01*
X015398Y007236D02*
X015872Y007236D01*
X015723Y007395D02*
X015283Y007395D01*
X015283Y007553D02*
X015723Y007553D01*
X015723Y007712D02*
X015283Y007712D01*
X015283Y007870D02*
X015723Y007870D01*
X015723Y008029D02*
X015427Y008029D01*
X015585Y008187D02*
X015723Y008187D01*
X014086Y009138D02*
X013730Y009138D01*
X013176Y009138D02*
X006084Y009138D01*
X006031Y009191D02*
X006031Y009305D01*
X005974Y009444D01*
X005878Y009540D01*
X006058Y009540D01*
X006139Y009459D01*
X006278Y009402D01*
X006428Y009402D01*
X006567Y009459D01*
X006648Y009540D01*
X009558Y009540D01*
X009639Y009459D01*
X009778Y009402D01*
X009928Y009402D01*
X010067Y009459D01*
X010174Y009566D01*
X010231Y009705D01*
X010231Y009855D01*
X010174Y009994D01*
X010067Y010101D01*
X009928Y010158D01*
X009778Y010158D01*
X009639Y010101D01*
X009558Y010020D01*
X006648Y010020D01*
X006567Y010101D01*
X006428Y010158D01*
X006278Y010158D01*
X006139Y010101D01*
X006058Y010020D01*
X002105Y010020D01*
X002017Y009983D01*
X001692Y009658D01*
X001578Y009658D01*
X001439Y009601D01*
X001332Y009494D01*
X001275Y009355D01*
X001275Y009205D01*
X001332Y009066D01*
X001413Y008985D01*
X001413Y005575D01*
X001332Y005494D01*
X001275Y005355D01*
X001275Y005205D01*
X001332Y005066D01*
X001439Y004959D01*
X001578Y004902D01*
X001728Y004902D01*
X001867Y004959D01*
X001974Y005066D01*
X002031Y005205D01*
X002031Y005355D01*
X001974Y005494D01*
X001893Y005575D01*
X001893Y008985D01*
X001974Y009066D01*
X002031Y009205D01*
X002031Y009319D01*
X002252Y009540D01*
X005428Y009540D01*
X005332Y009444D01*
X005275Y009305D01*
X005275Y009155D01*
X005332Y009016D01*
X005439Y008909D01*
X005578Y008852D01*
X005692Y008852D01*
X006913Y007631D01*
X006913Y007125D01*
X006832Y007044D01*
X006775Y006905D01*
X006775Y006755D01*
X006832Y006616D01*
X006939Y006509D01*
X006949Y006505D01*
X006939Y006501D01*
X006832Y006394D01*
X006775Y006255D01*
X006775Y006160D01*
X002808Y006160D01*
X002717Y006251D01*
X002578Y006308D01*
X002428Y006308D01*
X002289Y006251D01*
X002182Y006144D01*
X002125Y006005D01*
X002125Y005855D01*
X002182Y005716D01*
X002289Y005609D01*
X002428Y005552D01*
X002578Y005552D01*
X002717Y005609D01*
X002808Y005700D01*
X006998Y005700D01*
X007100Y005802D01*
X007228Y005802D01*
X007367Y005859D01*
X007474Y005966D01*
X007531Y006105D01*
X007531Y006255D01*
X007474Y006394D01*
X007367Y006501D01*
X007357Y006505D01*
X007367Y006509D01*
X007474Y006616D01*
X007531Y006755D01*
X007531Y006905D01*
X007474Y007044D01*
X007393Y007125D01*
X007393Y007778D01*
X007356Y007866D01*
X007289Y007933D01*
X006031Y009191D01*
X006031Y009297D02*
X014244Y009297D01*
X014403Y009455D02*
X010057Y009455D01*
X010194Y009614D02*
X015561Y009614D01*
X015720Y009772D02*
X010231Y009772D01*
X010200Y009931D02*
X015878Y009931D01*
X016037Y010089D02*
X010079Y010089D01*
X009627Y010089D02*
X006579Y010089D01*
X006127Y010089D02*
X000833Y010089D01*
X000833Y009931D02*
X001964Y009931D01*
X001806Y009772D02*
X000833Y009772D01*
X000833Y009614D02*
X001469Y009614D01*
X001316Y009455D02*
X000833Y009455D01*
X000833Y009297D02*
X001275Y009297D01*
X001302Y009138D02*
X000833Y009138D01*
X000833Y008980D02*
X001413Y008980D01*
X001413Y008821D02*
X000833Y008821D01*
X000833Y008663D02*
X001413Y008663D01*
X001413Y008504D02*
X000833Y008504D01*
X000833Y008346D02*
X001413Y008346D01*
X001413Y008187D02*
X000833Y008187D01*
X000833Y008029D02*
X001413Y008029D01*
X001413Y007870D02*
X000833Y007870D01*
X000833Y007712D02*
X001413Y007712D01*
X001413Y007553D02*
X000833Y007553D01*
X000833Y007395D02*
X001413Y007395D01*
X001413Y007236D02*
X000833Y007236D01*
X000833Y007078D02*
X001413Y007078D01*
X001413Y006919D02*
X000833Y006919D01*
X000833Y006761D02*
X001413Y006761D01*
X001413Y006602D02*
X000833Y006602D01*
X000833Y006444D02*
X001413Y006444D01*
X001413Y006285D02*
X000833Y006285D01*
X000833Y006127D02*
X001413Y006127D01*
X001413Y005968D02*
X000833Y005968D01*
X000833Y005810D02*
X001413Y005810D01*
X001413Y005651D02*
X000833Y005651D01*
X000833Y005493D02*
X001331Y005493D01*
X001275Y005334D02*
X000833Y005334D01*
X000833Y005176D02*
X001287Y005176D01*
X001381Y005017D02*
X000833Y005017D01*
X000833Y004859D02*
X002592Y004859D01*
X002751Y005017D02*
X001925Y005017D01*
X002019Y005176D02*
X002909Y005176D01*
X002759Y005651D02*
X007285Y005651D01*
X007248Y005810D02*
X007443Y005810D01*
X007475Y005968D02*
X007602Y005968D01*
X007531Y006127D02*
X007760Y006127D01*
X007919Y006285D02*
X007519Y006285D01*
X007425Y006444D02*
X008077Y006444D01*
X008262Y006602D02*
X007460Y006602D01*
X007531Y006761D02*
X011113Y006761D01*
X011113Y006919D02*
X007526Y006919D01*
X007441Y007078D02*
X011113Y007078D01*
X011113Y007236D02*
X007393Y007236D01*
X007393Y007395D02*
X011113Y007395D01*
X011113Y007553D02*
X007393Y007553D01*
X007393Y007712D02*
X011113Y007712D01*
X011131Y007870D02*
X007352Y007870D01*
X007194Y008029D02*
X011262Y008029D01*
X011371Y008187D02*
X007035Y008187D01*
X006877Y008346D02*
X011869Y008346D01*
X011639Y008504D02*
X006718Y008504D01*
X006560Y008663D02*
X011494Y008663D01*
X011494Y008821D02*
X006401Y008821D01*
X006243Y008980D02*
X011562Y008980D01*
X012603Y008663D02*
X013135Y008663D01*
X013075Y008821D02*
X012683Y008821D01*
X012655Y008980D02*
X013085Y008980D01*
X011843Y007980D02*
X011843Y007480D01*
X011113Y006602D02*
X009666Y006602D01*
X009731Y006444D02*
X011113Y006444D01*
X011113Y006285D02*
X009723Y006285D01*
X009635Y006127D02*
X011142Y006127D01*
X011291Y005968D02*
X008280Y005968D01*
X008439Y006127D02*
X009071Y006127D01*
X009659Y005810D02*
X011422Y005810D01*
X011422Y005651D02*
X009731Y005651D01*
X009726Y005493D02*
X011438Y005493D01*
X011339Y005334D02*
X009642Y005334D01*
X009651Y005017D02*
X011022Y005017D01*
X010864Y004859D02*
X009730Y004859D01*
X009730Y004700D02*
X010705Y004700D01*
X010547Y004542D02*
X009650Y004542D01*
X009479Y004383D02*
X010388Y004383D01*
X010230Y004225D02*
X009531Y004225D01*
X009515Y004066D02*
X010071Y004066D01*
X009913Y003908D02*
X009416Y003908D01*
X009754Y003749D02*
X009047Y003749D01*
X008889Y003591D02*
X009596Y003591D01*
X009437Y003432D02*
X008730Y003432D01*
X008572Y003274D02*
X009279Y003274D01*
X009120Y003115D02*
X008413Y003115D01*
X008255Y002957D02*
X008962Y002957D01*
X008893Y002798D02*
X005060Y002798D01*
X005060Y002957D02*
X006341Y002957D01*
X006275Y003115D02*
X005032Y003115D01*
X005060Y003274D02*
X006282Y003274D01*
X006370Y003432D02*
X005060Y003432D01*
X004703Y003386D02*
X004203Y003386D01*
X003846Y003432D02*
X003810Y003432D01*
X003810Y003274D02*
X003846Y003274D01*
X003878Y003115D02*
X003782Y003115D01*
X003810Y002957D02*
X003846Y002957D01*
X003846Y002874D02*
X004203Y002874D01*
X003846Y002874D01*
X003846Y002798D02*
X003810Y002798D01*
X003453Y002874D02*
X003453Y002480D01*
X004753Y002480D01*
X004703Y002530D01*
X004703Y002874D01*
X004203Y002874D02*
X004203Y002874D01*
X004753Y002480D02*
X005053Y002480D01*
X005253Y002280D01*
X005253Y001180D01*
X004895Y001055D02*
X000833Y001055D01*
X000833Y001213D02*
X001644Y001213D01*
X001617Y001240D02*
X001617Y001240D01*
X001488Y001369D02*
X001488Y001369D01*
X001488Y001372D02*
X000833Y001372D01*
X000833Y001530D02*
X001488Y001530D01*
X001488Y001551D02*
X001488Y001551D01*
X001488Y001689D02*
X000833Y001689D01*
X000833Y001847D02*
X001455Y001847D01*
X001488Y001711D02*
X001488Y001711D01*
X001488Y001711D01*
X001433Y002006D02*
X000833Y002006D01*
X000833Y002164D02*
X001433Y002164D01*
X001433Y002211D02*
X001433Y002211D01*
X001433Y002211D01*
X001544Y002323D02*
X000833Y002323D01*
X000833Y002481D02*
X002013Y002481D01*
X002034Y002323D02*
X001922Y002323D01*
X002253Y002580D02*
X002353Y002480D01*
X003453Y002480D01*
X003733Y002164D02*
X003933Y002164D01*
X003933Y002211D02*
X003933Y002211D01*
X003933Y002211D01*
X003933Y002006D02*
X003733Y002006D01*
X003733Y001847D02*
X003955Y001847D01*
X003988Y001711D02*
X003988Y001711D01*
X003988Y001711D01*
X003988Y001689D02*
X003616Y001689D01*
X003633Y001530D02*
X003988Y001530D01*
X003988Y001372D02*
X003633Y001372D01*
X003517Y001213D02*
X004104Y001213D01*
X004767Y001213D02*
X004875Y001213D01*
X004883Y001372D02*
X004923Y001372D01*
X004883Y001530D02*
X004993Y001530D01*
X004993Y001689D02*
X004866Y001689D01*
X004983Y001847D02*
X004993Y001847D01*
X004983Y002006D02*
X004993Y002006D01*
X004983Y002164D02*
X004993Y002164D01*
X005513Y001847D02*
X015173Y001847D01*
X015155Y001689D02*
X014651Y001689D01*
X014828Y001530D02*
X014978Y001530D01*
X014912Y001372D02*
X014894Y001372D01*
X014903Y001213D02*
X014903Y001213D01*
X014903Y001055D02*
X014903Y001055D01*
X014903Y000896D02*
X014903Y000896D01*
X014903Y000738D02*
X014903Y000738D01*
X014903Y000579D02*
X014903Y000579D01*
X014866Y000421D02*
X014940Y000421D01*
X013940Y000421D02*
X013866Y000421D01*
X013903Y000579D02*
X013903Y000579D01*
X013903Y000738D02*
X013903Y000738D01*
X013903Y000896D02*
X013903Y000896D01*
X013903Y001055D02*
X013903Y001055D01*
X013903Y001213D02*
X013903Y001213D01*
X013894Y001372D02*
X013912Y001372D01*
X013978Y001530D02*
X013828Y001530D01*
X013651Y001689D02*
X014155Y001689D01*
X013155Y001689D02*
X012651Y001689D01*
X012828Y001530D02*
X012978Y001530D01*
X012912Y001372D02*
X012894Y001372D01*
X012903Y001213D02*
X012903Y001213D01*
X012903Y001055D02*
X012903Y001055D01*
X012903Y000896D02*
X012903Y000896D01*
X012903Y000738D02*
X012903Y000738D01*
X012903Y000579D02*
X012903Y000579D01*
X012866Y000421D02*
X012940Y000421D01*
X011940Y000421D02*
X011866Y000421D01*
X011903Y000579D02*
X011903Y000579D01*
X011903Y000738D02*
X011903Y000738D01*
X011903Y000896D02*
X011903Y000896D01*
X011903Y001055D02*
X011903Y001055D01*
X011903Y001213D02*
X011903Y001213D01*
X011894Y001372D02*
X011912Y001372D01*
X011978Y001530D02*
X011828Y001530D01*
X011651Y001689D02*
X012155Y001689D01*
X011155Y001689D02*
X010651Y001689D01*
X010828Y001530D02*
X010978Y001530D01*
X010912Y001372D02*
X010894Y001372D01*
X010903Y001213D02*
X010903Y001213D01*
X010903Y001055D02*
X010903Y001055D01*
X010903Y000896D02*
X010903Y000896D01*
X010903Y000738D02*
X010903Y000738D01*
X010903Y000579D02*
X010903Y000579D01*
X010866Y000421D02*
X010940Y000421D01*
X009940Y000421D02*
X000833Y000421D01*
X000833Y000579D02*
X009903Y000579D01*
X009903Y000738D02*
X000833Y000738D01*
X000833Y000896D02*
X005002Y000896D01*
X005504Y000896D02*
X009903Y000896D01*
X009903Y001055D02*
X005611Y001055D01*
X005631Y001213D02*
X009903Y001213D01*
X009912Y001372D02*
X005583Y001372D01*
X005513Y001530D02*
X009978Y001530D01*
X010155Y001689D02*
X005513Y001689D01*
X005273Y002627D02*
X005273Y002627D01*
X005261Y002640D02*
X008877Y002640D01*
X010520Y002640D02*
X011236Y002640D01*
X011570Y002640D02*
X014868Y002640D01*
X014710Y002798D02*
X013796Y002798D01*
X014161Y002957D02*
X014551Y002957D01*
X014393Y003115D02*
X014294Y003115D01*
X012253Y005180D02*
X011853Y005580D01*
X011853Y005745D01*
X011818Y005780D01*
X011181Y005176D02*
X008288Y005176D01*
X008198Y005017D02*
X008129Y005017D01*
X007992Y004859D02*
X007971Y004859D01*
X007834Y004700D02*
X007812Y004700D01*
X007675Y004542D02*
X007654Y004542D01*
X007517Y004383D02*
X007495Y004383D01*
X007358Y004225D02*
X007337Y004225D01*
X007200Y004066D02*
X003978Y004066D01*
X003820Y003908D02*
X004841Y003908D01*
X004683Y003749D02*
X003693Y003749D01*
X003810Y003591D02*
X003846Y003591D01*
X003453Y003386D02*
X002953Y003386D01*
X002596Y003432D02*
X002560Y003432D01*
X002560Y003274D02*
X002596Y003274D01*
X002628Y003115D02*
X002532Y003115D01*
X002560Y002957D02*
X002596Y002957D01*
X002596Y002874D02*
X002953Y002874D01*
X002596Y002874D01*
X002596Y002798D02*
X002560Y002798D01*
X002253Y002824D02*
X002253Y002580D01*
X002253Y002824D02*
X002203Y002874D01*
X001703Y002874D02*
X001703Y002556D01*
X001703Y002874D01*
X001703Y002874D01*
X001346Y002874D01*
X001703Y002874D01*
X001703Y002874D01*
X001703Y002798D02*
X001703Y002798D01*
X001703Y002640D02*
X001703Y002640D01*
X001374Y002640D02*
X000833Y002640D01*
X000833Y002798D02*
X001346Y002798D01*
X001346Y002957D02*
X000833Y002957D01*
X000833Y003115D02*
X001378Y003115D01*
X001346Y003274D02*
X000833Y003274D01*
X000833Y003432D02*
X001346Y003432D01*
X001346Y003591D02*
X000833Y003591D01*
X000833Y003749D02*
X001963Y003749D01*
X001963Y003908D02*
X000833Y003908D01*
X000833Y004066D02*
X001963Y004066D01*
X001982Y004225D02*
X000833Y004225D01*
X000833Y004383D02*
X002117Y004383D01*
X002275Y004542D02*
X000833Y004542D01*
X000833Y004700D02*
X002434Y004700D01*
X002954Y004542D02*
X003775Y004542D01*
X003617Y004383D02*
X002795Y004383D01*
X002637Y004225D02*
X003458Y004225D01*
X003300Y004066D02*
X002478Y004066D01*
X002443Y003908D02*
X003213Y003908D01*
X003213Y003749D02*
X002443Y003749D01*
X002560Y003591D02*
X002596Y003591D01*
X002203Y003386D02*
X001703Y003386D01*
X002953Y002874D02*
X002953Y002874D01*
X002683Y002211D02*
X002683Y002211D01*
X002683Y002211D01*
X002683Y002164D02*
X002483Y002164D01*
X002483Y002006D02*
X002683Y002006D01*
X002683Y002029D02*
X002683Y002029D01*
X002683Y002051D02*
X002683Y002051D01*
X002705Y001847D02*
X002483Y001847D01*
X002366Y001689D02*
X002818Y001689D01*
X002812Y001740D02*
X002812Y001740D01*
X002757Y001530D02*
X002383Y001530D01*
X002383Y001372D02*
X002738Y001372D01*
X002854Y001213D02*
X002267Y001213D01*
X001433Y002029D02*
X001433Y002029D01*
X001433Y002051D02*
X001433Y002051D01*
X003112Y004700D02*
X007134Y004700D01*
X007145Y004859D02*
X007292Y004859D01*
X007329Y005017D02*
X007451Y005017D01*
X007488Y005176D02*
X007609Y005176D01*
X007646Y005334D02*
X007768Y005334D01*
X007805Y005493D02*
X007926Y005493D01*
X007963Y005651D02*
X008085Y005651D01*
X008122Y005810D02*
X008280Y005810D01*
X008446Y005334D02*
X009064Y005334D01*
X007126Y005493D02*
X001975Y005493D01*
X002031Y005334D02*
X006968Y005334D01*
X006787Y006285D02*
X002635Y006285D01*
X002371Y006285D02*
X001893Y006285D01*
X001893Y006127D02*
X002175Y006127D01*
X002125Y005968D02*
X001893Y005968D01*
X001893Y005810D02*
X002143Y005810D01*
X002247Y005651D02*
X001893Y005651D01*
X001893Y006444D02*
X006881Y006444D01*
X006846Y006602D02*
X001893Y006602D01*
X001893Y006761D02*
X006775Y006761D01*
X006780Y006919D02*
X001893Y006919D01*
X001893Y007078D02*
X006865Y007078D01*
X006913Y007236D02*
X001893Y007236D01*
X001893Y007395D02*
X006913Y007395D01*
X006913Y007553D02*
X001893Y007553D01*
X001893Y007712D02*
X006832Y007712D01*
X006674Y007870D02*
X001893Y007870D01*
X001893Y008029D02*
X006515Y008029D01*
X006357Y008187D02*
X001893Y008187D01*
X001893Y008346D02*
X006198Y008346D01*
X006040Y008504D02*
X001893Y008504D01*
X001893Y008663D02*
X005881Y008663D01*
X005723Y008821D02*
X001893Y008821D01*
X001893Y008980D02*
X005368Y008980D01*
X005282Y009138D02*
X002004Y009138D01*
X002031Y009297D02*
X005275Y009297D01*
X005343Y009455D02*
X002167Y009455D01*
X000833Y010248D02*
X016195Y010248D01*
X016354Y010406D02*
X000833Y010406D01*
X000833Y010565D02*
X016512Y010565D01*
X019171Y010723D02*
X000833Y010723D01*
X000833Y010882D02*
X019329Y010882D01*
X025967Y007870D02*
X026423Y007870D01*
X026423Y007712D02*
X026148Y007712D01*
X026213Y007553D02*
X026423Y007553D01*
X026423Y007395D02*
X026223Y007395D01*
X026184Y007236D02*
X026423Y007236D01*
X026423Y007078D02*
X026078Y007078D01*
X026883Y007078D02*
X027968Y007078D01*
X027968Y007236D02*
X026883Y007236D01*
X026883Y007395D02*
X027968Y007395D01*
X027968Y007553D02*
X026883Y007553D01*
X026883Y007712D02*
X027968Y007712D01*
X027968Y007870D02*
X026883Y007870D01*
X026883Y008029D02*
X027968Y008029D01*
X027968Y008187D02*
X026883Y008187D01*
X026883Y008346D02*
X027968Y008346D01*
X027968Y008504D02*
X026883Y008504D01*
X026883Y008663D02*
X027968Y008663D01*
X027968Y008821D02*
X026883Y008821D01*
X026879Y008980D02*
X027968Y008980D01*
X027968Y009138D02*
X026720Y009138D01*
X026562Y009297D02*
X027968Y009297D01*
X027968Y009455D02*
X026403Y009455D01*
X026245Y009614D02*
X027968Y009614D01*
X026387Y008821D02*
X026035Y008821D01*
X026166Y008663D02*
X026423Y008663D01*
X026423Y008504D02*
X026218Y008504D01*
X026216Y008346D02*
X026423Y008346D01*
X026423Y008187D02*
X026160Y008187D01*
X026021Y008029D02*
X026423Y008029D01*
X020456Y005810D02*
X013668Y005810D01*
X013766Y005968D02*
X020297Y005968D01*
X020139Y006127D02*
X019789Y006127D01*
X022703Y003930D02*
X022703Y003280D01*
X022203Y003115D02*
X022103Y003115D01*
X021987Y002957D02*
X022319Y002957D01*
X022478Y002798D02*
X021828Y002798D01*
X021219Y002957D02*
X020887Y002957D01*
X021003Y003115D02*
X021103Y003115D01*
X021003Y003274D02*
X021583Y003274D01*
X021583Y003432D02*
X021623Y003432D01*
X021623Y003591D02*
X021583Y003591D01*
X021206Y003591D02*
X020900Y003591D01*
X021003Y003432D02*
X021103Y003432D01*
X020733Y002481D02*
X021762Y002481D01*
X021573Y002323D02*
X020836Y002323D01*
X020994Y002164D02*
X021525Y002164D01*
X025633Y002006D02*
X025768Y002006D01*
X025938Y002006D02*
X027968Y002006D01*
X027968Y002164D02*
X026172Y002164D01*
X026231Y002323D02*
X027968Y002323D01*
X027968Y002481D02*
X026379Y002481D01*
X025633Y001847D02*
X027968Y001847D01*
X027968Y001689D02*
X027644Y001689D01*
X027423Y001689D02*
X027383Y001689D01*
X027383Y001530D02*
X027423Y001530D01*
X027162Y001689D02*
X026651Y001689D01*
X026828Y001530D02*
X026988Y001530D01*
X026917Y001372D02*
X026894Y001372D01*
X026903Y001213D02*
X026903Y001213D01*
X026903Y001055D02*
X026903Y001055D01*
X026903Y000896D02*
X026903Y000896D01*
X026903Y000738D02*
X026903Y000738D01*
X026903Y000579D02*
X026903Y000579D01*
X026866Y000421D02*
X026939Y000421D01*
X027867Y000421D02*
X027968Y000421D01*
X027968Y000579D02*
X027903Y000579D01*
X027903Y000738D02*
X027968Y000738D01*
X027968Y000896D02*
X027903Y000896D01*
X027903Y001055D02*
X027968Y001055D01*
X027968Y001213D02*
X027903Y001213D01*
X027889Y001372D02*
X027968Y001372D01*
X027968Y001530D02*
X027818Y001530D01*
X027423Y001372D02*
X027383Y001372D01*
X027383Y001213D02*
X027423Y001213D01*
X027423Y001055D02*
X027383Y001055D01*
X026155Y001689D02*
X025651Y001689D01*
X025828Y001530D02*
X025978Y001530D01*
X025912Y001372D02*
X025894Y001372D01*
X025903Y001213D02*
X025903Y001213D01*
X025903Y001055D02*
X025903Y001055D01*
X025903Y000896D02*
X025903Y000896D01*
X025903Y000738D02*
X025903Y000738D01*
X025903Y000579D02*
X025903Y000579D01*
X025866Y000421D02*
X025940Y000421D01*
X014837Y006761D02*
X014359Y006761D01*
X014517Y006919D02*
X014710Y006919D01*
X009649Y009455D02*
X006557Y009455D01*
X006149Y009455D02*
X005963Y009455D01*
D21*
X011843Y006980D02*
X013053Y006980D01*
X013403Y007330D02*
X013553Y007480D01*
X013863Y007480D01*
X013403Y007330D02*
X013403Y006080D01*
X013053Y006480D02*
X011843Y006480D01*
X013053Y007580D02*
X013453Y007980D01*
X013863Y007980D01*
X014253Y008380D02*
X014353Y008280D01*
X014353Y007080D01*
X014253Y006980D01*
X014703Y007430D02*
X014703Y008080D01*
X016603Y009980D01*
X017353Y009980D01*
X017353Y009380D02*
X018053Y010080D01*
X019653Y010080D01*
X019753Y009980D01*
X019153Y010380D02*
X019453Y010680D01*
X020903Y010680D01*
X022103Y009480D01*
X026053Y009480D01*
X026653Y008880D01*
X026653Y003080D01*
X025953Y002380D01*
X025853Y002380D01*
X025403Y002330D02*
X024453Y003280D01*
X024453Y005080D01*
X024053Y005480D01*
X024053Y008280D01*
X023653Y008680D01*
X018353Y008680D01*
X017053Y007380D01*
X016753Y007380D01*
X016353Y007780D01*
X016853Y007780D02*
X016953Y007780D01*
X018153Y008980D01*
X023753Y008980D01*
X024253Y008480D01*
X024253Y005580D01*
X025403Y004430D01*
X024253Y004980D02*
X024253Y003080D01*
X024403Y002930D01*
X024403Y000930D01*
X025403Y000930D02*
X025403Y002330D01*
X023953Y002380D02*
X022153Y002380D01*
X021903Y002130D01*
X021953Y001780D02*
X021053Y001780D01*
X020503Y002330D01*
X020503Y003280D01*
X020503Y003680D01*
X019703Y004480D01*
X013953Y004480D01*
X013953Y003880D02*
X015403Y002430D01*
X015403Y000930D01*
X019403Y000930D02*
X019403Y003280D01*
X020503Y003280D02*
X020503Y003480D01*
X021953Y001780D02*
X022403Y001330D01*
X022403Y000930D01*
X013953Y003280D02*
X013653Y002980D01*
X011403Y002980D01*
X010353Y002980D01*
X009153Y004180D02*
X008153Y003180D01*
X006653Y003180D01*
X006903Y005930D02*
X002503Y005930D01*
X006903Y005930D02*
X007153Y006180D01*
X013453Y008880D02*
X014153Y008880D01*
X014553Y009280D01*
X015553Y009280D01*
X016653Y010380D01*
X019153Y010380D01*
X017353Y009380D02*
X016453Y009380D01*
X015053Y007980D01*
X015053Y007080D01*
X015953Y007480D02*
X015953Y008480D01*
X016253Y008780D01*
X016453Y008780D01*
X017353Y008780D02*
X017853Y009280D01*
X023853Y009280D01*
X024453Y008680D01*
X024453Y005980D01*
X025003Y005430D01*
X025403Y005430D01*
X024253Y004980D02*
X023853Y005380D01*
X023853Y008080D01*
X023553Y008380D01*
X018453Y008380D01*
X017253Y007180D01*
X016253Y007180D01*
X015953Y007480D01*
M02*
